<?xml version="1.0" encoding="UTF-8"?>
<!DOCTYPE svg PUBLIC "-//W3C//DTD SVG 1.0//EN" "http://www.w3.org/TR/2001/REC-SVG-20010904/DTD/svg10.dtd">
<!-- Creator: CorelDRAW 2020 (64-Bit) -->
<svg xmlns="http://www.w3.org/2000/svg" xml:space="preserve" width="3125px" height="2083px" version="1.0" style="shape-rendering:geometricPrecision; text-rendering:geometricPrecision; image-rendering:optimizeQuality; fill-rule:evenodd; clip-rule:evenodd"
viewBox="0 0 3125 2083.34"
 xmlns:xlink="http://www.w3.org/1999/xlink"
 xmlns:xodm="http://www.corel.com/coreldraw/odm/2003">
 <defs>
  <style type="text/css">
   <![CDATA[
    .fil4 {fill:none}
    .fil0 {fill:#FBF7EF;fill-rule:nonzero}
    .fil1 {fill:#372F2F;fill-rule:nonzero}
    .fil3 {fill:#975140;fill-rule:nonzero}
    .fil2 {fill:#A5A8A0;fill-rule:nonzero}
   ]]>
  </style>
   <clipPath id="id0">
    <path d="M-0.5 0.33l3125 0 0 2083.34 -3125 0 0 -2083.34z"/>
   </clipPath>
 </defs>
 <g id="Layer_x0020_1">
  <metadata id="CorelCorpID_0Corel-Layer"/>
  <g>
  </g>
  <g style="clip-path:url(#id0)">
   <g>
    <g id="_2719281053200">
     <path class="fil0" d="M0.34 2083.61l3125 0 0 -2083.34 -3125 0 0 2083.34z"/>
     <path class="fil1" d="M-172.82 1907.09c154.41,-242.71 462.76,-372.41 724.69,-334.82 310.15,44.51 321.34,290.01 665.06,366.93 352.02,78.78 554.66,-130.75 692.58,-9.17 132.02,116.37 100.98,444.73 -41.28,651.29 -398.16,578.14 -1859.97,481.77 -2114.43,-73.38 -90.06,-196.48 -26.14,-444.42 73.38,-600.85z"/>
     <path class="fil2" d="M1460.02 -546.75c154.41,-242.71 462.75,-372.41 724.69,-334.82 310.15,44.51 321.34,290 665.06,366.93 352.02,78.78 554.66,-130.75 692.58,-9.17 132.01,116.37 100.98,444.72 -41.29,651.29 -398.16,578.14 -1859.96,481.77 -2114.42,-73.38 -90.07,-196.48 -26.14,-444.42 73.38,-600.85z"/>
     <path class="fil3" d="M2574.57 2388.68c-107.24,-140.9 -212.43,-394.35 -114.67,-536.63 123.66,-179.96 474.11,-39.55 573.33,-210.98 89.03,-153.84 -152.39,-337.37 -77.97,-554.98 64.18,-187.7 340.62,-334.38 527.46,-279.79 435.45,127.24 738.33,1451.36 220.16,1816.3 -300.75,211.81 -875.27,98.55 -1128.31,-233.92z"/>
     <path class="fil3" d="M-241.61 1397.97c251.7,4.17 483.99,-340.67 536.63,-632.95 52.68,-292.55 -102.8,-375.94 -41.28,-665.06 76.08,-357.55 358.55,-439.9 316.47,-600.84 -55.42,-211.98 -625.57,-375.57 -1004.46,-165.12 -472,262.15 -488.03,1016.33 -321.07,1476.89 27.13,74.82 211.02,582.08 513.71,587.08z"/>
     <path class="fil3" d="M737.22 144.02c12.69,1.89 25.72,-0.9 37.61,-5.74 23.81,-9.67 44.71,-28.64 52.26,-53.21 3.13,-10.2 3.85,-21.45 0.07,-31.42 -6.46,-17.03 -24.94,-26.67 -42.42,-27.48 -15.43,-0.72 -33.15,2.91 -47.48,8.67 -11.02,4.43 -20.77,11.5 -26.92,21.82 -7.08,11.9 -8.96,26.19 -9.2,39.81 -0.18,10.41 0.6,21.04 6.57,29.94 5.34,7.96 13.84,13.44 22.93,16.14 2.16,0.64 4.36,1.14 6.58,1.47z"/>
     <path class="fil3" d="M518.2 86.1c0.3,7.2 3.9,13.82 8.77,19.49 9.74,11.35 25.57,19.61 43.58,19.7 7.48,0.04 15.38,-1.39 21.81,-5.07 11,-6.28 15.33,-17.89 13.67,-27.51 -1.47,-8.49 -6.24,-17.52 -12.07,-24.37 -4.48,-5.26 -10.62,-9.4 -18.57,-11.06 -9.16,-1.91 -19.32,-0.6 -28.8,1.48 -7.24,1.61 -14.52,3.75 -19.94,8.45 -4.84,4.2 -7.56,9.7 -8.28,15.08 -0.17,1.28 -0.23,2.55 -0.17,3.81z"/>
     <path class="fil3" d="M1047.02 380.86c7.2,-0.07 13.93,-3.44 19.76,-8.12 11.68,-9.36 20.46,-24.9 21.16,-42.9 0.29,-7.47 -0.88,-15.41 -4.35,-21.97 -5.9,-11.2 -17.35,-15.91 -27.03,-14.58 -8.54,1.19 -17.72,5.66 -24.76,11.25 -5.41,4.3 -9.76,10.3 -11.67,18.19 -2.21,9.09 -1.25,19.29 0.52,28.83 1.35,7.3 3.26,14.64 7.77,20.21 4.03,4.99 9.44,7.88 14.8,8.78 1.26,0.21 2.53,0.32 3.8,0.31z"/>
     <path class="fil3" d="M918.07 202.89c5.94,7.61 15.38,11.85 24.9,13.44 16.01,2.67 33.07,-1.71 45.8,-11.76 12.5,-9.85 20.65,-25.01 22.03,-40.86 0.79,-9.13 -1.26,-17.34 -7.98,-23.83 -5.6,-5.4 -13.41,-9.06 -20.64,-11.79 -11.04,-4.17 -23.19,-5.36 -34.2,-0.47 -11.73,5.22 -20.21,15.77 -26.7,26.5 -7.99,13.21 -13.72,29.09 -6.24,43.96 0.85,1.7 1.86,3.31 3.03,4.81z"/>
     <path class="fil3" d="M1091.06 13.07c-8.12,2.52 -14.84,8.47 -19.76,15.41 -5.27,7.44 -8.64,16.18 -9.91,25.2 -0.93,6.61 -0.73,13.38 0.68,19.91 3.37,15.64 16.71,37.51 34.38,39.66 9.74,1.18 17.39,-6.05 22.23,-13.69 6.49,-10.23 9.77,-22.59 11.03,-34.54 1.26,-11.88 0.66,-24.76 -4.3,-35.81 -4.63,-10.32 -13.44,-17.32 -25.01,-17.46 -3.16,-0.04 -6.32,0.38 -9.34,1.32z"/>
     <path class="fil3" d="M1214.93 165.14c-4.46,-6.98 -10.96,-11.07 -17.6,-12.95 -7.12,-2 -14.56,-1.56 -21.53,1.1 -5.11,1.95 -9.96,5.08 -14.25,9.31 -10.28,10.14 -21.86,32.89 -17.7,51.39 2.29,10.18 10.03,14.64 17.14,16.14 9.55,2.01 19.59,-0.1 28.69,-4.04 9.04,-3.91 18.21,-10.1 24.64,-19.81 6,-9.08 8.24,-20.87 4.6,-32.44 -1,-3.15 -2.33,-6.1 -3.99,-8.7z"/>
     <path class="fil3" d="M932.43 21.39c-5.1,0.48 -8.97,2.74 -11.56,5.64 -2.78,3.11 -4.2,7.02 -4.22,11.26 -0.01,3.1 0.74,6.38 2.25,9.66 3.64,7.85 14.37,19.6 26.15,22.24 6.5,1.46 10.86,-1.34 13.34,-4.58 3.33,-4.34 4.37,-10.01 4.11,-15.66 -0.26,-5.61 -1.82,-11.88 -6.07,-17.66 -3.97,-5.4 -10.39,-9.57 -17.99,-10.69 -2.08,-0.31 -4.11,-0.39 -6.01,-0.21z"/>
     <path class="fil3" d="M895.79 343.44c-5.1,0.48 -8.97,2.74 -11.56,5.64 -2.79,3.11 -4.2,7.02 -4.21,11.26 -0.02,3.1 0.73,6.38 2.25,9.66 3.62,7.84 14.36,19.6 26.15,22.24 6.49,1.46 10.85,-1.34 13.33,-4.58 3.34,-4.35 4.37,-10.01 4.11,-15.66 -0.26,-5.62 -1.82,-11.88 -6.07,-17.66 -3.98,-5.4 -10.39,-9.57 -17.99,-10.69 -2.08,-0.31 -4.11,-0.39 -6.01,-0.21z"/>
     <path class="fil3" d="M581.46 208.45c-5.1,0.48 -8.97,2.74 -11.57,5.64 -2.78,3.11 -4.2,7.02 -4.21,11.25 -0.01,3.11 0.73,6.39 2.25,9.67 3.63,7.85 14.36,19.6 26.15,22.24 6.49,1.46 10.86,-1.34 13.34,-4.58 3.33,-4.35 4.36,-10.01 4.1,-15.66 -0.26,-5.62 -1.81,-11.88 -6.06,-17.66 -3.98,-5.4 -10.4,-9.57 -18,-10.69 -2.07,-0.31 -4.11,-0.39 -6,-0.21z"/>
     <path class="fil3" d="M776.93 252.19c-3.92,-6.06 -9.85,-9.77 -16,-11.61 -6.59,-1.97 -13.57,-1.89 -20.2,0.07 -4.85,1.44 -9.52,3.89 -13.69,7.29 -10.01,8.13 -21.71,26.85 -18.51,42.6 1.76,8.67 8.83,12.74 15.44,14.28 8.86,2.08 18.34,0.7 27.02,-2.26 8.61,-2.94 17.43,-7.79 23.81,-15.72 5.97,-7.41 8.5,-17.27 5.53,-27.15 -0.81,-2.7 -1.95,-5.25 -3.4,-7.5z"/>
     <path class="fil3" d="M2454.94 128.51c5.72,-11.49 7.06,-24.75 6.13,-37.55 -1.87,-25.63 -13.47,-51.36 -34.52,-66.11 -8.73,-6.12 -19.21,-10.28 -29.87,-9.76 -18.19,0.9 -33.05,15.51 -39.21,31.89 -5.44,14.46 -7.45,32.44 -6.39,47.84 0.82,11.85 4.54,23.31 12.47,32.33 9.13,10.4 22.15,16.61 35.03,21.03 9.85,3.38 20.2,5.92 30.52,2.98 9.21,-2.63 17.04,-9.02 22.42,-16.84 1.27,-1.86 2.42,-3.8 3.42,-5.81z"/>
     <path class="fil3" d="M2332.34 319.02c6.94,1.93 14.35,0.55 21.24,-2.34 13.8,-5.77 26.54,-18.29 32.18,-35.39 2.34,-7.1 3.41,-15.05 1.89,-22.31 -2.59,-12.39 -12.29,-20.09 -21.95,-21.48 -8.54,-1.22 -18.6,0.54 -26.91,3.97 -6.38,2.64 -12.22,7.21 -16.24,14.26 -4.64,8.13 -6.53,18.19 -7.46,27.85 -0.71,7.39 -0.91,14.98 1.88,21.58 2.5,5.9 6.9,10.18 11.8,12.52 1.16,0.56 2.35,1 3.57,1.34z"/>
     <path class="fil3" d="M2257.45 232.21c3.25,-6.79 4.2,-14.53 3.93,-21.97 -0.55,-14.88 -6.3,-29.66 -17.28,-37.87 -4.55,-3.42 -10.08,-5.65 -15.78,-5.16 -9.72,0.84 -17.91,9.6 -21.49,19.24 -3.15,8.51 -4.54,19.01 -4.24,27.96 0.23,6.88 2.01,13.49 6.09,18.61 4.69,5.89 11.54,9.27 18.33,11.62 5.21,1.8 10.68,3.1 16.24,1.2 4.97,-1.69 9.26,-5.55 12.27,-10.19 0.71,-1.11 1.36,-2.25 1.93,-3.44z"/>
     <path class="fil3" d="M2225.14 41.74c7.91,-2.88 14,-8.94 18.16,-15.81 4.45,-7.37 6.85,-15.85 7.08,-24.48 0.17,-6.32 -0.8,-12.71 -2.98,-18.81 -5.22,-14.6 -21.21,-34.5 -39.29,-35.44 -9.96,-0.53 -16.85,6.79 -20.85,14.32 -5.37,10.09 -7.25,22 -7.14,33.4 0.11,11.33 2.2,23.49 8.48,33.64 5.86,9.5 15.57,15.58 27.26,15.01 3.2,-0.16 6.34,-0.75 9.28,-1.83z"/>
     <path class="fil3" d="M2693.52 39.11c-1.12,5.01 -0.16,9.38 1.8,12.74 2.11,3.61 5.38,6.16 9.41,7.48 2.95,0.97 6.3,1.27 9.89,0.84 8.59,-1.04 23.07,-7.63 29.22,-18.03 3.39,-5.73 2.07,-10.73 -0.25,-14.1 -3.11,-4.51 -8.18,-7.23 -13.63,-8.73 -5.43,-1.48 -11.87,-1.93 -18.67,0.33 -6.36,2.12 -12.31,6.94 -15.72,13.83 -0.93,1.87 -1.64,3.78 -2.05,5.64z"/>
     <path class="fil3" d="M2468.23 296.55c-1.12,5 -0.16,9.37 1.8,12.74 2.1,3.6 5.38,6.15 9.41,7.47 2.95,0.97 6.3,1.27 9.89,0.84 8.58,-1.03 23.07,-7.62 29.22,-18.02 3.38,-5.73 2.07,-10.74 -0.25,-14.1 -3.11,-4.51 -8.18,-7.24 -13.64,-8.73 -5.42,-1.49 -11.86,-1.93 -18.66,0.33 -6.36,2.11 -12.31,6.93 -15.72,13.82 -0.93,1.88 -1.64,3.79 -2.05,5.65z"/>
     <path class="fil3" d="M2570.08 124.07c-6.97,1.85 -12.33,6.36 -15.97,11.64 -3.91,5.66 -5.99,12.33 -6.16,19.24 -0.13,5.06 0.76,10.25 2.71,15.27 4.66,12.03 18.85,28.92 34.82,30.74 8.8,1 14.85,-4.48 18.35,-10.29 4.7,-7.79 6.32,-17.23 6.17,-26.4 -0.13,-9.1 -2.03,-18.98 -7.61,-27.5 -5.21,-7.96 -13.81,-13.41 -24.13,-13.63 -2.82,-0.05 -5.59,0.24 -8.18,0.93z"/>
     <path class="fil1" d="M3839.29 698.5c-219.3,-126.42 -493.68,-172.56 -732.78,-74.8 -106.23,43.44 -201.43,113.59 -269.38,206.55 -61.82,84.56 -101.35,182.82 -135.76,281.04 -68.86,196.56 -123.04,421.43 -303.39,548.28 -102.18,71.88 -225.73,105.08 -346.27,131.11 -124.36,26.84 -252.94,48.36 -361.46,119.07 -174.9,113.95 -283.22,324.62 -272.59,533.23 1.28,25.12 4.63,50.12 9.46,74.8 0.45,2.3 4.48,1.59 4.07,-0.74 -37.23,-209.8 51.35,-433.92 216.21,-567.47 42.58,-34.51 90.03,-62.49 140.88,-82.95 62.79,-25.26 128.98,-40.24 195.09,-53.9 120.06,-24.79 242.08,-48.42 352.08,-104.97 96.62,-49.67 172.64,-125.11 226.76,-218.89 51.27,-88.85 83.73,-186.98 115.69,-283.99 32.53,-98.73 64.11,-198.71 113.58,-290.58 53.95,-100.22 130.74,-183.63 229.08,-241.66 103.61,-61.13 223.3,-93.04 343.34,-95.44 133.16,-2.66 265.24,29.36 386.38,83.51 29.38,13.14 58.36,27.17 86.68,42.46 2.97,1.6 5.23,-2.99 2.33,-4.66z"/>
     <path class="fil3" d="M2671.99 311.13c-37.5,0.54 -77.95,-7.42 -106.82,-32.93 -24.43,-21.58 -40.99,-55.88 -35.25,-88.88 10.73,-61.61 91,-77.44 137.19,-45.15 52.69,36.84 54.42,111.26 29.56,165.59 -8.21,0.77 -16.45,1.25 -24.68,1.37zm-567.19 -105.91c13.57,-26.25 54.85,-56.38 82.18,-30.51 25.01,23.7 11.62,69.59 -0.33,96.61 -14.58,32.94 -38.52,60.08 -66.83,82.09 -27.4,-44.74 -39.74,-100.38 -15.02,-148.19zm-444.44 -58.09c20.21,-23.14 50.43,-41.86 81.99,-42.24 43.62,-0.52 31.86,51.14 14.87,74.06 -31.68,42.73 -80.8,71.08 -132.45,86.14 -5.16,-41.75 6.52,-84.68 35.59,-117.96zm1479.32 -484.37c-0.36,-5.82 -9.4,-5.35 -9.04,0.48 9.49,154.09 -19.65,316.53 -110.26,444.46 -39.68,56.01 -90.19,104.55 -148.73,140.54 -49.94,30.71 -107.53,53.49 -166.38,60.56 9.32,-21.02 14.58,-43.83 14.15,-68.26 -0.59,-33.35 -12.13,-66.76 -35.86,-90.73 -20.66,-20.86 -50.13,-30.36 -79.17,-28.52 -27.37,1.73 -54.71,13.98 -70.29,37.23 -18.12,27.02 -15.43,62.14 -1.26,90.2 30.37,60.14 97.61,73.75 159.92,68.96 -1.41,2.68 -2.87,5.33 -4.41,7.89 -36.2,59.94 -102.53,100.83 -166.67,125.07 -120.99,45.71 -276.19,39.5 -371.24,-57.82 -9.76,-9.99 -18.88,-21.33 -26.91,-33.57 3.45,-2.71 6.86,-5.49 10.2,-8.36 25.55,-21.9 47.3,-48.79 60.12,-80.12 11.27,-27.53 20.53,-67 1.59,-93.42 -19.21,-26.79 -54.91,-17.89 -76.41,0.72 -24.98,21.62 -34.62,56.53 -33.66,88.66 0.96,32.78 11.76,63.61 28.77,90.95 -21.44,15.84 -45.06,28.89 -68.92,39.32 -70.51,30.84 -152.97,47.26 -229.64,36.27 -69.48,-9.95 -136.21,-47.09 -171.45,-109.44 -9.07,-16.06 -15.06,-33.27 -18.14,-50.81 25.85,-7.63 50.59,-18.46 72.93,-32.3 28.93,-17.93 60.94,-43.59 74.53,-75.76 10.07,-23.82 10.68,-60.39 -21.54,-66 -30.64,-5.33 -64.81,13.3 -86.37,33.51 -23.43,21.97 -39.48,51.75 -46.11,83.1 -3.69,17.4 -4.09,34.69 -1.75,51.48 -16.22,4.33 -32.61,7.41 -48.75,9.17 -74.13,8.05 -151.71,-11.73 -200.1,-71.52 -48.53,-59.97 -60.67,-140.33 -52.73,-215.18 4.4,-41.53 14.4,-82.18 26.18,-122.16 0.62,-2.14 -2.73,-2.81 -3.39,-0.7 -25.63,83.61 -44.34,174.83 -17.94,260.66 10.84,35.28 28.83,68.69 54.44,95.46 26.62,27.83 61.16,46.34 98.43,55.46 46.75,11.45 97.68,9.66 145.2,-3.17 8.94,46.58 38.63,88.7 77.03,117.6 67.27,50.62 154.55,58.6 235.46,45.1 65.95,-11 132.41,-33.85 186.38,-74.27 20.17,30.27 47.94,55.97 78.23,74.84 60.41,37.65 133.24,51.51 203.71,47.05 72.55,-4.58 143.96,-28.16 205.02,-67.62 39.15,-25.3 75.71,-59.41 96.58,-100.88 10.57,-1.11 20.94,-2.7 30.89,-4.66 73.64,-14.53 142.38,-49.72 200.06,-97.36 127.64,-105.45 192.84,-264.83 206.23,-427.21 3.43,-41.59 3.63,-83.25 1.07,-124.9z"/>
     <path class="fil3" d="M881.19 1749.03c33.41,-10.32 67.56,-18.43 102.15,-23.59 67.13,-10.01 136.23,-8.67 202.24,7.87 18.42,4.61 36.56,10.39 54.19,17.44 8.67,3.47 17.32,7.15 25.65,11.37 6.22,3.16 12.63,7.06 16.42,12.98 -31.15,-4.51 -63.5,-3.45 -94.74,-1.45 -33.34,2.13 -66.51,6.15 -99.73,9.51 -67.78,6.85 -135.47,7.11 -203.51,5.02 -27.12,-0.83 -54.23,-1.77 -81.35,-2.68 4.36,-0.78 8.71,-1.58 13.06,-2.33 12.74,-2.2 25.47,-4.5 38.22,-6.66 25.51,-4.31 51.1,-8.18 76.7,-11.92 25.62,-3.74 51.31,-7.05 77.02,-10.18 25.56,-3.11 51.24,-5.08 77,-4.48 14.46,0.34 28.9,1.42 43.24,3.22 14.55,1.84 28.74,5.28 43.2,7.54 1.89,0.29 2.37,-2.32 0.59,-2.87 -12.27,-3.82 -25.43,-5.63 -38.13,-7.47 -12.32,-1.79 -24.72,-3.03 -37.15,-3.76 -25.67,-1.49 -51.18,-0.15 -76.77,1.95 -52.24,4.27 -104.29,11.38 -155.96,20.09 -14.35,2.42 -28.72,4.85 -42.99,7.67 -10.28,2.03 -20.72,3.84 -30.9,6.5 0.02,-0.02 0.04,-0.05 0.06,-0.07 30.32,-11.82 60.35,-24.08 91.49,-33.7zm-95.67 28.55c12.67,-42.3 20.82,-85.72 29.72,-128.92 9.04,-43.83 19.61,-87.24 31.81,-130.29 6.87,-24.22 14.14,-48.36 21.79,-72.34 0.15,-0.48 -0.68,-0.78 -0.86,-0.29 -15.37,41.77 -28.61,84.23 -39.9,127.29 -11.28,42.99 -20.32,86.47 -30.48,129.72 -5.84,24.88 -12.26,49.68 -19.9,74.07 -0.24,0.78 -0.17,1.43 0.01,2.03 -0.24,0.4 -0.48,0.81 -0.72,1.21 -2.17,-26.21 -3.58,-52.31 -2.63,-78.68 1.06,-29.11 4.48,-58.18 10.08,-86.77 11.12,-56.8 31.12,-111.63 59.4,-162.13 14.25,-25.43 30.59,-49.68 48.75,-72.48 -11.47,53.88 -13.61,109.2 -19.43,163.88 -5.99,56.22 -17.68,111.02 -42.34,162.22 -11.91,24.69 -26.37,48.05 -42.89,69.9 -0.8,0.53 -1.61,1.05 -2.41,1.58zm-28.64 120.2c74.99,-19.38 152.96,-29.31 230.34,-22.02 39.56,3.73 78.25,12.18 115.68,25.27 -34.27,8.63 -67.84,19.99 -102.17,28.49 -37.68,9.32 -75.81,16.64 -114.18,22.49 -75.79,11.56 -152.3,17.51 -228.79,22.12 -34.8,2.09 -69.82,4.95 -104.75,5.7 20.77,-4.44 41.41,-10.04 62.11,-14.54 28.09,-6.11 56.28,-11.71 84.52,-17.06 57.3,-10.85 114.95,-19.71 172.8,-26.98 32.24,-4.05 64.58,-6.82 96.87,-10.39 1.12,-0.12 1.05,-1.81 -0.09,-1.76 -29.02,1.5 -57.98,4.66 -86.87,7.71 -28.91,3.05 -57.75,6.66 -86.54,10.74 -56.78,8.03 -113.28,18.02 -169.35,30.09 -15.87,3.42 -31.7,6.97 -47.5,10.68 -13.82,3.24 -27.82,6.34 -41.4,10.59 0.04,-0.51 0.07,-1.01 0.11,-1.51 1.1,-1.01 2.2,-2.02 3.31,-3.02 70.83,-28.8 141.72,-57.43 215.9,-76.6zm-220.04 46.08c-0.08,-12.26 0.28,-24.53 1.06,-36.77 1.59,-24.89 4.95,-49.67 9.61,-74.16 9.16,-48.11 23.23,-95.05 39.57,-141.17 9.33,-26.35 19.05,-52.57 29.53,-78.48 0.1,-0.27 -0.29,-0.48 -0.41,-0.21 -20.06,45.1 -39.35,90.4 -54.16,137.53 -13.62,43.33 -23.94,87.71 -28.99,132.85 0.02,-0.24 0.03,-0.47 0.04,-0.71 2.11,-32.43 6.24,-64.78 12.21,-96.73 11.97,-64.03 31.98,-126.41 59.35,-185.52 13.96,-30.16 30.16,-58.96 47.54,-87.21 -7.79,60.33 -17.3,120.72 -29.18,180.34 -12.53,62.95 -28.3,125.42 -50.57,185.68 -10.16,27.49 -21.84,54.4 -34.89,80.63 -0.3,-5.38 -0.67,-10.77 -0.71,-16.07zm-16.52 138.64c69.82,-23.58 144.64,-33.15 218.13,-27.17 37.97,3.09 75.62,10.13 112.15,20.95 -29.47,5.8 -57.97,15.47 -86.23,25.62 -32.82,11.78 -65.56,23.37 -99.49,31.58 -68.82,16.63 -139.41,23.2 -209.51,31.94 -33.43,4.16 -66.81,8.85 -99.9,15.16 39.93,-21.94 84.15,-35.27 127.79,-47.78 48.95,-14.03 99.32,-23.23 149.58,-31.16 28.38,-4.48 57,-7.57 85.34,-12.24 0.68,-0.12 0.66,-1.17 -0.06,-1.11 -25.92,2.07 -51.84,6 -77.58,9.64 -25.29,3.57 -50.52,7.56 -75.62,12.29 -50.64,9.55 -101.65,20.87 -150.33,37.96 -22.64,7.95 -46.6,16.36 -65.61,31.48 0.29,-0.4 0.52,-0.88 0.58,-1.48 0.02,-0.22 0.03,-0.44 0.06,-0.66 1.36,-1.69 2.72,-3.4 4.07,-5.1 50.24,-38.73 106.46,-69.61 166.63,-89.92zm-165.65 -151.2c15.84,-75.09 45.69,-146.5 82.76,-213.46 19.01,-34.33 40.12,-67.29 62.05,-99.8 -12.39,73.51 -26.22,146.91 -42.76,219.59 -17.39,76.42 -38.31,152.19 -66.24,225.48 -11.89,31.21 -24.8,61.92 -39.17,91.99 0.48,-8.16 0.9,-16.32 1.55,-24.46 1.24,-15.54 2.67,-31.07 4.38,-46.57 3.46,-31.3 8,-62.46 13.75,-93.42 11.42,-61.55 27.71,-122.29 49.12,-181.12 11.94,-32.8 25.91,-64.75 40.05,-96.66 0.42,-0.94 -0.96,-1.65 -1.46,-0.72 -29.7,55.19 -51.07,115.48 -68.23,175.64 -17.25,60.46 -29.64,122.31 -38.16,184.58 -2.41,17.62 -4.51,35.3 -6.24,53 -0.65,6.6 -1.33,13.25 -1.95,19.91 -1.45,-30.31 -2.93,-60.6 -2.52,-90.98 0.56,-41.35 4.54,-82.52 13.07,-123zm660.15 -286.6c10.38,-9.27 18.28,-20.54 26.04,-32 14.44,-21.31 29.98,-41.82 47.08,-61.08 67.11,-75.56 155.61,-131.93 252.58,-160.49 9.28,-2.73 18.64,-5.13 28.04,-7.36 -19.11,19.55 -37.93,39.37 -57.56,58.44 -21.48,20.88 -43.75,40.93 -66.36,60.57 -44.4,38.57 -91.62,74.49 -143.03,103.24 -20.83,11.65 -42.44,22.15 -64.61,31.15 7.35,-4.6 14.57,-9.41 21.72,-14.28 17.47,-11.9 34.35,-24.62 50.91,-37.74 34,-26.91 66.96,-55.15 99.81,-83.44 19.81,-17.06 39.63,-34.16 59.08,-51.63 0.65,-0.58 -0.31,-1.73 -1,-1.18 -35.56,28.01 -70.48,56.92 -105.09,86.08 -32.11,27.07 -64.41,53.93 -98.63,78.32 -16.13,11.51 -32.93,21.88 -49.62,32.5 -0.41,0.15 -0.82,0.31 -1.24,0.45 0.62,-0.53 1.27,-1.01 1.88,-1.55zm-14.64 16.74c8.07,-3.64 16.15,-7.28 24.23,-10.92 14.93,-6.73 29.87,-13.46 44.54,-20.74 119.93,-59.56 218.42,-154.38 309.63,-252.41 -1.26,0.27 -2.52,0.56 -3.78,0.84 -113.18,25.75 -219.32,86.01 -294.22,174.67 -23.2,27.46 -43.47,57.56 -69.56,82.29 -60.22,57.05 -145.43,80.16 -210.05,132.17 42.79,-55.43 62.31,-125.39 72.7,-194.63 10.39,-69.24 12.61,-139.63 25.57,-208.44 -0.39,2.08 -4.81,5.7 -6.21,7.4 -2.42,2.93 -4.82,5.89 -7.17,8.88 -4.53,5.74 -8.95,11.57 -13.24,17.5 -8.58,11.85 -16.68,24.04 -24.27,36.54 -15.19,25.01 -28.38,51.24 -39.44,78.33 -22.14,54.19 -35.82,111.85 -40.17,170.23 -1.65,22.06 -0.99,44.2 0.11,66.27 0.28,5.58 0.59,11.15 0.89,16.73 0.15,2.68 0.3,5.35 0.44,8.03 0.14,2.7 0.82,5.63 0.14,8.29 -0.43,1.71 -1.42,3.22 -2.48,4.63 -4.6,6.08 -10.98,9.85 -17.16,14.09 -7.21,4.95 -14.41,9.91 -21.58,14.92 -7.17,5.02 -14.3,10.08 -21.37,15.23 -4.94,3.61 -9.86,7.26 -14.73,10.97 -12.39,9.15 -24.69,18.44 -36.87,27.86 -11.89,9.2 -23.45,20.9 -36.24,28.7 -27.25,22.11 -53.89,44.98 -79.92,68.52 26.35,-52.67 46.48,-108.25 62.14,-164.99 17.2,-62.36 29.27,-126.05 39.56,-189.87 5.85,-36.26 10.6,-72.69 16.37,-108.96 0.44,-2.71 -2.88,-3.58 -4.28,-1.49 -36.25,53.94 -64.38,114.16 -85.49,175.52 -21.43,62.32 -35.69,127.22 -41.35,192.9 -3.13,36.24 -4.31,73.25 -1.14,109.53 -1.96,0 -2.9,1.47 -2.91,3.02 -44.44,41.19 -86.92,84.48 -126.83,130.07 -14.59,16.66 -28.79,33.68 -42.67,50.95 -0.14,-0.02 -0.28,0.01 -0.39,0.15 -0.83,1 -1.65,2.01 -2.47,3.02 0.04,-0.51 0.08,-1.02 0.12,-1.54 31.57,-63.15 56.72,-129.16 76.9,-196.85 22.54,-75.6 39.5,-152.74 54.4,-230.16 8.38,-43.55 16,-87.23 24.22,-130.8 0.41,-2.2 -2.73,-4.21 -4.21,-2.14 -44.81,62.91 -84.24,130.57 -114.1,201.86 -30.36,72.5 -49,148.82 -51.99,227.49 -1.8,47.49 0.3,95.33 4.34,142.68 -0.39,0.75 -0.77,1.51 -1.15,2.26 -0.08,0.07 -0.17,0.14 -0.25,0.21 -0.36,0.32 -0.46,0.71 -0.41,1.1 -0.31,0.6 -0.6,1.2 -0.94,1.88 -17.37,21.49 -34.33,43.33 -50.61,65.64 -20.87,28.61 -39.4,59.14 -57.08,89.8 -10.12,17.55 -20.22,35.34 -28.65,53.78 -0.64,1.41 0.1,2.59 1.17,3.06 -0.31,0.59 -0.63,1.18 -0.94,1.77 -0.29,0.56 0.57,0.99 0.87,0.44 0.38,-0.68 0.78,-1.35 1.16,-2.03 0.7,-0.03 1.41,-0.36 1.88,-1.17 11.3,-19.56 22.13,-39.36 33.31,-58.95 31.05,-50.41 64.96,-99.07 101.39,-145.73 0.23,0 0.44,0.05 0.67,0 68.84,-13.84 138.82,-20.1 208.33,-29.51 34.39,-4.64 68.7,-10.09 102.57,-17.69 33.82,-7.59 66.65,-17.91 99.24,-29.64 36.73,-13.22 73.56,-27.01 112.29,-33.1 3.28,-0.52 3.67,-4.73 0.44,-5.73 -72.83,-22.44 -150.12,-30.05 -225.95,-22.17 -70.56,7.35 -139.46,28.75 -202.07,62.04 -25.21,13.41 -49.22,28.81 -71.87,46.1 4.44,-5.46 8.89,-10.89 13.41,-16.28 46.76,-55.64 97.33,-108.02 150.74,-157.3 38.81,-0.41 77.67,-3.39 116.4,-5.68 38.47,-2.28 76.92,-4.87 115.3,-8.28 76.43,-6.77 152.69,-16.87 227.5,-34.19 43.03,-9.96 84.94,-24.19 128.06,-33.76 2.64,-0.59 3.02,-4.94 0.45,-5.93 -71.53,-27.62 -149.99,-34.4 -225.99,-28.64 -78.96,5.99 -156.06,26.42 -230.4,53.04 -37.3,13.36 -74.03,28.24 -110.25,44.29 15.6,-13.96 31.38,-27.73 47.43,-41.17 26.16,-21.91 52.9,-43.14 80.12,-63.71 13.62,-10.28 27.35,-20.41 41.21,-30.38 13.75,-9.88 28.76,-18.78 41.92,-29.41 14.84,-12 32.24,-11.82 50.77,-10.8 87.08,4.79 174.53,6.52 261.42,-1.01 72.34,-6.27 145.16,-18.95 217.11,-9.14 -0.26,-12.41 -12.81,-20.51 -24.06,-25.77 -70.91,-33.15 -150.63,-45.56 -228.78,-41.16 -78.16,4.4 -154.86,25.2 -226.96,55.66 55.69,-39.79 115.18,-74.28 177.39,-102.83 4.59,-2.11 9.19,-4.18 13.8,-6.25z"/>
     <path class="fil1" d="M397.74 735.81c-18.58,-4.68 -36.89,-10.42 -54.83,-17.15 -16.28,-6.12 -31.63,-13.64 -47.14,-21.34 14.01,-35.08 16.2,-74.43 6.22,-110.89 -9.47,-34.55 -31.61,-72.76 -67.74,-84.43 -17.07,-5.52 -34.73,-2.93 -49.72,6.85 -15.75,10.29 -26.63,26.44 -35.14,42.87 -10.07,19.45 -17.61,41.15 -32.43,57.7 -8.39,9.39 -18.59,12.23 -30.71,8.91 -9.07,-2.48 -17.86,-6.59 -26.39,-10.52 -66.53,-30.68 -122.75,-82.23 -160.08,-145.17 -38.59,-65.05 -55.02,-141.47 -46.05,-216.62 1.25,-10.51 2.98,-20.95 5.17,-31.31 3.08,-14.56 7.06,-28.92 11.9,-42.99 4.84,-14.07 10.53,-27.84 17,-41.23 6.48,-13.4 13.76,-26.41 21.77,-38.95 12.19,-19.08 26.96,-34.86 41.77,-51.5 13.68,15.85 27.63,31.47 41.89,46.8 52.88,56.86 109.6,110.09 169.78,159.15 63.05,51.4 130.14,96.71 198.78,140.24 36.46,23.11 73.03,46.06 108.73,70.33 34.59,23.51 68.23,48.44 101.09,74.33 65.92,51.95 128.2,108.08 189.36,165.5 6.99,6.55 13.95,13.14 20.89,19.74 -5.24,0.09 -10.51,0.53 -15.65,0.87 -8.17,0.55 -16.32,1.34 -24.44,2.36 -16.28,2.03 -32.46,4.79 -48.59,7.82 -32.34,6.07 -64.5,13.24 -97.07,18.07 -65.88,9.75 -133.74,6.82 -198.37,-9.44zm-439.01 -704.17c13.8,-15.95 25.58,-32.75 40.3,-47.9 14.71,-15.15 30.42,-29.37 47.39,-41.96 25.92,-19.24 54.76,-34.39 85.68,-43.79 73.75,-22.4 154.4,-9.74 218.04,33.74 31.8,21.73 59.11,51.6 75.77,86.51 -17.52,-4.57 -36.16,2.1 -51.89,10.97 -10.45,5.89 -20.27,12.99 -29.55,20.57 -8.45,6.89 -16.35,14.64 -21.51,24.36 -10.78,20.27 -3.85,44.08 9.17,61.51 14.34,19.2 36.18,32.77 56.18,45.37 20.16,12.71 43.15,24.17 67.67,22.18 21.5,-1.74 38.28,-15.65 57.97,-22.7 51.84,-18.55 79.01,49.09 96.12,85.25 23.86,50.45 44.89,103.72 57.38,158.26 -19.71,-3 -38.14,16.68 -39.2,36.07 -1.47,26.79 18.88,47.26 38.48,62.38 10.76,8.31 21.83,16.14 31.99,25.21 9.3,8.31 17.92,17.44 25.91,27 16.14,19.32 29.95,40.87 40.03,63.96 10.45,23.97 17.31,49 19.98,74.92 -59.17,-58.04 -120.35,-114.16 -184.4,-166.8 -65.5,-53.85 -134.58,-102.29 -205.76,-148.3 -69.13,-44.68 -137.9,-89.58 -202.51,-140.73 -60.93,-48.23 -118.62,-100.66 -172.41,-156.75 -21.24,-22.15 -41.85,-44.89 -61.86,-68.16 0.34,-0.39 0.68,-0.77 1.03,-1.17zm522 724.24c33.01,2.62 66.28,2.13 99.2,-1.59 33.01,-3.74 65.58,-10.27 98.23,-16.35 18.31,-3.42 36.65,-6.66 55.12,-9.09 9.36,-1.23 18.76,-2.26 28.17,-3.05 9.38,-0.79 18.97,-0.49 28.29,-1.59 2.06,-0.24 3.86,-2.23 3.53,-4.37 -6.96,-45.51 -23.6,-89.57 -49.49,-127.7 -12.93,-19.05 -28.23,-36.41 -45.33,-51.81 -18.48,-16.65 -42.69,-29.69 -54.81,-52.2 -6.2,-11.54 -9.87,-26.75 -3.59,-39.04 5.76,-11.28 19.23,-18.76 31.71,-14.51 3.62,1.23 7.2,-1.91 5.92,-5.69 -16.1,-47.41 -31.99,-94.75 -52.58,-140.46 -9.84,-21.85 -20.08,-43.64 -31.64,-64.63 -9.87,-17.92 -22.02,-36.73 -40.7,-46.45 -18.23,-9.48 -37.04,-4.84 -54.62,3.54 -8.64,4.12 -17.09,8.76 -26.16,11.91 -11.46,3.99 -23.45,4.42 -35.27,1.81 -23.89,-5.29 -45.12,-20.26 -64.94,-33.89 -19,-13.06 -38.8,-28.56 -44.32,-52.17 -2.98,-12.77 -0.85,-25.66 7.04,-36.25 7.51,-10.09 18.06,-17.73 28.25,-24.91 19.66,-13.88 45.72,-28.25 69.86,-17.04 3.24,1.51 7.56,-2.17 5.86,-5.62 -34.61,-70.15 -100.63,-120.49 -176.78,-137.68 -77.46,-17.49 -158.74,3.96 -221.75,51.12 -29.21,21.86 -55.27,47.7 -79.38,75.02 -3.31,3.75 -6.62,7.51 -9.93,11.29 -27.75,-32.69 -54.3,-66.39 -79.49,-101.09 -5.69,-7.85 -11.3,-15.75 -16.86,-23.68 -3.58,-5.12 -11.4,0.64 -7.81,5.75 30.59,43.62 63.27,85.75 97.82,126.3 -18.47,21.36 -36.33,43.42 -50.67,67.66 -19.86,33.58 -34.34,70.22 -42.96,108.26 -16.92,74.64 -9.7,153.05 22.08,222.77 30.19,66.24 80.21,123.58 142.22,161.82 15.43,9.52 31.75,17.68 48.52,24.53 17.04,6.96 36.77,15.01 52.6,1.16 15.57,-13.62 23.93,-35.15 32.76,-53.32 8.89,-18.29 19.06,-36.86 35.85,-49.11 16.4,-11.97 36.64,-13.33 54.75,-4.35 17.43,8.65 31.2,24.46 40.34,41.39 19.02,35.2 24.07,77.7 15.11,116.57 -2.27,9.83 -5.54,19.36 -9.6,28.6 -1.08,2.45 0.2,5.13 2.5,6.28 15.05,7.51 31.1,13.52 46.83,19.41 15.22,5.71 30.7,10.67 46.38,14.95 32.58,8.89 66.07,14.83 99.74,17.5z"/>
     <path class="fil1" d="M473.75 390.74c-7.89,-3.05 -16.69,-7.64 -20.29,-15.78 -4.39,-9.93 2.1,-20.55 10.33,-26.05 8.85,-5.94 20.09,-7.65 30.49,-8.62 26.01,-2.41 52.29,2.4 75.66,14.09 0.03,0.01 0.05,-0.01 0.08,0 1.94,1.75 3.68,3.79 5.04,6.3 5.5,10.17 1,20.8 -8.06,27.1 -8.46,5.88 -19.43,8.17 -29.46,9.64 -10.76,1.57 -21.71,1.94 -32.53,0.8 -10.69,-1.12 -21.23,-3.58 -31.26,-7.48zm27.2 15.99c13.65,1.8 27.62,1.54 41.11,-1.21 11.57,-2.34 23.95,-5.76 32.86,-13.92 8.8,-8.06 13.81,-22.07 6.82,-32.92 -6.46,-10.04 -19.4,-13.34 -30.85,-15.04 -18.81,-7 -38.94,-10.19 -59.09,-8.8 -12.2,0.85 -25.63,3 -35.45,10.92 -8.36,6.73 -13.8,17.63 -11.39,28.43 5.06,22.66 36.66,29.99 55.99,32.54z"/>
     <path class="fil1" d="M2847.1 1545.18c31.03,7.14 62.09,14.13 93.13,21.2 31.05,7.07 62.09,14.13 93.13,21.19 28.57,6.51 57.5,14.71 86.87,16.34 7.86,0.44 15.82,0.28 23.68,-0.55 -0.38,0.14 -0.75,0.32 -1.14,0.47 -9.36,3.42 -18.99,6.12 -28.74,8.14 -19.85,4.1 -40.17,5.53 -60.41,5.3 -41.37,-0.47 -83.41,-6.95 -123.62,-16.43 -23.61,-5.56 -46.87,-12.53 -69.24,-21.97 -0.5,-0.21 -0.86,0.54 -0.35,0.77 39.15,18.01 80.96,28.06 123.38,34.79 41.66,6.6 84.57,11.62 126.54,4.9 10.74,-1.72 21.39,-4.18 31.75,-7.49 0.84,-0.27 1.69,-0.54 2.54,-0.82 -38.04,20.13 -81.93,29.17 -124.67,33.46 -31.51,3.17 -63.63,3.73 -94.75,-2.92 -33.16,-7.08 -63.52,-22.89 -91.34,-41.89 -28.63,-19.56 -57.03,-43.23 -72.85,-74.68 28.52,7.39 57.39,13.58 86.09,20.19zm295.76 89.6c-1.28,1.21 -2.52,2.45 -3.87,3.61 -8.23,7.06 -17.01,13.47 -25.9,19.68 -17.79,12.41 -35.76,24.56 -54.02,36.27 -37.1,23.77 -75.18,46.11 -114.09,66.79 -21.72,11.56 -43.7,22.65 -66.02,33.02 -0.37,0.17 -0.15,0.78 0.24,0.6 81.37,-35.93 159.99,-78.27 232.86,-129.44 5.35,-3.76 10.67,-7.56 15.88,-11.51 -34.25,33.68 -73.6,62.45 -113.54,88.87 -57.32,37.91 -118.52,71.1 -184.28,91.77 -32.75,10.29 -66.39,17.18 -100.59,19.55 58.8,-35.99 117.09,-72.76 178.18,-104.81 31.96,-16.76 64.57,-32.16 97.88,-46.02 33.14,-13.8 66.73,-26.77 98.36,-43.89 13.47,-7.28 26.56,-15.41 38.91,-24.49zm30.98 -146.61c-55.61,3.13 -112.63,2.36 -167.36,-8.96 -25.44,-5.26 -50.35,-12.91 -74.17,-23.22 21.31,-0.21 42.63,-4.55 63.67,-7.27 27.36,-3.54 54.82,-6.41 82.35,-8.33 54.55,-3.81 109.45,-3.97 163.86,1.84 23.17,2.47 46.19,6.17 68.99,10.94 -4.3,0.39 -8.57,0.88 -12.67,1.11 -10.69,0.59 -21.4,1.13 -32.1,1.62 -20.74,0.95 -41.48,1.71 -62.23,2.28 -42.11,1.14 -84.27,2.25 -126.4,2.31 -0.63,0 -0.52,0.95 0.1,0.97 42.28,1.39 84.48,2.28 126.78,1.6 20.77,-0.33 41.54,-0.86 62.3,-1.57 10.71,-0.37 21.42,-0.79 32.14,-1.27 6.89,-0.3 14.35,0 21.49,-0.69 -46.64,18.19 -96.91,25.83 -146.75,28.64zm171.18 -146.4c-50.25,9.48 -101.83,11.9 -152.75,7.19 -24.77,-2.29 -49.79,-5.81 -73.93,-12.12 20.1,-6.61 40.09,-13.42 60.54,-19.03 24.09,-6.61 48.48,-12.08 73.08,-16.44 48.45,-8.58 97.67,-12.84 146.87,-12.69 22.05,0.07 44.07,1.17 66.03,3.04 -1.02,0.4 -2.04,0.83 -3.09,1.17 -7.91,2.54 -16.01,4.45 -24.1,6.28 -16,3.62 -32.14,6.78 -48.36,9.21 -32.16,4.83 -64.7,7.4 -97.14,9.44 -18.6,1.18 -37.21,2.3 -55.82,3.33 -0.34,0.02 -0.28,0.52 0.05,0.52 67.15,-0.44 135.03,-1.32 201.06,-15 7.08,-1.47 14.15,-3.08 21.15,-4.94 -34.65,20.5 -74.06,32.59 -113.59,40.04zm138.4 11.65c0.83,-10.28 1.52,-20.57 2.09,-30.86 0.11,-2.1 0.26,-4.22 0.4,-6.34 9.5,45.4 12.85,91.71 8.68,138.18 -5.03,55.96 -20.09,110.99 -44.59,161.57 -12.14,25.03 -26.64,48.58 -43.17,70.86 9.43,-49.67 9.28,-100.48 13.68,-150.75 4.9,-56.02 18.83,-110.06 37.85,-162.88 6.59,-18.31 13.7,-36.43 21.01,-54.46 -0.29,9.36 -0.7,18.73 -1.23,28.08 -1.05,18.76 -2.56,37.49 -4.51,56.18 -3.91,37.33 -9.62,74.49 -17,111.3 -4.17,20.84 -8.75,41.6 -13.9,62.21 -0.03,0.12 0.16,0.15 0.19,0.04 21.07,-72.78 34.39,-147.62 40.5,-223.13zm-198.01 288.11c13.42,-35.9 24.78,-72.58 34.99,-109.51 2.91,-10.51 5.75,-21.03 8.56,-31.57 1.76,-6.57 3.54,-13.12 5,-19.75 1.43,48.21 -3.57,96.23 -16.71,142.9 -15.48,54.93 -41.16,107.1 -75.49,152.7 -16.53,21.94 -35.05,42.3 -55.38,60.74 20.65,-43.38 32.64,-90.33 45.03,-136.6 6.98,-26.06 14.06,-52.14 22.91,-77.64 9.39,-27.08 21.54,-52.87 35.42,-77.92 11.3,-20.41 23.11,-40.54 35.34,-60.4 -3.37,11.94 -5.91,24.21 -8.99,36.1 -4.89,18.9 -9.89,37.79 -15.22,56.57 -10.66,37.58 -22.71,74.81 -37.62,110.92 -8.25,20 -16.97,39.97 -27.14,59.07 -0.02,0.04 0.03,0.06 0.05,0.02 19.31,-33.98 35.56,-69.02 49.25,-105.63zm-105.41 -24.1c0.57,-2.8 0.97,-5.6 1.27,-8.39 0.56,-1.27 1.2,-2.51 1.74,-3.8 -0.96,4.07 -1.97,8.13 -3.01,12.19zm-35.51 82.82c8.92,-14.68 16.75,-30.09 23.25,-45.98 2.92,-7.11 5.91,-14.68 8.39,-22.4 -21.48,76.66 -58.06,150.52 -122.29,199.89 -15.9,12.22 -32.73,21.99 -50.71,30.04 28.61,-29.84 52.11,-64.14 75.06,-98.45 13.29,-19.87 26.47,-39.83 40.54,-59.15 12.85,-17.62 26.4,-34.73 38.62,-52.8 4.54,-6.72 8.83,-13.58 12.85,-20.57 -2.27,7.43 -4.82,14.79 -7.68,22.01 -6.1,15.45 -13.56,30.28 -21.74,44.72 -17.06,30.11 -37.51,58.09 -58.97,85.19 -0.26,0.32 0.23,0.73 0.5,0.41 22.54,-26.21 44.21,-53.32 62.18,-82.91zm-393.07 -179.22c15.94,30.4 40.34,54.21 67.97,74.12 27.45,19.79 57.48,37.2 90.06,46.9 31.26,9.3 64.28,10.5 96.63,8.26 31.9,-2.19 63.93,-6.97 94.63,-16.04 23.23,-6.86 45.83,-16.19 66.12,-29.22 -42.83,42.28 -101.59,65.39 -156.64,88.21 -66.19,27.44 -129.29,60.88 -190.81,97.52 -35,20.85 -69.62,42.4 -103.85,64.47 -2.72,1.76 -0.79,5.82 2.14,5.65 69.01,-4.29 135.65,-24.87 197.63,-54.96 31.25,-15.16 61.4,-32.57 90.61,-51.35 32.17,-20.69 63.65,-42.76 93.03,-67.28 28.46,-23.74 54.87,-50.14 76.95,-79.91 -14.86,32.76 -38.39,61.1 -59.73,89.88 -27.17,36.69 -50.99,75.72 -78.34,112.28 -15.85,21.18 -32.94,41.49 -52.26,59.6 -2.8,2.63 -0.72,7.87 3.42,6.3 43.19,-16.31 81.85,-46.77 111.67,-81.58 31.04,-36.23 53.37,-79.15 68.71,-124.17 8.67,-25.48 14.78,-51.58 19.14,-78.13 0.02,-0.13 0,-0.23 -0.01,-0.34 1.33,-1.69 2.63,-3.42 3.9,-5.17 2.79,-2 5.47,-4.18 8.03,-6.57 0.86,-0.82 1.23,-1.8 1.24,-2.77 43.21,-35.38 85.31,-72.43 125.75,-110.79 1.64,-1.55 3.25,-3.13 4.89,-4.69 0.11,-0.05 0.23,-0.11 0.35,-0.15 -30.05,46.88 -59.34,95.54 -78.55,147.87 -18.45,50.23 -29.55,102.62 -45.35,153.66 -9.09,29.32 -19.94,58.07 -34.31,85.24 -1.35,2.53 2.14,5.49 4.37,3.6 44.27,-37.45 80.86,-83.37 108.02,-134.58 27.26,-51.39 45.02,-107.96 51.66,-165.77 3.21,-27.91 3.88,-56.16 1.2,-84.15 -0.18,-1.84 -0.56,-3.72 -0.53,-5.57 0,-0.37 0.07,-0.73 0.17,-1.1 0.32,-1.13 0.56,-2.29 0.93,-3.42 0.83,-2.57 2.18,-4.98 3.92,-7.06 0.93,-1.1 1.99,-2.02 3.06,-2.96 1.17,-1.03 2.24,-2.18 3.35,-3.26 2.23,-2.18 4.45,-4.37 6.67,-6.56 4.44,-4.38 8.85,-8.78 13.24,-13.21 4.39,-4.42 8.76,-8.87 13.1,-13.35 4.33,-4.48 8.65,-8.98 12.93,-13.5 4.28,-4.53 8.54,-9.09 12.76,-13.68 4.22,-4.58 8.42,-9.19 12.57,-13.84 4.15,-4.64 8.27,-9.32 12.36,-14.03 4.08,-4.71 8.13,-9.44 12.14,-14.22 4,-4.77 7.98,-9.58 11.9,-14.42 2.92,-3.61 5.83,-7.23 8.7,-10.88 4.31,-5.47 8.52,-11.02 12.72,-16.58 -0.04,1.1 -0.07,2.21 -0.09,3.31 -18.7,45.41 -36.2,91.41 -48.46,139.02 -6.99,27.14 -12.13,54.69 -15.01,82.59 -2.83,27.25 -3.93,54.63 -5.68,81.97 -1.97,30.89 -4.82,61.77 -11.86,91.97 -0.67,2.87 3.35,4.53 5.1,2.33 35.38,-44.44 61.56,-96.33 78.02,-150.6 16.66,-54.93 23.35,-113.07 19.06,-170.33 -2.01,-26.98 -6.32,-53.93 -13.51,-80.04 2.2,-5.3 4.4,-10.61 6.62,-15.9 0.43,-1.03 0.17,-2.13 -0.44,-2.96 2.61,-3.6 5.27,-7.16 7.82,-10.81 10.96,-15.61 21.79,-31.56 30.29,-48.67 1.25,-2.49 -2.45,-4.86 -4.16,-2.6 -16.15,21.35 -30.92,43.66 -46.72,65.27 -0.68,0.17 -1.29,0.64 -1.6,1.31 -98.03,-9.95 -197.6,-2.12 -292.93,22.76 -27.15,7.09 -54.59,15 -80.43,26.02 -3.04,1.3 -2.64,5.74 0.63,6.41 25.63,5.26 51.14,10.52 77.18,13.33 25.65,2.77 51.51,3.76 77.29,2.98 52.13,-1.57 105.43,-9.7 154.46,-27.94 17.1,-6.35 33.67,-14.18 49.22,-23.67 -19.95,25.22 -40.97,49.62 -62.74,73.28 -22.59,24.56 -46.09,48.23 -70.07,71.41 -105.76,-25.03 -215.87,-22.95 -323.16,-9.81 -15.29,1.88 -30.55,4.08 -45.8,6.24 -15.51,2.2 -31.21,4.02 -46.86,2.35 -3.69,-0.39 -5.52,4.65 -1.97,6.35 51.32,24.58 108.18,35.51 164.67,39.07 56.91,3.59 115.46,1.92 171.63,-8.37 20.7,-3.79 41.04,-9.05 60.8,-16.03 -18.64,17.64 -37.51,35.06 -56.42,52.41 -18.55,17.03 -37.37,33.76 -56.02,50.68 -0.78,-0.09 -1.63,0.12 -2.43,0.87 -2.15,2.01 -4.36,3.82 -6.61,5.52 -0.23,0.15 -0.45,0.25 -0.66,0.45 -0.16,0.15 -0.33,0.28 -0.49,0.43 -42.47,30.93 -103,10.81 -149.49,0.22 -60.06,-13.69 -120.12,-27.38 -180.18,-41.07 -34.37,-7.83 -68.74,-16.25 -103.38,-22.78 -2.41,-0.45 -5.15,2.3 -3.88,4.73z"/>
     <path class="fil3" d="M671.84 1148.69c-58.56,41.76 -117.28,83.12 -174.66,126.51 -10.18,-37.51 1.68,-74.29 10.29,-110.95 17.99,-3.15 36.04,-5.93 54.16,-8.32 36.81,-4.85 73.88,-7.83 110.97,-9.45 -0.24,0.74 -0.51,1.47 -0.76,2.21zm-97.73 204.53c-13.76,21.55 -28.33,42.53 -43.47,63.11 -5.83,0.13 -11.62,0.77 -17.51,0.41 -7.3,-0.44 -14.54,-1.56 -21.72,-2.86 -13.06,-2.37 -26,-5.35 -38.79,-8.88 -25.96,-7.17 -51.19,-16.72 -75.47,-28.38 31.73,-25.77 63.75,-51.17 96.09,-76.16 59.53,-46 119.92,-90.9 181.15,-134.63 5.02,-3.59 10.11,-7.07 15.21,-10.54 -23.22,69.82 -55.88,135.93 -95.49,197.93zm-62.08 87.86c-29.32,3.17 -59.33,-3.7 -87.74,-10.62 -13.64,-3.32 -27.16,-7.25 -40.34,-12.07 -12.87,-4.71 -25.05,-10.75 -37.31,-16.79 8.87,-7.32 17.78,-14.6 26.7,-21.86 0.18,0.19 0.38,0.37 0.67,0.51 25.17,12.21 51.39,22.18 78.36,29.62 13.7,3.77 27.58,6.96 41.59,9.36 9.94,1.69 21.84,3.84 32.52,2.73 -4.77,6.41 -9.57,12.79 -14.45,19.12zm-82.56 98.53c-7.37,8.17 -14.8,16.27 -22.29,24.32 -7.03,7.55 -14.99,19.68 -25.9,21.06 -6.13,0.78 -12.62,-0.34 -18.74,-0.88 -6.38,-0.57 -12.76,-1.19 -19.13,-1.87 -13.42,-1.43 -26.77,-3.31 -40.15,-5.02 -2.99,-0.38 -6.51,2.76 -4.34,5.83 13.78,19.51 31.54,48.36 16.89,72.05 -7.47,12.08 -20.64,21.49 -31.75,30.03 -12.14,9.33 -24.92,17.82 -38.15,25.53 -25.78,15.01 -53.24,26.98 -81.52,36.44 -28.83,9.64 -59.51,18.49 -89.91,21.08 -26.62,2.27 -58.17,-2.56 -75.88,-23.97 -0.03,-0.49 -0.16,-0.98 -0.54,-1.44 -1.3,-1.56 -2.56,-3.15 -3.83,-4.73 -0.59,-0.96 -1.22,-1.89 -1.76,-2.9 -0.31,-0.57 -0.76,-0.87 -1.24,-0.95 -0.19,-0.26 -0.37,-0.53 -0.57,-0.79 43.19,-50.41 90.48,-97.02 139.05,-142.22 54.73,-50.93 110.85,-100.38 167.92,-148.68 15.35,-12.98 30.79,-25.87 46.29,-38.67 23.48,16.08 52.84,24.59 80.22,31.01 14.7,3.44 29.56,6.37 44.44,8.93 12.79,2.19 26.39,4.2 39.44,2.54 -24.98,32.09 -51.33,63.12 -78.55,93.3zm-490.93 -14.73c8.29,-37.34 26.39,-70.84 51.92,-99.21 19.81,-22.02 42.67,-41.42 66.54,-59.18 -3.36,12.88 -4.75,26.44 -5.49,39.57 -0.96,17.29 -0.38,34.64 0.95,51.89 2.83,36.44 7.57,73.05 15.21,108.8 4.18,19.52 9.05,39.49 17.21,57.81 -29.91,28.5 -59.08,57.76 -86.71,88.48 -4.12,4.59 -8.18,9.26 -12.23,13.92 -41.82,-57.93 -63.15,-131.23 -47.4,-202.08zm142.64 -175.66c5.43,-3.75 10.92,-7.4 16.44,-11 -2.41,12.96 -2.95,26.18 -3.04,39.38 -0.11,17.97 0.55,35.97 1.5,53.92 1.84,34.85 4.38,70.22 11.28,104.48 3.61,17.92 8.89,35.41 16.73,51.93 -11.73,10.79 -23.42,21.62 -34.99,32.59 -4.78,-15.78 -10.03,-31.38 -14.03,-47.41 -4.45,-17.8 -7.93,-35.81 -10.68,-53.95 -5.2,-34.29 -9.28,-69.22 -8.27,-103.96 0.52,-17.92 3.29,-35.23 6.44,-52.75 6.17,-4.5 12.38,-8.93 18.62,-13.23zm117.3 -66.5c10.84,16.55 24.32,31.07 39.73,43.49 2.24,1.8 5.31,0.57 5.49,-2.36 1.06,-17.61 1.81,-35.24 2.32,-52.88 0.22,-7.5 -0.4,-15.48 1.42,-22.82 1.98,-7.95 8.1,-12.68 15.22,-16 15.25,-7.13 31.82,-12.16 47.73,-17.56 16.29,-5.54 32.69,-10.75 49.18,-15.65 40.97,-12.18 82.52,-22.31 124.47,-30.41 -4.89,6.2 -7.39,13.47 -9.16,21.45 -2.73,12.27 -4.73,24.72 -6.3,37.17 -1.51,11.92 -2.66,23.93 -3.12,35.95 -0.41,11.12 0.02,22.79 4.11,33.27 -52.19,40.16 -103.56,81.39 -154.1,123.59 -58,48.43 -114.78,98.24 -170.7,149.04 -5.6,5.09 -11.16,10.22 -16.74,15.33 -14.03,-29.66 -19.17,-62.39 -22.66,-94.78 -3.69,-34.25 -5.8,-68.66 -6.32,-103.1 -0.26,-17.01 -0.61,-34.02 2.52,-50.77 30.99,-19.95 63.35,-37.68 96.91,-52.96zm290.68 -115.15c5.1,-0.96 10.2,-1.88 15.31,-2.78 -13.29,35.78 -22.8,76.32 -11.77,113.79 -0.36,0.27 -0.73,0.54 -1.09,0.82 -5.94,4.51 -11.81,9.1 -17.73,13.65 -4.4,-21.65 -2.53,-43.74 0.1,-65.58 1.29,-10.77 2.98,-21.48 5.05,-32.12 1.85,-9.5 4.1,-19.92 10.13,-27.78zm188.22 -28.22c-71.28,3.86 -142.36,13.2 -212.2,27.98 -34.97,7.4 -69.7,16.06 -104.01,26.11 -17.48,5.13 -34.85,10.6 -52.11,16.43 -15.89,5.37 -32.18,10.46 -47.59,17.1 -6.69,2.89 -13.2,6.85 -16.88,13.36 -3.55,6.27 -4.25,13.59 -4.75,20.64 -1.32,18.8 -1.99,37.65 -2.43,56.5 -13.96,-11.32 -25.61,-25.15 -34.94,-40.52 -1,-1.65 -2.83,-1.87 -4.47,-1.16 -39.06,16.79 -76.76,37.05 -112.01,60.84 -33.84,22.83 -67.1,48.21 -95.09,78.06 -26.41,28.18 -46.27,61.21 -56.16,98.7 -9.68,36.65 -10.3,75.43 -2.24,112.44 8.39,38.52 25.84,74.24 49.77,105.31 -38.84,45.17 -73.98,93.81 -101.95,146.44 -3.89,7.31 -7.62,14.69 -11.23,22.14 -2.42,4.99 5.15,9.26 7.56,4.23 28.93,-60.39 67.35,-115.59 110.59,-166.55 2.43,2.98 4.89,5.92 7.43,8.81 0.2,0.21 0.4,0.33 0.61,0.45 14.46,18.52 37.93,28.63 61.39,29.82 16.5,0.83 32.99,-1.72 49.09,-5.15 16.32,-3.48 32.5,-7.71 48.45,-12.65 31.17,-9.65 61.56,-22.17 90.01,-38.2 14.15,-7.96 27.8,-16.81 40.76,-26.6 11.79,-8.89 25.04,-18.4 33.87,-30.39 17.96,-24.4 4.92,-53.87 -8.89,-77.36 20.15,2.93 40.53,5.04 60.8,6.55 10.8,0.8 19.42,-0.8 27.46,-8.41 7.11,-6.71 13.56,-14.27 20.19,-21.44 27.53,-29.82 54.24,-60.4 79.7,-92.03 50.47,-62.7 96.28,-129.57 132.37,-201.65 20.2,-40.35 37.41,-82.28 50.3,-125.54 0.63,-2.09 -1.26,-4.38 -3.4,-4.26z"/>
    </g>
   </g>
  </g>
  <path class="fil4" d="M-0.5 0.33l3125 0 0 2083.34 -3125 0 0 -2083.34z"/>
 </g>
</svg>
