<?xml version="1.0" encoding="UTF-8"?>
<!DOCTYPE svg PUBLIC "-//W3C//DTD SVG 1.0//EN" "http://www.w3.org/TR/2001/REC-SVG-20010904/DTD/svg10.dtd">
<!-- Creator: CorelDRAW 2020 (64-Bit) -->
<svg xmlns="http://www.w3.org/2000/svg" xml:space="preserve" width="3543px" height="2362px" version="1.0" style="shape-rendering:geometricPrecision; text-rendering:geometricPrecision; image-rendering:optimizeQuality; fill-rule:evenodd; clip-rule:evenodd"
viewBox="0 0 3543 2362"
 xmlns:xlink="http://www.w3.org/1999/xlink"
 xmlns:xodm="http://www.corel.com/coreldraw/odm/2003">
 <defs>
  <style type="text/css">
   <![CDATA[
    .fil6 {fill:none}
    .fil0 {fill:#FBF7EF}
    .fil1 {fill:#FBF7EF;fill-rule:nonzero}
    .fil2 {fill:#E7D4B0;fill-rule:nonzero}
    .fil3 {fill:#E6D2CB;fill-rule:nonzero}
    .fil4 {fill:#C98D78;fill-rule:nonzero}
    .fil5 {fill:#905040;fill-rule:nonzero}
   ]]>
  </style>
   <clipPath id="id0">
    <path d="M-0.35 0.9l3543 0 0 2362 -3543 0 0 -2362z"/>
   </clipPath>
 </defs>
 <g id="Layer_x0020_1">
  <metadata id="CorelCorpID_0Corel-Layer"/>
  <g>
  </g>
  <g style="clip-path:url(#id0)">
   <g>
    <g id="_2112725226800">
     <rect class="fil0" x="-0.35" y="0.9" width="3543" height="2362"/>
     <g>
      <path class="fil1" d="M187.23 2333.78l3444.32 0 0 -2296.22 -3444.32 0 0 2296.22z"/>
      <path class="fil2" d="M-140.93 2135.38c170.19,-267.51 510.05,-410.46 798.74,-369.04 341.85,49.06 354.17,319.65 733.01,404.43 388,86.83 611.34,-144.11 763.35,-10.11 145.51,128.27 111.3,490.17 -45.49,717.85 -438.85,637.21 -2050.03,531 -2330.49,-80.88 -99.26,-216.56 -28.81,-489.83 80.88,-662.25z"/>
      <path class="fil3" d="M1658.76 -569.2c170.19,-267.51 510.04,-410.46 798.73,-369.03 341.84,49.06 354.18,319.64 733.02,404.42 387.99,86.83 611.34,-144.11 763.35,-10.11 145.5,128.27 111.3,490.18 -45.5,717.85 -438.85,637.22 -2050.02,531 -2330.49,-80.88 -99.26,-216.56 -28.8,-489.83 80.89,-662.25z"/>
      <path class="fil4" d="M2887.19 2666.19c-118.2,-155.31 -234.14,-434.66 -126.39,-591.47 136.3,-198.35 522.56,-43.59 631.92,-232.54 98.13,-169.56 -167.96,-371.84 -85.94,-611.69 70.74,-206.88 375.43,-368.55 581.36,-308.38 479.95,140.24 813.77,1599.67 242.65,2001.9 -331.48,233.45 -964.7,108.62 -1243.6,-257.82z"/>
      <path class="fil4" d="M-216.75 1574.24c277.42,4.6 533.45,-375.48 591.46,-697.62 58.07,-322.45 -113.3,-414.36 -45.49,-733.02 83.85,-394.09 395.19,-484.86 348.81,-662.24 -61.09,-233.64 -689.5,-413.94 -1107.11,-181.99 -520.22,288.94 -537.89,1120.18 -353.87,1627.8 29.9,82.47 232.59,641.55 566.2,647.07z"/>
      <path class="fil2" d="M862.1 192.15c13.99,2.1 28.34,-0.99 41.45,-6.32 26.24,-10.66 49.28,-31.57 57.6,-58.65 3.45,-11.23 4.25,-23.63 0.08,-34.63 -7.12,-18.77 -27.49,-29.39 -46.75,-30.28 -17.01,-0.79 -36.54,3.2 -52.34,9.55 -12.14,4.88 -22.89,12.67 -29.66,24.05 -7.81,13.12 -9.89,28.87 -10.15,43.87 -0.2,11.48 0.66,23.2 7.24,33.01 5.89,8.78 15.26,14.81 25.28,17.79 2.38,0.71 4.8,1.25 7.25,1.61z"/>
      <path class="fil2" d="M620.7 128.32c0.33,7.94 4.3,15.23 9.66,21.48 10.74,12.51 28.19,21.61 48.04,21.72 8.24,0.04 16.95,-1.54 24.04,-5.6 12.12,-6.92 16.89,-19.71 15.06,-30.31 -1.62,-9.37 -6.88,-19.32 -13.3,-26.86 -4.94,-5.8 -11.71,-10.37 -20.47,-12.19 -10.09,-2.11 -21.29,-0.67 -31.74,1.63 -7.98,1.77 -16,4.13 -21.98,9.31 -5.33,4.63 -8.33,10.69 -9.12,16.62 -0.19,1.41 -0.25,2.81 -0.19,4.2z"/>
      <path class="fil2" d="M1203.55 453.2c7.94,-0.07 15.36,-3.8 21.79,-8.95 12.86,-10.32 22.54,-27.45 23.31,-47.28 0.32,-8.23 -0.97,-16.99 -4.78,-24.22 -6.52,-12.34 -19.14,-17.54 -29.8,-16.06 -9.41,1.3 -19.54,6.23 -27.29,12.39 -5.96,4.74 -10.75,11.36 -12.87,20.05 -2.43,10.02 -1.37,21.26 0.58,31.77 1.49,8.05 3.59,16.14 8.56,22.28 4.44,5.5 10.41,8.69 16.31,9.68 1.4,0.23 2.8,0.35 4.19,0.34z"/>
      <path class="fil2" d="M1061.43 257.04c6.55,8.39 16.95,13.07 27.44,14.82 17.65,2.94 36.45,-1.89 50.49,-12.96 13.76,-10.87 22.76,-27.57 24.28,-45.04 0.87,-10.06 -1.39,-19.11 -8.81,-26.26 -6.17,-5.95 -14.78,-9.99 -22.74,-13 -12.16,-4.6 -25.55,-5.91 -37.69,-0.52 -12.94,5.75 -22.28,17.38 -29.44,29.21 -8.8,14.56 -15.12,32.06 -6.88,48.45 0.95,1.87 2.06,3.65 3.35,5.3z"/>
      <path class="fil2" d="M1252.1 47.83c-8.96,2.77 -16.37,9.33 -21.78,16.98 -5.81,8.21 -9.53,17.83 -10.93,27.78 -1.02,7.29 -0.8,14.75 0.75,21.94 3.72,17.24 18.42,41.34 37.89,43.71 10.74,1.31 19.17,-6.67 24.5,-15.08 7.16,-11.28 10.77,-24.9 12.17,-38.08 1.38,-13.09 0.72,-27.28 -4.74,-39.46 -5.11,-11.38 -14.81,-19.09 -27.57,-19.25 -3.48,-0.04 -6.96,0.42 -10.29,1.46z"/>
      <path class="fil2" d="M1388.62 215.43c-4.91,-7.69 -12.08,-12.2 -19.4,-14.26 -7.84,-2.21 -16.05,-1.72 -23.73,1.2 -5.62,2.15 -10.98,5.6 -15.7,10.27 -11.33,11.18 -24.1,36.25 -19.51,56.63 2.53,11.23 11.05,16.15 18.9,17.8 10.52,2.21 21.58,-0.11 31.61,-4.45 9.97,-4.31 20.08,-11.13 27.16,-21.84 6.62,-10.01 9.08,-23.01 5.07,-35.75 -1.1,-3.48 -2.57,-6.73 -4.4,-9.6z"/>
      <path class="fil2" d="M1077.26 57c-5.62,0.53 -9.89,3.02 -12.75,6.22 -3.06,3.42 -4.63,7.73 -4.64,12.4 -0.01,3.42 0.8,7.04 2.48,10.65 4,8.65 15.83,21.61 28.82,24.52 7.16,1.6 11.97,-1.48 14.7,-5.05 3.67,-4.79 4.81,-11.03 4.53,-17.27 -0.29,-6.18 -2.01,-13.09 -6.7,-19.45 -4.37,-5.96 -11.44,-10.56 -19.82,-11.79 -2.29,-0.34 -4.53,-0.43 -6.62,-0.23z"/>
      <path class="fil2" d="M1036.87 411.96c-5.62,0.52 -9.89,3.01 -12.74,6.21 -3.07,3.43 -4.63,7.74 -4.64,12.41 -0.02,3.42 0.8,7.03 2.48,10.65 3.99,8.65 15.83,21.61 28.82,24.51 7.15,1.61 11.96,-1.47 14.7,-5.04 3.67,-4.8 4.81,-11.04 4.52,-17.27 -0.28,-6.19 -2,-13.09 -6.68,-19.46 -4.39,-5.95 -11.45,-10.55 -19.84,-11.78 -2.28,-0.34 -4.53,-0.43 -6.62,-0.23z"/>
      <path class="fil2" d="M690.42 263.17c-5.62,0.53 -9.89,3.02 -12.75,6.22 -3.06,3.43 -4.62,7.73 -4.64,12.4 -0.01,3.43 0.8,7.04 2.48,10.65 4,8.65 15.83,21.61 28.82,24.52 7.16,1.6 11.97,-1.48 14.71,-5.05 3.67,-4.79 4.8,-11.03 4.52,-17.26 -0.29,-6.19 -2,-13.1 -6.69,-19.46 -4.38,-5.95 -11.45,-10.55 -19.83,-11.79 -2.29,-0.34 -4.53,-0.42 -6.62,-0.23z"/>
      <path class="fil2" d="M905.86 311.38c-4.31,-6.68 -10.85,-10.76 -17.63,-12.79 -7.26,-2.17 -14.95,-2.09 -22.26,0.07 -5.35,1.59 -10.49,4.29 -15.1,8.03 -11.02,8.97 -23.92,29.6 -20.4,46.96 1.95,9.56 9.74,14.04 17.02,15.74 9.77,2.29 20.22,0.77 29.78,-2.49 9.49,-3.24 19.21,-8.58 26.25,-17.33 6.57,-8.17 9.37,-19.03 6.09,-29.93 -0.89,-2.97 -2.14,-5.78 -3.75,-8.26z"/>
      <path class="fil4" d="M2755.33 175.06c6.31,-12.67 7.79,-27.27 6.77,-41.38 -2.06,-28.25 -14.86,-56.61 -38.05,-72.87 -9.63,-6.75 -21.18,-11.33 -32.92,-10.75 -20.06,0.99 -36.43,17.09 -43.22,35.14 -6,15.94 -8.22,35.75 -7.04,52.73 0.9,13.06 5,25.7 13.73,35.64 10.08,11.46 24.43,18.3 38.62,23.17 10.86,3.73 22.26,6.53 33.63,3.28 10.16,-2.89 18.79,-9.94 24.72,-18.56 1.4,-2.04 2.66,-4.18 3.76,-6.4z"/>
      <path class="fil4" d="M2620.21 385.04c7.65,2.13 15.82,0.6 23.41,-2.58 15.21,-6.36 29.25,-20.15 35.47,-39 2.58,-7.83 3.75,-16.59 2.09,-24.59 -2.86,-13.67 -13.56,-22.15 -24.2,-23.68 -9.42,-1.34 -20.5,0.6 -29.66,4.38 -7.03,2.91 -13.47,7.94 -17.9,15.71 -5.11,8.96 -7.2,20.06 -8.22,30.7 -0.79,8.15 -1.01,16.51 2.08,23.78 2.75,6.5 7.6,11.22 13,13.8 1.27,0.62 2.59,1.11 3.93,1.48z"/>
      <path class="fil4" d="M2537.66 289.36c3.59,-7.48 4.63,-16.01 4.34,-24.21 -0.61,-16.41 -6.95,-32.69 -19.05,-41.75 -5.01,-3.76 -11.1,-6.22 -17.39,-5.68 -10.72,0.93 -19.74,10.58 -23.68,21.21 -3.48,9.38 -5.01,20.95 -4.68,30.81 0.25,7.59 2.22,14.87 6.71,20.51 5.18,6.5 12.72,10.22 20.21,12.81 5.74,1.98 11.77,3.41 17.9,1.33 5.48,-1.87 10.2,-6.12 13.52,-11.24 0.79,-1.22 1.49,-2.48 2.12,-3.79z"/>
      <path class="fil4" d="M2502.05 79.43c8.72,-3.18 15.44,-9.85 20.02,-17.43 4.91,-8.13 7.55,-17.47 7.81,-26.98 0.19,-6.96 -0.89,-14.01 -3.29,-20.73 -5.75,-16.1 -23.37,-38.02 -43.31,-39.06 -10.97,-0.58 -18.56,7.48 -22.98,15.78 -5.92,11.13 -7.99,24.25 -7.87,36.82 0.12,12.48 2.43,25.88 9.35,37.08 6.46,10.46 17.16,17.16 30.05,16.53 3.52,-0.17 6.98,-0.83 10.22,-2.01z"/>
      <path class="fil4" d="M3018.3 76.53c-1.24,5.52 -0.18,10.34 1.98,14.04 2.32,3.97 5.93,6.79 10.37,8.25 3.25,1.06 6.95,1.4 10.9,0.92 9.46,-1.14 25.43,-8.41 32.21,-19.87 3.73,-6.31 2.28,-11.83 -0.28,-15.54 -3.43,-4.97 -9.01,-7.97 -15.03,-9.62 -5.97,-1.64 -13.07,-2.13 -20.57,0.36 -7.01,2.34 -13.57,7.64 -17.32,15.24 -1.03,2.07 -1.81,4.17 -2.26,6.22z"/>
      <path class="fil4" d="M2769.98 360.27c-1.23,5.51 -0.17,10.34 1.99,14.05 2.32,3.97 5.93,6.78 10.37,8.23 3.25,1.07 6.95,1.4 10.9,0.93 9.46,-1.15 25.43,-8.41 32.2,-19.87 3.73,-6.31 2.29,-11.83 -0.27,-15.54 -3.43,-4.97 -9.02,-7.97 -15.03,-9.62 -5.97,-1.64 -13.07,-2.13 -20.57,0.36 -7.01,2.33 -13.57,7.64 -17.32,15.24 -1.03,2.07 -1.81,4.17 -2.27,6.22z"/>
      <path class="fil4" d="M2882.25 170.17c-7.69,2.04 -13.59,7.01 -17.61,12.83 -4.31,6.24 -6.6,13.58 -6.79,21.2 -0.15,5.58 0.84,11.31 2.99,16.84 5.13,13.25 20.78,31.88 38.38,33.87 9.69,1.11 16.36,-4.93 20.22,-11.34 5.19,-8.58 6.96,-18.99 6.81,-29.09 -0.15,-10.03 -2.24,-20.92 -8.4,-30.31 -5.74,-8.77 -15.21,-14.78 -26.59,-15.02 -3.11,-0.06 -6.16,0.26 -9.01,1.02z"/>
      <path class="fil4" d="M4281.15 803.29c-241.71,-139.33 -544.14,-190.18 -807.66,-82.43 -117.08,47.87 -222.01,125.19 -296.91,227.65 -68.13,93.2 -111.71,201.49 -149.63,309.75 -75.9,216.65 -135.61,464.49 -334.4,604.32 -112.62,79.21 -248.78,115.81 -381.64,144.49 -137.07,29.59 -278.79,53.31 -398.4,131.24 -192.77,125.59 -312.16,357.79 -300.44,587.72 1.41,27.69 5.11,55.24 10.42,82.44 0.5,2.54 4.94,1.75 4.49,-0.81 -41.04,-231.24 56.59,-478.26 238.3,-625.46 46.94,-38.03 99.23,-68.87 155.28,-91.42 69.21,-27.85 142.16,-44.36 215.02,-59.41 132.33,-27.33 266.82,-53.37 388.05,-115.7 106.5,-54.74 190.29,-137.89 249.94,-241.26 56.51,-97.92 92.29,-206.08 127.52,-313 35.84,-108.82 70.65,-219.01 125.17,-320.27 59.47,-110.46 144.1,-202.4 252.5,-266.36 114.19,-67.38 246.11,-102.55 378.42,-105.19 146.76,-2.93 292.34,32.36 425.85,92.05 32.39,14.48 64.33,29.93 95.55,46.79 3.26,1.76 5.75,-3.3 2.57,-5.14z"/>
      <path class="fil5" d="M2994.57 376.35c-41.33,0.59 -85.92,-8.19 -117.74,-36.3 -26.93,-23.78 -45.18,-61.59 -38.85,-97.96 11.82,-67.91 100.3,-85.35 151.21,-49.76 58.07,40.59 59.98,122.62 32.58,182.5 -9.05,0.85 -18.13,1.38 -27.2,1.52zm-625.15 -116.74c14.95,-28.93 60.46,-62.14 90.58,-33.62 27.56,26.11 12.8,76.7 -0.37,106.48 -16.06,36.3 -42.46,66.22 -73.65,90.47 -30.2,-49.3 -43.8,-110.64 -16.56,-163.33zm-489.85 -64.02c22.28,-25.5 55.58,-46.14 90.36,-46.56 48.08,-0.57 35.12,56.36 16.39,81.63 -34.92,47.09 -89.05,78.34 -145.98,94.93 -5.69,-46.01 7.18,-93.32 39.23,-130zm1630.47 -533.86c-0.39,-6.42 -10.35,-5.9 -9.96,0.52 10.46,169.83 -21.66,348.87 -121.53,489.88 -43.73,61.73 -99.4,115.23 -163.92,154.9 -55.05,33.84 -118.52,58.96 -183.39,66.75 10.28,-23.17 16.07,-48.31 15.61,-75.23 -0.65,-36.77 -13.37,-73.59 -39.53,-100.01 -22.78,-22.99 -55.25,-33.46 -87.26,-31.44 -30.17,1.91 -60.3,15.42 -77.48,41.04 -19.97,29.79 -17,68.49 -1.38,99.42 33.47,66.28 107.58,81.28 176.26,76 -1.56,2.96 -3.17,5.88 -4.86,8.69 -39.9,66.07 -113.01,111.14 -183.71,137.85 -133.35,50.39 -304.41,43.54 -409.17,-63.72 -10.76,-11.01 -20.81,-23.51 -29.66,-37 3.81,-2.99 7.57,-6.05 11.25,-9.21 28.16,-24.14 52.13,-53.78 66.26,-88.31 12.42,-30.34 22.63,-73.85 1.75,-102.96 -21.17,-29.54 -60.52,-19.72 -84.21,0.78 -27.54,23.84 -38.16,62.32 -37.11,97.72 1.07,36.13 12.96,70.11 31.71,100.25 -23.62,17.45 -49.66,31.85 -75.96,43.34 -77.71,33.99 -168.6,52.08 -253.1,39.98 -76.59,-10.97 -150.13,-51.9 -188.97,-120.63 -10,-17.7 -16.6,-36.67 -20,-56 28.49,-8.41 55.77,-20.35 80.39,-35.6 31.88,-19.76 67.16,-48.04 82.15,-83.5 11.09,-26.25 11.77,-66.56 -23.75,-72.74 -33.76,-5.88 -71.44,14.65 -95.19,36.93 -25.83,24.21 -43.52,57.04 -50.83,91.58 -4.06,19.18 -4.5,38.24 -1.93,56.75 -17.87,4.77 -35.94,8.17 -53.72,10.11 -81.72,8.87 -167.22,-12.93 -220.55,-78.83 -53.49,-66.1 -66.87,-154.68 -58.12,-237.16 4.85,-45.78 15.87,-90.58 28.85,-134.65 0.69,-2.36 -3.01,-3.1 -3.73,-0.78 -28.25,92.16 -48.87,192.7 -19.78,287.31 11.96,38.88 31.78,75.7 60,105.2 29.35,30.68 67.42,51.08 108.5,61.14 51.52,12.62 107.65,10.64 160.03,-3.5 9.86,51.34 42.58,97.76 84.9,129.61 74.14,55.8 170.35,64.6 259.53,49.72 72.68,-12.13 145.93,-37.31 205.41,-81.87 22.24,33.37 52.85,61.69 86.23,82.5 66.58,41.49 146.85,56.77 224.52,51.86 79.97,-5.06 158.68,-31.05 225.97,-74.54 43.16,-27.88 83.46,-65.48 106.46,-111.19 11.64,-1.22 23.07,-2.97 34.04,-5.13 81.16,-16.02 156.93,-54.81 220.5,-107.32 140.68,-116.22 212.55,-291.88 227.31,-470.86 3.77,-45.84 4,-91.76 1.17,-137.65z"/>
      <path class="fil4" d="M1020.78 1961.17c36.82,-11.38 74.46,-20.32 112.59,-26 73.99,-11.03 150.15,-9.55 222.91,8.67 20.29,5.09 40.29,11.45 59.72,19.23 9.55,3.82 19.09,7.87 28.27,12.53 6.86,3.48 13.93,7.78 18.09,14.3 -34.32,-4.97 -69.98,-3.79 -104.41,-1.59 -36.74,2.35 -73.3,6.78 -109.92,10.48 -74.71,7.55 -149.31,7.83 -224.3,5.53 -29.89,-0.92 -59.78,-1.95 -89.67,-2.96 4.8,-0.85 9.6,-1.73 14.39,-2.56 14.05,-2.43 28.07,-4.96 42.13,-7.34 28.12,-4.75 56.32,-9.02 84.53,-13.14 28.25,-4.12 56.56,-7.77 84.89,-11.22 28.17,-3.42 56.48,-5.6 84.88,-4.94 15.93,0.37 31.84,1.56 47.66,3.55 16.03,2.03 31.68,5.82 47.6,8.31 2.09,0.33 2.62,-2.55 0.66,-3.16 -13.52,-4.22 -28.03,-6.21 -42.03,-8.23 -13.58,-1.97 -27.24,-3.35 -40.94,-4.15 -28.3,-1.65 -56.42,-0.17 -84.62,2.15 -57.57,4.71 -114.95,12.54 -171.89,22.15 -15.82,2.66 -31.65,5.34 -47.39,8.45 -11.33,2.23 -22.84,4.23 -34.05,7.16 0.02,-0.03 0.04,-0.05 0.06,-0.08 33.42,-13.02 66.52,-26.54 100.84,-37.14zm-105.45 31.47c13.96,-46.63 22.95,-94.48 32.76,-142.1 9.96,-48.3 21.61,-96.15 35.06,-143.6 7.57,-26.69 15.59,-53.3 24.01,-79.73 0.17,-0.53 -0.75,-0.86 -0.94,-0.32 -16.94,46.04 -31.53,92.84 -43.98,140.3 -12.43,47.38 -22.39,95.3 -33.59,142.98 -6.44,27.41 -13.51,54.74 -21.94,81.63 -0.26,0.86 -0.19,1.58 0.02,2.23 -0.26,0.45 -0.53,0.9 -0.79,1.34 -2.4,-28.89 -3.95,-57.65 -2.9,-86.71 1.16,-32.1 4.94,-64.14 11.1,-95.65 12.26,-62.6 34.3,-123.03 65.48,-178.69 15.7,-28.03 33.71,-54.76 53.73,-79.89 -12.65,59.39 -15.01,120.36 -21.42,180.63 -6.6,61.97 -19.49,122.37 -46.67,178.8 -13.12,27.21 -29.06,52.96 -47.27,77.04 -0.88,0.58 -1.77,1.16 -2.66,1.74zm-31.56 132.48c82.65,-21.36 168.58,-32.3 253.88,-24.27 43.6,4.11 86.24,13.42 127.5,27.85 -37.78,9.51 -74.78,22.03 -112.61,31.4 -41.53,10.28 -83.57,18.35 -125.85,24.79 -83.54,12.74 -167.87,19.3 -252.17,24.38 -38.36,2.31 -76.95,5.46 -115.45,6.29 22.89,-4.9 45.64,-11.07 68.45,-16.03 30.96,-6.74 62.03,-12.91 93.16,-18.81 63.15,-11.95 126.69,-21.72 190.46,-29.73 35.53,-4.46 71.18,-7.52 106.77,-11.45 1.23,-0.13 1.15,-2 -0.11,-1.94 -31.98,1.65 -63.9,5.14 -95.74,8.5 -31.86,3.36 -63.65,7.34 -95.38,11.83 -62.58,8.85 -124.86,19.86 -186.66,33.17 -17.49,3.76 -34.94,7.68 -52.35,11.76 -15.24,3.58 -30.67,7 -45.63,11.67 0.04,-0.55 0.08,-1.11 0.11,-1.66 1.22,-1.1 2.44,-2.22 3.66,-3.32 78.07,-31.75 156.2,-63.3 237.96,-84.43zm-242.52 50.79c-0.1,-13.51 0.3,-27.04 1.17,-40.53 1.74,-27.43 5.45,-54.74 10.59,-81.74 10.09,-53.03 25.6,-104.76 43.61,-155.59 10.29,-29.04 21,-57.94 32.54,-86.51 0.12,-0.29 -0.32,-0.52 -0.45,-0.22 -22.1,49.71 -43.37,99.63 -59.69,151.59 -15.01,47.75 -26.39,96.66 -31.95,146.42 0.02,-0.26 0.03,-0.52 0.04,-0.79 2.32,-35.75 6.87,-71.4 13.46,-106.61 13.19,-70.57 35.25,-139.32 65.41,-204.48 15.38,-33.24 33.25,-64.98 52.4,-96.12 -8.59,66.49 -19.07,133.06 -32.16,198.77 -13.81,69.38 -31.19,138.24 -55.73,204.65 -11.21,30.3 -24.08,59.96 -38.47,88.88 -0.32,-5.94 -0.73,-11.88 -0.77,-17.72zm-18.22 152.8c76.96,-25.98 159.43,-36.53 240.43,-29.94 41.85,3.41 83.34,11.16 123.61,23.08 -32.49,6.4 -63.9,17.06 -95.04,28.25 -36.18,12.98 -72.26,25.76 -109.67,34.8 -75.84,18.33 -153.65,25.57 -230.91,35.21 -36.84,4.58 -73.64,9.75 -110.11,16.71 44.01,-24.19 92.74,-38.88 140.85,-52.66 53.95,-15.47 109.46,-25.61 164.86,-34.35 31.28,-4.93 62.83,-8.35 94.06,-13.49 0.75,-0.13 0.74,-1.29 -0.06,-1.22 -28.57,2.28 -57.14,6.61 -85.51,10.62 -27.87,3.94 -55.68,8.33 -83.35,13.55 -55.81,10.53 -112.03,23 -165.68,41.83 -24.96,8.76 -51.37,18.04 -72.32,34.71 0.32,-0.45 0.57,-0.97 0.64,-1.64 0.02,-0.24 0.04,-0.48 0.06,-0.72 1.5,-1.87 3,-3.75 4.49,-5.62 55.38,-42.7 117.34,-76.73 183.65,-99.12zm-182.57 -166.65c17.46,-82.75 50.36,-161.46 91.22,-235.27 20.94,-37.84 44.22,-74.17 68.38,-109.99 -13.65,81.01 -28.9,161.92 -47.13,242.02 -19.16,84.23 -42.22,167.75 -73,248.53 -13.11,34.39 -27.34,68.24 -43.18,101.39 0.53,-9 1,-18 1.72,-26.97 1.36,-17.12 2.94,-34.24 4.83,-51.32 3.8,-34.5 8.81,-68.85 15.14,-102.97 12.59,-67.84 30.54,-134.78 54.15,-199.63 13.15,-36.15 28.55,-71.37 44.14,-106.53 0.46,-1.04 -1.05,-1.82 -1.61,-0.8 -32.74,60.83 -56.29,127.28 -75.2,193.59 -19.01,66.63 -32.67,134.8 -42.06,203.44 -2.66,19.42 -4.97,38.9 -6.88,58.41 -0.71,7.28 -1.46,14.61 -2.15,21.95 -1.6,-33.41 -3.23,-66.8 -2.78,-100.28 0.62,-45.58 5.01,-90.94 14.41,-135.57zm727.6 -315.88c11.45,-10.22 20.15,-22.64 28.7,-35.27 15.92,-23.49 33.04,-46.09 51.9,-67.32 73.97,-83.28 171.51,-145.41 278.39,-176.9 10.22,-3 20.54,-5.65 30.9,-8.1 -21.07,21.55 -41.8,43.39 -63.44,64.41 -23.68,23.02 -48.23,45.11 -73.15,66.76 -48.92,42.51 -100.98,82.1 -157.64,113.79 -22.96,12.84 -46.77,24.41 -71.21,34.33 8.11,-5.07 16.06,-10.37 23.94,-15.74 19.25,-13.12 37.85,-27.14 56.11,-41.59 37.48,-29.66 73.8,-60.79 110.01,-91.97 21.83,-18.8 43.68,-37.65 65.11,-56.91 0.72,-0.64 -0.34,-1.9 -1.1,-1.3 -39.19,30.87 -77.68,62.74 -115.82,94.88 -35.4,29.83 -71,59.44 -108.71,86.33 -17.78,12.68 -36.3,24.11 -54.69,35.82 -0.46,0.16 -0.91,0.33 -1.37,0.49 0.68,-0.58 1.4,-1.11 2.07,-1.71zm-16.13 18.45c8.9,-4.01 17.8,-8.02 26.7,-12.03 16.46,-7.42 32.92,-14.84 49.09,-22.86 132.19,-65.65 240.74,-170.16 341.27,-278.21 -1.38,0.3 -2.77,0.62 -4.16,0.93 -124.75,28.38 -241.74,94.8 -324.29,192.52 -25.56,30.26 -47.91,63.44 -76.67,90.69 -66.36,62.88 -160.28,88.36 -231.5,145.68 47.15,-61.09 68.67,-138.2 80.12,-214.51 11.45,-76.32 13.9,-153.9 28.19,-229.75 -0.43,2.3 -5.31,6.29 -6.85,8.16 -2.67,3.23 -5.31,6.5 -7.91,9.79 -4.99,6.33 -9.86,12.76 -14.59,19.29 -9.45,13.05 -18.38,26.5 -26.75,40.27 -16.74,27.57 -31.27,56.48 -43.47,86.34 -24.4,59.72 -39.48,123.27 -44.28,187.61 -1.81,24.32 -1.08,48.73 0.13,73.05 0.31,6.15 0.65,12.3 0.99,18.44 0.16,2.95 0.32,5.9 0.48,8.85 0.15,2.98 0.9,6.2 0.15,9.13 -0.48,1.89 -1.56,3.55 -2.73,5.11 -5.07,6.7 -12.1,10.85 -18.91,15.53 -7.95,5.45 -15.89,10.93 -23.79,16.45 -7.9,5.52 -15.76,11.1 -23.55,16.78 -5.45,3.98 -10.87,8.01 -16.24,12.1 -13.65,10.08 -27.21,20.32 -40.64,30.7 -13.1,10.14 -25.84,23.04 -39.94,31.63 -30.04,24.37 -59.39,49.58 -88.09,75.52 29.05,-58.05 51.24,-119.31 68.49,-181.85 18.96,-68.73 32.26,-138.92 43.6,-209.26 6.45,-39.98 11.69,-80.13 18.05,-120.1 0.48,-2.98 -3.17,-3.95 -4.72,-1.64 -39.95,59.45 -70.96,125.82 -94.22,193.45 -23.63,68.69 -39.34,140.22 -45.58,212.62 -3.45,39.93 -4.75,80.73 -1.25,120.72 -2.17,0 -3.2,1.61 -3.22,3.33 -48.97,45.39 -95.79,93.11 -139.79,143.35 -16.07,18.37 -31.72,37.13 -47.02,56.16 -0.16,-0.02 -0.31,0.01 -0.44,0.17 -0.91,1.1 -1.81,2.21 -2.72,3.32 0.05,-0.56 0.09,-1.12 0.13,-1.69 34.8,-69.61 62.52,-142.36 84.76,-216.97 24.85,-83.32 43.54,-168.34 59.96,-253.68 9.24,-47.99 17.63,-96.14 26.69,-144.16 0.46,-2.42 -3,-4.65 -4.63,-2.36 -49.39,69.34 -92.85,143.91 -125.76,222.49 -33.46,79.91 -54.01,164.03 -57.3,250.73 -1.98,52.35 0.33,105.07 4.78,157.27 -0.43,0.82 -0.85,1.65 -1.27,2.48 -0.09,0.08 -0.18,0.16 -0.27,0.23 -0.4,0.35 -0.51,0.79 -0.46,1.22 -0.33,0.66 -0.66,1.31 -1.03,2.07 -19.15,23.68 -37.84,47.75 -55.78,72.35 -23,31.53 -43.43,65.18 -62.92,98.97 -11.15,19.35 -22.28,38.96 -31.57,59.27 -0.71,1.56 0.11,2.86 1.29,3.37 -0.34,0.66 -0.7,1.31 -1.04,1.96 -0.31,0.62 0.63,1.09 0.96,0.49 0.42,-0.76 0.86,-1.49 1.27,-2.24 0.78,-0.04 1.56,-0.4 2.08,-1.3 12.45,-21.56 24.39,-43.37 36.72,-64.97 34.22,-55.56 71.59,-109.19 111.75,-160.62 0.24,0 0.47,0.06 0.74,0 75.87,-15.25 153,-22.15 229.61,-32.52 37.9,-5.12 75.72,-11.12 113.05,-19.5 37.27,-8.36 73.46,-19.74 109.38,-32.67 40.48,-14.56 81.08,-29.77 123.77,-36.48 3.61,-0.57 4.04,-5.22 0.48,-6.32 -80.27,-24.73 -165.46,-33.12 -249.04,-24.43 -77.77,8.1 -153.71,31.68 -222.72,68.38 -27.78,14.78 -54.25,31.76 -79.21,50.8 4.89,-6 9.8,-12 14.78,-17.93 51.54,-61.33 107.27,-119.06 166.14,-173.38 42.78,-0.45 85.61,-3.74 128.3,-6.26 42.39,-2.51 84.78,-5.37 127.08,-9.12 84.24,-7.47 168.29,-18.59 250.74,-37.69 47.43,-10.98 93.62,-26.66 141.15,-37.21 2.91,-0.65 3.32,-5.45 0.5,-6.54 -78.84,-30.43 -165.32,-37.91 -249.09,-31.56 -87.03,6.6 -172,29.12 -253.93,58.46 -41.11,14.72 -81.61,31.12 -121.53,48.81 17.21,-15.38 34.59,-30.56 52.28,-45.37 28.84,-24.15 58.3,-47.55 88.31,-70.22 15.01,-11.34 30.15,-22.5 45.42,-33.48 15.16,-10.9 31.7,-20.7 46.2,-32.42 16.36,-13.22 35.54,-13.03 55.96,-11.9 95.99,5.28 192.37,7.18 288.13,-1.12 79.74,-6.91 160,-20.88 239.3,-10.07 -0.28,-13.69 -14.12,-22.61 -26.52,-28.4 -78.16,-36.55 -166.02,-50.22 -252.16,-45.37 -86.14,4.85 -170.68,27.78 -250.15,61.35 61.38,-43.86 126.95,-81.87 195.52,-113.34 5.06,-2.32 10.13,-4.6 15.21,-6.89z"/>
      <path class="fil5" d="M487.93 844.42c-20.48,-5.16 -40.66,-11.49 -60.43,-18.9 -17.95,-6.74 -34.87,-15.04 -51.96,-23.53 15.44,-38.66 17.86,-82.03 6.85,-122.21 -10.43,-38.09 -34.83,-80.21 -74.65,-93.07 -18.82,-6.07 -38.28,-3.22 -54.8,7.56 -17.37,11.33 -29.36,29.14 -38.73,47.25 -11.11,21.44 -19.42,45.35 -35.75,63.6 -9.25,10.34 -20.49,13.48 -33.85,9.82 -10,-2.74 -19.69,-7.27 -29.08,-11.6 -73.33,-33.82 -135.3,-90.63 -176.44,-160 -42.54,-71.71 -60.64,-155.93 -50.76,-238.76 1.38,-11.58 3.29,-23.09 5.7,-34.51 3.4,-16.04 7.79,-31.87 13.12,-47.38 5.33,-15.51 11.6,-30.69 18.74,-45.45 7.14,-14.76 15.16,-29.1 23.99,-42.92 13.44,-21.04 29.71,-38.43 46.03,-56.76 15.08,17.47 30.46,34.68 46.17,51.58 58.29,62.67 120.8,121.33 187.14,175.41 69.49,56.66 143.43,106.59 219.09,154.57 40.18,25.47 80.49,50.76 119.83,77.51 38.13,25.92 75.21,53.39 111.42,81.92 72.66,57.26 141.31,119.13 208.72,182.42 7.7,7.22 15.37,14.49 23.02,21.76 -5.77,0.09 -11.59,0.58 -17.25,0.96 -9,0.61 -17.98,1.47 -26.94,2.59 -17.94,2.25 -35.78,5.29 -53.55,8.62 -35.65,6.7 -71.09,14.6 -106.99,19.92 -72.61,10.75 -147.41,7.52 -218.64,-10.4zm-483.87 -776.12c15.21,-17.58 28.2,-36.1 44.42,-52.8 16.21,-16.7 33.53,-32.37 52.23,-46.25 28.57,-21.2 60.36,-37.91 94.44,-48.26 81.28,-24.69 170.18,-10.74 240.32,37.18 35.05,23.95 65.15,56.88 83.51,95.36 -19.31,-5.04 -39.85,2.31 -57.19,12.08 -11.52,6.5 -22.34,14.32 -32.57,22.68 -9.31,7.6 -18.02,16.13 -23.72,26.84 -11.87,22.35 -4.23,48.6 10.11,67.8 15.81,21.17 39.89,36.13 61.93,50.01 22.21,14.01 47.55,26.63 74.59,24.44 23.68,-1.92 42.18,-17.24 63.89,-25.02 57.14,-20.44 87.08,54.11 105.94,93.97 26.3,55.6 49.47,114.31 63.24,174.42 -21.72,-3.3 -42.03,18.39 -43.21,39.77 -1.62,29.52 20.81,52.08 42.41,68.75 11.86,9.15 24.07,17.79 35.26,27.79 10.25,9.16 19.76,19.22 28.56,29.76 17.8,21.29 33.01,45.04 44.12,70.49 11.52,26.42 19.08,54 22.03,82.58 -65.22,-63.98 -132.66,-125.83 -203.24,-183.85 -72.2,-59.35 -148.34,-112.74 -226.79,-163.45 -76.2,-49.25 -151.99,-98.74 -223.21,-155.11 -67.15,-53.17 -130.74,-110.95 -190.02,-172.77 -23.41,-24.41 -46.13,-49.48 -68.18,-75.12 0.37,-0.44 0.75,-0.86 1.13,-1.29zm575.34 798.24c36.39,2.88 73.06,2.35 109.33,-1.76 36.39,-4.12 72.29,-11.32 108.27,-18.02 20.18,-3.76 40.4,-7.33 60.76,-10.01 10.31,-1.36 20.67,-2.49 31.04,-3.37 10.34,-0.86 20.91,-0.54 31.19,-1.75 2.26,-0.27 4.25,-2.45 3.89,-4.82 -7.68,-50.15 -26.01,-98.72 -54.55,-140.75 -14.25,-20.99 -31.11,-40.12 -49.97,-57.1 -20.37,-18.34 -47.04,-32.72 -60.4,-57.53 -6.84,-12.71 -10.88,-29.49 -3.96,-43.02 6.35,-12.44 21.19,-20.68 34.95,-16 3.99,1.35 7.94,-2.1 6.53,-6.27 -17.75,-52.25 -35.26,-104.43 -57.95,-154.82 -10.85,-24.08 -22.14,-48.09 -34.88,-71.23 -10.88,-19.75 -24.27,-40.48 -44.86,-51.2 -20.09,-10.44 -40.83,-5.33 -60.2,3.9 -9.53,4.54 -18.84,9.66 -28.84,13.14 -12.63,4.39 -25.84,4.86 -38.87,1.98 -26.32,-5.82 -49.73,-22.32 -71.58,-37.35 -20.93,-14.39 -42.76,-31.48 -48.84,-57.5 -3.29,-14.07 -0.94,-28.28 7.75,-39.95 8.28,-11.12 19.92,-19.54 31.14,-27.46 21.68,-15.3 50.4,-31.14 77,-18.77 3.58,1.66 8.34,-2.4 6.46,-6.2 -38.14,-77.32 -110.91,-132.8 -194.84,-151.75 -85.38,-19.28 -174.96,4.36 -244.41,56.34 -32.2,24.1 -60.91,52.58 -87.49,82.69 -3.65,4.13 -7.3,8.28 -10.95,12.44 -30.58,-36.02 -59.85,-73.17 -87.6,-111.42 -6.28,-8.65 -12.47,-17.35 -18.6,-26.1 -3.94,-5.64 -12.56,0.71 -8.6,6.34 33.72,48.08 69.74,94.52 107.81,139.21 -20.35,23.54 -40.04,47.86 -55.84,74.57 -21.89,37.01 -37.85,77.4 -47.35,119.32 -18.65,82.27 -10.69,168.69 24.33,245.54 33.28,73.01 88.41,136.21 156.76,178.36 17,10.48 34.99,19.48 53.48,27.03 18.78,7.67 40.52,16.54 57.97,1.27 17.16,-15 26.38,-38.74 36.11,-58.76 9.8,-20.16 21,-40.63 39.51,-54.13 18.08,-13.19 40.39,-14.69 60.35,-4.79 19.2,9.53 34.39,26.96 44.46,45.61 20.96,38.8 26.52,85.65 16.65,128.49 -2.5,10.83 -6.1,21.34 -10.58,31.52 -1.19,2.7 0.22,5.66 2.76,6.92 16.58,8.28 34.27,14.9 51.61,21.4 16.77,6.28 33.84,11.76 51.11,16.47 35.92,9.79 72.83,16.35 109.94,19.29z"/>
      <path class="fil5" d="M571.71 464.09c-8.7,-3.37 -18.4,-8.42 -22.37,-17.4 -4.84,-10.94 2.32,-22.64 11.39,-28.71 9.75,-6.54 22.14,-8.43 33.6,-9.5 28.67,-2.65 57.64,2.65 83.39,15.53 0.04,0.02 0.06,0 0.09,0.01 2.15,1.92 4.06,4.17 5.55,6.94 6.08,11.21 1.12,22.93 -8.87,29.86 -9.33,6.48 -21.42,9.01 -32.47,10.63 -11.86,1.73 -23.94,2.14 -35.86,0.89 -11.78,-1.24 -23.4,-3.96 -34.45,-8.25zm29.98 17.62c15.04,1.99 30.43,1.69 45.31,-1.33 12.75,-2.58 26.39,-6.35 36.21,-15.34 9.71,-8.89 15.22,-24.33 7.53,-36.29 -7.12,-11.06 -21.39,-14.7 -34.02,-16.57 -20.73,-7.71 -42.91,-11.23 -65.12,-9.7 -13.45,0.93 -28.25,3.31 -39.07,12.03 -9.21,7.42 -15.22,19.43 -12.56,31.34 5.58,24.97 40.42,33.05 61.72,35.86z"/>
      <path class="fil5" d="M3187.57 1736.49c34.2,7.87 68.44,15.58 102.65,23.36 34.21,7.8 68.43,15.58 102.65,23.37 31.48,7.17 63.36,16.21 95.74,18.01 8.66,0.48 17.43,0.3 26.1,-0.61 -0.42,0.15 -0.83,0.35 -1.26,0.51 -10.32,3.78 -20.92,6.75 -31.68,8.98 -21.87,4.52 -44.27,6.09 -66.58,5.84 -45.6,-0.52 -91.93,-7.66 -136.25,-18.11 -26.02,-6.13 -51.66,-13.81 -76.32,-24.22 -0.55,-0.23 -0.94,0.6 -0.39,0.85 43.15,19.85 89.24,30.93 136,38.35 45.91,7.27 93.2,12.81 139.46,5.4 11.84,-1.9 23.58,-4.61 35,-8.26 0.93,-0.29 1.86,-0.6 2.8,-0.9 -41.93,22.19 -90.3,32.15 -137.41,36.88 -34.73,3.5 -70.13,4.11 -104.43,-3.22 -36.55,-7.81 -70.02,-25.23 -100.68,-46.17 -31.55,-21.56 -62.85,-47.65 -80.28,-82.31 31.43,8.15 63.24,14.97 94.88,22.25zm325.98 98.76c-1.41,1.33 -2.78,2.7 -4.27,3.98 -9.07,7.78 -18.74,14.84 -28.54,21.68 -19.61,13.69 -39.41,27.08 -59.54,39.98 -40.89,26.2 -82.86,50.82 -125.75,73.62 -23.94,12.74 -48.16,24.96 -72.76,36.39 -0.41,0.19 -0.17,0.86 0.26,0.67 89.68,-39.61 176.34,-86.28 256.66,-142.68 5.89,-4.13 11.75,-8.33 17.49,-12.68 -37.75,37.12 -81.12,68.84 -125.13,97.95 -63.18,41.78 -130.63,78.37 -203.12,101.15 -36.09,11.34 -73.16,18.93 -110.86,21.54 64.8,-39.66 129.05,-80.18 196.39,-115.51 35.22,-18.48 71.16,-35.44 107.87,-50.73 36.53,-15.21 73.55,-29.5 108.41,-48.37 14.85,-8.03 29.28,-16.98 42.89,-26.99zm34.15 -161.59c-61.29,3.45 -124.14,2.6 -184.46,-9.88 -28.05,-5.79 -55.5,-14.23 -81.76,-25.59 23.49,-0.24 47,-5.02 70.18,-8.01 30.16,-3.91 60.42,-7.07 90.77,-9.19 60.12,-4.2 120.63,-4.37 180.6,2.03 25.54,2.73 50.91,6.8 76.04,12.06 -4.74,0.43 -9.45,0.97 -13.96,1.22 -11.79,0.65 -23.59,1.25 -35.39,1.79 -22.85,1.05 -45.71,1.89 -68.58,2.51 -46.41,1.26 -92.89,2.48 -139.32,2.55 -0.7,0 -0.57,1.05 0.11,1.07 46.6,1.53 93.11,2.51 139.74,1.76 22.89,-0.36 45.78,-0.94 68.66,-1.73 11.81,-0.41 23.61,-0.87 35.42,-1.4 7.59,-0.33 15.82,0 23.69,-0.76 -51.41,20.05 -106.81,28.47 -161.74,31.57zm188.67 -161.36c-55.39,10.44 -112.24,13.11 -168.36,7.92 -27.3,-2.52 -54.88,-6.4 -81.49,-13.36 22.15,-7.29 44.2,-14.79 66.73,-20.97 26.55,-7.28 53.44,-13.31 80.54,-18.12 53.41,-9.46 107.66,-14.16 161.89,-13.98 24.3,0.07 48.57,1.28 72.77,3.34 -1.13,0.44 -2.25,0.92 -3.41,1.29 -8.71,2.8 -17.64,4.91 -26.55,6.92 -17.64,3.99 -35.42,7.47 -53.31,10.16 -35.44,5.32 -71.31,8.15 -107.06,10.4 -20.51,1.29 -41.01,2.53 -61.53,3.66 -0.37,0.03 -0.3,0.58 0.06,0.58 74.01,-0.48 148.83,-1.45 221.6,-16.53 7.81,-1.62 15.6,-3.39 23.31,-5.45 -38.19,22.6 -81.63,35.92 -125.19,44.14zm152.54 12.84c0.91,-11.33 1.68,-22.68 2.3,-34.02 0.12,-2.31 0.29,-4.65 0.45,-6.99 10.47,50.05 14.16,101.09 9.56,152.31 -5.54,61.68 -22.14,122.33 -49.15,178.07 -13.38,27.6 -29.35,53.55 -47.58,78.1 10.4,-54.74 10.23,-110.75 15.08,-166.15 5.41,-61.74 20.76,-121.31 41.71,-179.52 7.27,-20.19 15.1,-40.15 23.17,-60.03 -0.33,10.32 -0.77,20.65 -1.36,30.96 -1.16,20.67 -2.82,41.32 -4.98,61.91 -4.3,41.15 -10.6,82.1 -18.73,122.67 -4.6,22.97 -9.64,45.85 -15.32,68.58 -0.03,0.13 0.18,0.16 0.21,0.03 23.23,-80.21 37.9,-162.69 44.64,-245.92zm-218.24 317.54c14.79,-39.56 27.3,-79.99 38.56,-120.7 3.21,-11.58 6.34,-23.18 9.44,-34.78 1.93,-7.26 3.9,-14.48 5.51,-21.78 1.58,53.14 -3.93,106.07 -18.42,157.5 -17.06,60.54 -45.37,118.05 -83.21,168.3 -18.21,24.19 -38.62,46.63 -61.03,66.95 22.76,-47.81 35.97,-99.55 49.63,-150.55 7.69,-28.73 15.5,-57.47 25.25,-85.58 10.35,-29.85 23.74,-58.27 39.04,-85.88 12.46,-22.5 25.47,-44.68 38.95,-66.57 -3.72,13.16 -6.51,26.68 -9.9,39.79 -5.4,20.83 -10.91,41.65 -16.78,62.35 -11.75,41.42 -25.03,82.46 -41.47,122.26 -9.09,22.04 -18.71,44.04 -29.91,65.09 -0.02,0.05 0.03,0.07 0.06,0.03 21.28,-37.45 39.19,-76.07 54.28,-116.43zm-116.18 -26.56c0.62,-3.09 1.06,-6.17 1.39,-9.25 0.63,-1.4 1.33,-2.76 1.92,-4.18 -1.06,4.48 -2.17,8.96 -3.31,13.43zm-39.14 91.28c9.82,-16.17 18.46,-33.16 25.63,-50.67 3.21,-7.84 6.51,-16.18 9.25,-24.69 -23.69,84.49 -64,165.9 -134.79,220.31 -17.53,13.47 -36.08,24.24 -55.89,33.12 31.52,-32.9 57.43,-70.7 82.73,-108.52 14.64,-21.9 29.16,-43.9 44.68,-65.19 14.15,-19.42 29.09,-38.28 42.56,-58.2 5,-7.4 9.73,-14.96 14.16,-22.67 -2.5,8.19 -5.31,16.3 -8.46,24.26 -6.73,17.03 -14.94,33.37 -23.96,49.29 -18.81,33.19 -41.35,64.02 -65,93.89 -0.29,0.36 0.25,0.81 0.55,0.46 24.84,-28.89 48.73,-58.77 68.54,-91.39zm-433.24 -197.53c17.57,33.51 44.46,59.75 74.92,81.7 30.25,21.81 63.35,41 99.26,51.69 34.46,10.25 70.85,11.57 106.51,9.11 35.16,-2.42 70.45,-7.69 104.29,-17.68 25.61,-7.56 50.51,-17.85 72.88,-32.22 -47.21,46.61 -111.97,72.08 -172.64,97.23 -72.96,30.24 -142.51,67.1 -210.32,107.49 -38.57,22.98 -76.73,46.72 -114.45,71.06 -3,1.94 -0.88,6.41 2.35,6.22 76.06,-4.73 149.52,-27.41 217.83,-60.57 34.44,-16.72 67.67,-35.9 99.87,-56.6 35.46,-22.81 70.15,-47.13 102.53,-74.15 31.37,-26.18 60.47,-55.27 84.81,-88.09 -16.37,36.12 -42.31,67.35 -65.82,99.08 -29.96,40.43 -56.21,83.45 -86.35,123.75 -17.47,23.34 -36.3,45.73 -57.6,65.69 -3.08,2.89 -0.8,8.66 3.77,6.94 47.6,-17.98 90.21,-51.55 123.07,-89.91 34.22,-39.94 58.83,-87.24 75.73,-136.86 9.56,-28.09 16.3,-56.86 21.11,-86.12 0.02,-0.14 0,-0.25 -0.02,-0.37 1.47,-1.87 2.9,-3.77 4.3,-5.7 3.07,-2.2 6.03,-4.61 8.85,-7.25 0.95,-0.89 1.35,-1.98 1.37,-3.05 47.63,-38.99 94.03,-79.83 138.6,-122.1 1.8,-1.72 3.58,-3.46 5.39,-5.17 0.12,-0.06 0.25,-0.13 0.38,-0.17 -33.12,51.67 -65.4,105.3 -86.58,162.98 -20.33,55.36 -32.56,113.1 -49.98,169.36 -10.01,32.32 -21.98,64.01 -37.82,93.95 -1.48,2.79 2.37,6.05 4.83,3.97 48.79,-41.28 89.11,-91.9 119.05,-148.33 30.05,-56.65 49.62,-118.99 56.94,-182.71 3.54,-30.77 4.27,-61.9 1.32,-92.75 -0.19,-2.02 -0.62,-4.1 -0.58,-6.13 0,-0.42 0.08,-0.82 0.19,-1.22 0.35,-1.25 0.61,-2.53 1.02,-3.77 0.92,-2.84 2.4,-5.5 4.32,-7.78 1.03,-1.22 2.2,-2.23 3.38,-3.27 1.28,-1.13 2.46,-2.4 3.69,-3.59 2.45,-2.41 4.9,-4.81 7.35,-7.23 4.89,-4.82 9.76,-9.68 14.59,-14.55 4.84,-4.88 9.66,-9.79 14.44,-14.72 4.78,-4.94 9.53,-9.9 14.26,-14.89 4.71,-4.99 9.4,-10.01 14.05,-15.07 4.66,-5.05 9.28,-10.13 13.86,-15.25 4.58,-5.12 9.12,-10.28 13.62,-15.46 4.5,-5.19 8.96,-10.42 13.38,-15.68 4.42,-5.26 8.79,-10.56 13.12,-15.89 3.22,-3.98 6.42,-7.97 9.59,-12 4.75,-6.02 9.39,-12.14 14.01,-18.27 -0.03,1.22 -0.07,2.43 -0.09,3.65 -20.61,50.05 -39.91,100.75 -53.41,153.22 -7.71,29.92 -13.37,60.29 -16.55,91.03 -3.11,30.03 -4.33,60.22 -6.25,90.35 -2.18,34.04 -5.32,68.08 -13.08,101.36 -0.73,3.16 3.69,5 5.62,2.58 38.99,-48.98 67.85,-106.18 85.99,-165.99 18.36,-60.55 25.74,-124.62 21.02,-187.74 -2.23,-29.74 -6.97,-59.44 -14.9,-88.22 2.42,-5.84 4.85,-11.7 7.29,-17.53 0.48,-1.13 0.19,-2.34 -0.47,-3.25 2.87,-3.98 5.8,-7.9 8.61,-11.92 12.08,-17.21 24.02,-34.78 33.39,-53.64 1.37,-2.75 -2.71,-5.35 -4.59,-2.87 -17.8,23.53 -34.08,48.12 -51.5,71.94 -0.74,0.19 -1.41,0.7 -1.75,1.45 -108.05,-10.97 -217.8,-2.34 -322.87,25.09 -29.92,7.81 -60.16,16.52 -88.65,28.67 -3.35,1.43 -2.9,6.32 0.7,7.06 28.24,5.8 56.37,11.6 85.07,14.7 28.26,3.05 56.77,4.14 85.18,3.28 57.46,-1.73 116.21,-10.69 170.24,-30.79 18.85,-7.01 37.11,-15.64 54.25,-26.09 -21.99,27.79 -45.15,54.69 -69.14,80.77 -24.91,27.07 -50.8,53.15 -77.23,78.7 -116.57,-27.58 -237.93,-25.3 -356.18,-10.81 -16.86,2.07 -33.68,4.49 -50.49,6.88 -17.09,2.42 -34.4,4.43 -51.64,2.59 -4.08,-0.43 -6.08,5.12 -2.18,6.99 56.56,27.09 119.24,39.15 181.5,43.07 62.72,3.95 127.25,2.12 189.16,-9.22 22.82,-4.19 45.24,-9.98 67.02,-17.68 -20.55,19.45 -41.34,38.65 -62.19,57.77 -20.44,18.77 -41.19,37.21 -61.74,55.86 -0.86,-0.1 -1.8,0.13 -2.68,0.96 -2.37,2.22 -4.81,4.21 -7.29,6.08 -0.24,0.16 -0.49,0.27 -0.73,0.5 -0.17,0.16 -0.36,0.31 -0.53,0.47 -46.81,34.09 -113.53,11.92 -164.77,0.24 -66.2,-15.09 -132.39,-30.17 -198.59,-45.26 -37.88,-8.64 -75.76,-17.91 -113.94,-25.11 -2.66,-0.5 -5.68,2.53 -4.28,5.21z"/>
      <path class="fil4" d="M790.04 1299.49c-64.54,46.02 -129.27,91.61 -192.51,139.44 -11.22,-41.35 1.85,-81.88 11.34,-122.29 19.83,-3.47 39.73,-6.54 59.69,-9.17 40.58,-5.35 81.43,-8.64 122.31,-10.42 -0.26,0.82 -0.56,1.62 -0.83,2.44zm-107.71 225.43c-15.18,23.75 -31.23,46.88 -47.92,69.55 -6.43,0.15 -12.81,0.85 -19.3,0.45 -8.04,-0.48 -16.02,-1.71 -23.94,-3.15 -14.39,-2.61 -28.66,-5.9 -42.76,-9.79 -28.61,-7.9 -56.42,-18.42 -83.17,-31.27 34.96,-28.4 70.26,-56.4 105.9,-83.94 65.62,-50.71 132.18,-100.19 199.66,-148.4 5.54,-3.95 11.15,-7.79 16.77,-11.61 -25.59,76.95 -61.59,149.82 -105.24,218.16zm-68.44 96.84c-32.31,3.48 -65.38,-4.09 -96.7,-11.71 -15.03,-3.66 -29.93,-7.99 -44.46,-13.31 -14.18,-5.19 -27.61,-11.85 -41.12,-18.5 9.78,-8.06 19.6,-16.09 29.43,-24.09 0.2,0.21 0.42,0.41 0.73,0.56 27.74,13.45 56.65,24.44 86.37,32.64 15.1,4.16 30.4,7.68 45.84,10.32 10.96,1.87 24.07,4.23 35.85,3.01 -5.26,7.07 -10.56,14.1 -15.94,21.08zm-90.99 108.6c-8.12,8.99 -16.31,17.92 -24.57,26.8 -7.74,8.32 -16.51,21.69 -28.54,23.21 -6.76,0.86 -13.91,-0.37 -20.65,-0.97 -7.04,-0.63 -14.07,-1.32 -21.1,-2.06 -14.79,-1.58 -29.5,-3.66 -44.25,-5.53 -3.29,-0.43 -7.17,3.03 -4.78,6.42 15.19,21.51 34.77,53.3 18.62,79.41 -8.24,13.32 -22.75,23.69 -34.99,33.1 -13.39,10.28 -27.47,19.65 -42.05,28.13 -28.42,16.56 -58.68,29.75 -89.85,40.17 -31.78,10.63 -65.59,20.38 -99.1,23.24 -29.34,2.5 -64.12,-2.83 -83.63,-26.42 -0.04,-0.54 -0.19,-1.08 -0.6,-1.59 -1.43,-1.72 -2.83,-3.47 -4.22,-5.21 -0.65,-1.06 -1.34,-2.08 -1.94,-3.2 -0.34,-0.63 -0.84,-0.96 -1.36,-1.05 -0.22,-0.28 -0.42,-0.58 -0.63,-0.86 47.6,-55.57 99.72,-106.94 153.26,-156.76 60.32,-56.13 122.17,-110.64 185.07,-163.87 16.92,-14.31 33.93,-28.51 51.02,-42.62 25.88,17.72 58.23,27.1 88.42,34.18 16.2,3.79 32.58,7.02 48.98,9.84 14.1,2.42 29.09,4.63 43.47,2.8 -27.54,35.36 -56.57,69.57 -86.58,102.84zm-541.1 -16.24c9.15,-41.16 29.1,-78.08 57.23,-109.35 21.83,-24.27 47.04,-45.66 73.35,-65.23 -3.71,14.19 -5.25,29.14 -6.05,43.62 -1.07,19.06 -0.43,38.17 1.04,57.19 3.12,40.16 8.34,80.51 16.77,119.91 4.6,21.52 9.97,43.53 18.96,63.72 -32.96,31.41 -65.12,63.67 -95.56,97.53 -4.55,5.05 -9.02,10.19 -13.49,15.33 -46.1,-63.84 -69.6,-144.63 -52.25,-222.72zm157.22 -193.62c5.99,-4.12 12.04,-8.15 18.13,-12.11 -2.66,14.28 -3.26,28.84 -3.36,43.39 -0.12,19.81 0.61,39.65 1.66,59.43 2.03,38.41 4.82,77.4 12.43,115.16 3.97,19.76 9.79,39.03 18.44,57.24 -12.93,11.89 -25.82,23.83 -38.56,35.92 -5.27,-17.4 -11.06,-34.59 -15.47,-52.25 -4.9,-19.62 -8.74,-39.48 -11.77,-59.47 -5.73,-37.79 -10.23,-76.29 -9.11,-114.58 0.57,-19.75 3.61,-38.83 7.09,-58.14 6.8,-4.96 13.64,-9.84 20.52,-14.59zm129.29 -73.28c11.94,18.24 26.81,34.24 43.79,47.92 2.47,1.99 5.85,0.63 6.05,-2.59 1.17,-19.42 1.99,-38.85 2.56,-58.29 0.24,-8.26 -0.45,-17.06 1.57,-25.15 2.18,-8.77 8.92,-13.98 16.76,-17.64 16.81,-7.85 35.08,-13.4 52.62,-19.35 17.95,-6.1 36.02,-11.85 54.2,-17.25 45.16,-13.42 90.95,-24.59 137.18,-33.52 -5.38,6.84 -8.13,14.85 -10.09,23.65 -3,13.51 -5.21,27.24 -6.94,40.96 -1.67,13.15 -2.94,26.38 -3.43,39.63 -0.47,12.26 0.01,25.12 4.52,36.66 -57.52,44.27 -114.14,89.71 -169.85,136.23 -63.92,53.37 -126.5,108.28 -188.14,164.27 -6.17,5.6 -12.3,11.26 -18.45,16.89 -15.47,-32.69 -21.13,-68.76 -24.98,-104.46 -4.07,-37.75 -6.39,-75.68 -6.97,-113.64 -0.28,-18.75 -0.67,-37.5 2.79,-55.95 34.16,-21.99 69.82,-41.54 106.81,-58.37zm320.38 -126.92c5.62,-1.06 11.25,-2.07 16.88,-3.07 -14.65,39.44 -25.13,84.12 -12.98,125.42 -0.4,0.3 -0.8,0.6 -1.2,0.9 -6.54,4.97 -13.02,10.04 -19.54,15.05 -4.85,-23.86 -2.78,-48.21 0.11,-72.29 1.43,-11.86 3.28,-23.67 5.57,-35.39 2.04,-10.47 4.52,-21.96 11.16,-30.62zm207.45 -31.11c-78.56,4.26 -156.9,14.56 -233.87,30.85 -38.56,8.15 -76.83,17.69 -114.65,28.77 -19.26,5.65 -38.41,11.68 -57.43,18.11 -17.51,5.92 -35.47,11.53 -52.46,18.85 -7.37,3.18 -14.54,7.54 -18.6,14.72 -3.91,6.91 -4.69,14.98 -5.23,22.75 -1.46,20.72 -2.2,41.5 -2.68,62.27 -15.39,-12.47 -28.23,-27.72 -38.51,-44.66 -1.1,-1.82 -3.12,-2.06 -4.93,-1.28 -43.05,18.5 -84.6,40.84 -123.45,67.06 -37.3,25.16 -73.96,53.14 -104.81,86.03 -29.11,31.06 -51,67.47 -61.9,108.79 -10.66,40.4 -11.36,83.14 -2.47,123.93 9.25,42.46 28.48,81.83 54.86,116.07 -42.82,49.79 -81.54,103.4 -112.37,161.41 -4.28,8.05 -8.4,16.19 -12.37,24.4 -2.67,5.5 5.67,10.2 8.33,4.66 31.88,-66.56 74.23,-127.4 121.89,-183.57 2.67,3.28 5.38,6.53 8.19,9.71 0.21,0.23 0.44,0.37 0.67,0.5 15.94,20.41 41.8,31.55 67.66,32.87 18.19,0.91 36.36,-1.9 54.1,-5.68 18,-3.84 35.83,-8.5 53.41,-13.94 34.35,-10.64 67.85,-24.44 99.21,-42.1 15.58,-8.78 30.63,-18.54 44.92,-29.32 12.99,-9.8 27.6,-20.29 37.33,-33.5 19.79,-26.9 5.42,-59.37 -9.8,-85.27 22.21,3.23 44.67,5.56 67.01,7.22 11.9,0.88 21.41,-0.88 30.27,-9.26 7.83,-7.4 14.94,-15.73 22.25,-23.64 30.34,-32.86 59.79,-66.57 87.84,-101.43 55.64,-69.11 106.12,-142.81 145.9,-222.25 22.27,-44.48 41.24,-90.69 55.44,-138.37 0.69,-2.3 -1.39,-4.83 -3.75,-4.7z"/>
     </g>
    </g>
   </g>
  </g>
  <path class="fil6" d="M-0.35 0.9l3543 0 0 2362 -3543 0 0 -2362z"/>
 </g>
</svg>
