<?xml version="1.0" encoding="UTF-8"?>
<!DOCTYPE svg PUBLIC "-//W3C//DTD SVG 1.0//EN" "http://www.w3.org/TR/2001/REC-SVG-20010904/DTD/svg10.dtd">
<!-- Creator: CorelDRAW 2020 (64-Bit) -->
<svg xmlns="http://www.w3.org/2000/svg" xml:space="preserve" width="50px" height="50px" version="1.0" style="shape-rendering:geometricPrecision; text-rendering:geometricPrecision; image-rendering:optimizeQuality; fill-rule:evenodd; clip-rule:evenodd"
viewBox="0 0 50 50"
 xmlns:xlink="http://www.w3.org/1999/xlink"
 xmlns:xodm="http://www.corel.com/coreldraw/odm/2003">
 <defs>
  <style type="text/css">
   <![CDATA[
    .fil2 {fill:none}
    .fil0 {fill:#F2F2F2}
    .fil1 {fill:#A6DCEF;fill-rule:nonzero}
   ]]>
  </style>
   <clipPath id="id0">
    <path d="M0 0l50 0 0 50 -50 0 0 -50z"/>
   </clipPath>
 </defs>
 <g id="Layer_x0020_1">
  <metadata id="CorelCorpID_0Corel-Layer"/>
  <g>
  </g>
  <g style="clip-path:url(#id0)">
   <g>
    <circle class="fil0" cx="25" cy="25" r="25"/>
    <g id="_1962442398624">
     <g>
      <g>
       <g>
        <path class="fil1" d="M38.87 33.55c-0.6,-0.45 -1.46,-0.33 -1.91,0.28 -0.25,0.33 -0.52,0.66 -0.79,0.97 -0.51,0.57 -0.45,1.44 0.12,1.94 0.26,0.23 0.58,0.34 0.9,0.34 0.38,0 0.76,-0.15 1.03,-0.46 0.33,-0.37 0.64,-0.76 0.94,-1.15 0.45,-0.61 0.32,-1.47 -0.29,-1.92z"/>
        <path class="fil1" d="M41.17 27.12c-0.74,-0.16 -1.47,0.31 -1.63,1.05 -0.09,0.4 -0.2,0.81 -0.32,1.21 -0.22,0.72 0.18,1.49 0.9,1.71 0.14,0.04 0.27,0.06 0.41,0.06 0.58,0 1.13,-0.37 1.31,-0.96 0.14,-0.47 0.27,-0.96 0.38,-1.44 0.16,-0.74 -0.31,-1.47 -1.05,-1.63z"/>
        <path class="fil1" d="M32.28 37.94c-0.37,0.2 -0.74,0.39 -1.12,0.56 -0.69,0.32 -1,1.13 -0.69,1.82 0.23,0.5 0.73,0.8 1.25,0.8 0.19,0 0.38,-0.03 0.56,-0.12 0.45,-0.2 0.9,-0.43 1.33,-0.67 0.66,-0.37 0.9,-1.2 0.53,-1.86 -0.37,-0.66 -1.2,-0.9 -1.86,-0.53z"/>
        <path class="fil1" d="M23.63 14.03l0 10.4 -5.03 5.03c-0.53,0.54 -0.53,1.4 0,1.94 0.27,0.27 0.62,0.4 0.97,0.4 0.35,0 0.7,-0.13 0.97,-0.4l5.43 -5.43c0.26,-0.26 0.4,-0.61 0.4,-0.97l0 -10.97c0,-0.76 -0.61,-1.37 -1.37,-1.37 -0.76,0 -1.37,0.61 -1.37,1.37z"/>
        <path class="fil1" d="M41.18 10.4c-0.76,0 -1.37,0.61 -1.37,1.37l0 3.81c-3.19,-5.01 -8.77,-8.13 -14.81,-8.13 -4.69,0 -9.1,1.83 -12.41,5.14 -3.31,3.32 -5.14,7.72 -5.14,12.41 0,4.69 1.83,9.1 5.14,12.41 3.31,3.31 7.72,5.14 12.41,5.14 0.01,0 0.02,0 0.03,0 0.01,0 0.03,0 0.04,0 0.49,0 0.99,-0.02 1.48,-0.06 0.76,-0.06 1.32,-0.73 1.25,-1.48 -0.06,-0.76 -0.72,-1.32 -1.48,-1.25 -0.41,0.03 -0.83,0.05 -1.25,0.05 -0.01,0 -0.03,0 -0.04,0 -0.01,0 -0.02,0 -0.03,0 -8.17,0 -14.81,-6.64 -14.81,-14.81 0,-8.16 6.64,-14.81 14.81,-14.81 5.26,0 10.1,2.81 12.75,7.27l-3.77 0c-0.76,0 -1.37,0.61 -1.37,1.37 0,0.76 0.61,1.37 1.37,1.37l4.18 0c0.84,0 1.62,-0.23 2.28,-0.64 0.05,-0.02 0.09,-0.05 0.13,-0.08 1.19,-0.78 1.98,-2.13 1.98,-3.67l0 -4.04c0,-0.76 -0.61,-1.37 -1.37,-1.37z"/>
       </g>
      </g>
     </g>
     <g>
     </g>
     <g>
     </g>
     <g>
     </g>
     <g>
     </g>
     <g>
     </g>
     <g>
     </g>
     <g>
     </g>
     <g>
     </g>
     <g>
     </g>
     <g>
     </g>
     <g>
     </g>
     <g>
     </g>
     <g>
     </g>
     <g>
     </g>
     <g>
     </g>
    </g>
   </g>
  </g>
  <path class="fil2" d="M0 0l50 0 0 50 -50 0 0 -50z"/>
 </g>
</svg>
