<?xml version="1.0" encoding="UTF-8"?>
<!DOCTYPE svg PUBLIC "-//W3C//DTD SVG 1.0//EN" "http://www.w3.org/TR/2001/REC-SVG-20010904/DTD/svg10.dtd">
<!-- Creator: CorelDRAW 2020 (64-Bit) -->
<svg xmlns="http://www.w3.org/2000/svg" xml:space="preserve" width="5906px" height="1181px" version="1.0" style="shape-rendering:geometricPrecision; text-rendering:geometricPrecision; image-rendering:optimizeQuality; fill-rule:evenodd; clip-rule:evenodd"
viewBox="0 0 5906 1181.2"
 xmlns:xlink="http://www.w3.org/1999/xlink"
 xmlns:xodm="http://www.corel.com/coreldraw/odm/2003">
 <defs>
  <style type="text/css">
   <![CDATA[
    .fil2 {fill:none}
    .fil1 {fill:black}
    .fil0 {fill:black;fill-rule:nonzero}
   ]]>
  </style>
   <clipPath id="id0">
    <path d="M-0.24 0.45l5906 0 0 1181.2 -5906 0 0 -1181.2z"/>
   </clipPath>
 </defs>
 <g id="Layer_x0020_1">
  <metadata id="CorelCorpID_0Corel-Layer"/>
  <g>
  </g>
  <g style="clip-path:url(#id0)">
   <g>
    <g id="_1811355455488">
     <path class="fil0" d="M2822.6 582.53c47.02,-21.12 69.51,-59.28 69.51,-107.66 0,-74.28 -57.92,-130.83 -156.05,-130.83 -74.95,0 -134.24,44.29 -153.32,108.34l84.5 19.76c7.5,-23.17 27.94,-45.65 68.82,-45.65 41.57,0 67.46,21.12 67.46,59.96 0,47.02 -41.56,59.28 -77.68,59.28l-40.2 0 0 78.37 40.2 0c33.39,0 83.82,6.81 83.82,60.64 0,36.8 -21.81,69.51 -74.96,69.51 -54.51,0 -77.68,-25.21 -82.45,-46.34l-88.59 20.45c12.27,64.05 83.14,109.7 171.04,109.7 107.67,0 168.99,-64.05 168.99,-143.78 0,-57.92 -29.3,-94.03 -81.09,-111.75zm327.09 -238.49c-139.7,0 -191.48,120.61 -191.48,246.67 0,126.74 51.78,247.35 191.48,247.35 140.37,0 192.16,-120.61 192.16,-247.35 0,-126.06 -51.79,-246.67 -192.16,-246.67zm0 406.12c-77.01,0 -99.49,-81.77 -99.49,-159.45 0,-77 22.48,-158.77 99.49,-158.77 77.68,0 100.16,81.77 100.16,158.77 0,77.68 -22.48,159.45 -100.16,159.45z"/>
     <rect class="fil1" x="2350.34" y="-592.88" width="23.62" height="2362.4"/>
     <rect class="fil1" x="3531.54" y="-644.94" width="23.62" height="2362.4"/>
     <path class="fil0" d="M213.05 283.57l-56.33 37.92 7.58 12.46 46.59 -31.15 0 170.37 14.35 0 0 -189.6 -12.19 0z"/>
     <path id="1" class="fil0" d="M333.04 283.57l-56.34 37.92 7.59 12.46 46.59 -31.15 0 170.37 14.35 0 0 -189.6 -12.19 0z"/>
     <path id="2" class="fil0" d="M399.94 453.94c-6.23,0 -11.37,5.15 -11.37,11.38 0,6.23 5.14,11.37 11.37,11.37 6.23,0 11.38,-5.14 11.38,-11.37 0,-6.23 -5.15,-11.38 -11.38,-11.38z"/>
     <path id="3" class="fil0" d="M506.12 280.32c-49.3,0 -70.42,50.65 -70.42,98.05 0,47.67 21.12,98.32 70.42,98.32 49.02,0 70.15,-50.65 70.15,-98.32 0,-47.4 -21.13,-98.05 -70.15,-98.05zm0 181.75c-41.98,0 -56.07,-46.32 -56.07,-83.7 0,-37.38 14.09,-83.69 56.07,-83.69 41.71,0 55.79,46.31 55.79,83.69 0,37.38 -14.08,83.7 -55.79,83.7z"/>
     <path id="4" class="fil0" d="M673.78 280.32c-49.3,0 -70.42,50.65 -70.42,98.05 0,47.67 21.12,98.32 70.42,98.32 49.02,0 70.15,-50.65 70.15,-98.32 0,-47.4 -21.13,-98.05 -70.15,-98.05zm0 181.75c-41.98,0 -56.07,-46.32 -56.07,-83.7 0,-37.38 14.09,-83.69 56.07,-83.69 41.71,0 55.79,46.31 55.79,83.69 0,37.38 -14.08,83.7 -55.79,83.7z"/>
     <path id="5" class="fil0" d="M854.98 385.41l0 14.36 86.67 0 0 -14.36 -86.67 0z"/>
     <path id="6" class="fil0" d="M1106.33 283.57l-56.34 37.92 7.59 12.46 46.59 -31.15 0 170.37 14.35 0 0 -189.6 -12.19 0z"/>
     <path id="7" class="fil0" d="M1168.63 283.57l0 14.63 94.53 0 -72.32 174.97 15.71 0 73.13 -177.41 0 -12.19 -111.05 0z"/>
     <path id="8" class="fil0" d="M1297.83 453.94c-6.23,0 -11.38,5.15 -11.38,11.38 0,6.23 5.15,11.37 11.38,11.37 6.23,0 11.37,-5.14 11.37,-11.37 0,-6.23 -5.14,-11.38 -11.37,-11.38z"/>
     <path id="9" class="fil0" d="M1404 280.32c-49.29,0 -70.42,50.65 -70.42,98.05 0,47.67 21.13,98.32 70.42,98.32 49.03,0 70.16,-50.65 70.16,-98.32 0,-47.4 -21.13,-98.05 -70.16,-98.05zm0 181.75c-41.98,0 -56.06,-46.32 -56.06,-83.7 0,-37.38 14.08,-83.69 56.06,-83.69 41.72,0 55.8,46.31 55.8,83.69 0,37.38 -14.08,83.7 -55.8,83.7z"/>
     <path id="10" class="fil0" d="M1571.66 280.32c-49.29,0 -70.42,50.65 -70.42,98.05 0,47.67 21.13,98.32 70.42,98.32 49.03,0 70.15,-50.65 70.15,-98.32 0,-47.4 -21.12,-98.05 -70.15,-98.05zm0 181.75c-41.98,0 -56.06,-46.32 -56.06,-83.7 0,-37.38 14.08,-83.69 56.06,-83.69 41.72,0 55.8,46.31 55.8,83.69 0,37.38 -14.08,83.7 -55.8,83.7z"/>
     <path id="11" class="fil0" d="M1975.78 283.57l-55.26 165.22 -47.67 -165.22 -15.44 0 -47.67 165.22 -54.98 -165.22 -15.44 0 63.38 189.6 15.17 0 47.4 -163.32 47.13 163.32 15.44 0 63.11 -189.6 -15.17 0z"/>
     <path id="12" class="fil0" d="M2020.74 283.57l0 189.6 14.63 0 0 -189.6 -14.63 0z"/>
     <path id="13" class="fil0" d="M2167.27 373.22l0 -0.81c17.88,-7.04 28.17,-21.12 28.17,-39.81 0,-28.44 -21.4,-49.03 -56.34,-49.03l-60.4 0 0 189.6 64.47 0c34.94,0 62.02,-17.88 62.02,-52.54 0,-25.74 -15.44,-41.18 -37.92,-47.41zm-28.17 -75.02c26.82,0 41.99,14.08 41.99,34.4 0,20.58 -15.17,35.21 -41.99,35.21l-46.04 0 0 -69.61 46.04 0zm4.07 160.62l-50.11 0 0 -76.93 50.11 0c26.81,0 47.67,11.65 47.67,38.74 0,26.81 -20.86,38.19 -47.67,38.19z"/>
     <path class="fil0" d="M509.38 763.32c-5.71,6.13 -11.59,17.63 -17.71,34.55 -6.42,18 -9.67,32.46 -9.75,43.34 -0.08,8.08 1.96,11.95 6.12,11.75 4.55,-0.25 9.09,-2.71 13.59,-7.42 4.54,-4.67 8.62,-10.59 12.33,-17.75 3.71,-7.17 7.09,-14.34 10.13,-21.55 3.04,-7.2 6.08,-14.29 9.04,-21.25 2.96,-6.96 5.33,-11.79 7.13,-14.46 3.75,-2.29 6.79,-2.5 9.16,-0.66 2.38,1.83 2.63,4.41 0.75,7.75 -2.04,3.66 -4.62,12.21 -7.75,25.62 -3.12,13.42 -5.87,27.76 -8.25,42.97 -2.37,15.25 -3.33,29.29 -2.87,42.12 0.45,12.88 2.96,20.21 7.5,22.01 5.87,2.33 14.46,-4.63 25.75,-20.92 12.29,-17.63 24.13,-40.26 35.42,-67.84 12.71,-31.09 19.67,-56.34 20.88,-75.72 1.2,-18.71 -3.55,-28.16 -14.3,-28.33 -2.16,0 -3.33,-1.08 -3.41,-3.29 -0.09,-2.42 0.95,-4.3 3.04,-5.59 3.04,-1.96 6.5,-1.04 10.37,2.8 9.38,9.12 11.71,27.79 6.96,56.04 -2.58,15.29 -7,31.79 -13.21,49.5 -6.25,17.71 -14.08,35.13 -23.5,52.3 -9.46,17.17 -19.25,30.96 -29.42,41.38 -11,11.25 -19.71,13.71 -26.12,7.46 -1.96,-1.88 -3.5,-4.79 -4.59,-8.79 -1.12,-4 -1.71,-8.96 -1.79,-14.88 -0.08,-5.96 0,-11.75 0.25,-17.42 0.25,-5.67 0.83,-12.54 1.79,-20.63 0.92,-8.08 1.75,-14.75 2.5,-20 0.71,-5.25 1.71,-11.96 2.92,-20.08 1.21,-8.17 2.04,-13.67 2.46,-16.63 -7.67,15.09 -12.67,24.67 -15.05,28.84 -13.66,23.42 -25.33,33.21 -35.04,29.42 -4.88,-1.96 -7.92,-6.38 -9.13,-13.25 -1.25,-6.88 -0.87,-14.8 1.09,-23.71 1.96,-8.88 4.66,-18.01 8.17,-27.34 3.5,-9.29 7.54,-17.83 12.16,-25.5 4.59,-7.71 8.92,-13.3 13,-16.8 2.67,0.5 3.92,2.51 3.67,6.01 -0.17,2.83 -1.04,4.75 -2.58,5.7 -0.54,0.34 -1.13,0.42 -1.71,0.25z"/>
     <path id="1" class="fil0" d="M664.51 789.83c0.79,-0.17 1.37,-0.25 1.71,-0.25 2.12,0 3.7,0.7 4.83,2.12 1.08,1.46 1.62,3.42 1.62,5.92 0,5.21 -2.37,11.12 -7.08,17.79 -4.71,6.63 -11.46,12.21 -20.25,16.75 -0.83,2.46 -1.21,4.63 -1.21,6.5 0,4.13 1.96,6.21 5.96,6.21 4.87,0 11.79,-3.12 20.71,-9.33 8.92,-6.21 18.33,-14.84 28.25,-25.84 1.04,-1.12 2.21,-1.71 3.42,-1.71 1.12,0 2.12,0.5 3,1.42 0.83,0.96 1.25,2.04 1.25,3.38 0,1.62 -0.71,3.04 -2.17,4.25 -0.92,0.5 -3.75,2.71 -8.54,6.66 -4.83,3.96 -9.79,7.92 -14.92,11.92 -5.12,3.96 -10.83,7.67 -17.21,11.04 -6.33,3.38 -11.62,5.05 -15.87,5.05 -2.67,0 -4.96,-0.63 -6.84,-1.96 -4.12,-3 -6.21,-7.5 -6.21,-13.55 0,-5.75 1.75,-12.25 5.25,-19.45 3.5,-7.21 7.59,-13.34 12.25,-18.46 4.71,-5.09 8.71,-7.88 12.05,-8.46zm-13.55 30.16c3.42,-0.99 6.75,-4.08 10.05,-9.29 3.29,-5.21 4.96,-8.87 4.96,-11 0,-0.42 -0.13,-0.58 -0.38,-0.58 -0.17,0 -0.42,0.08 -0.71,0.33 -0.41,0.34 -1.29,1.29 -2.58,2.88 -1.29,1.58 -3.04,4.04 -5.25,7.37 -2.21,3.34 -4.21,6.8 -6.09,10.29z"/>
     <path id="2" class="fil0" d="M787.51 720.86c-6,4.46 -12.21,13.34 -18.59,26.59 -6.41,13.29 -12.16,28.58 -17.29,45.92 1.29,1.46 2.04,3.62 2.21,6.46 10.79,-19.75 22.04,-46.09 33.67,-78.97zm-45.63 87.63c0.17,-0.95 0.21,-1.62 0.21,-1.95 0,-1.96 -0.88,-2.92 -2.67,-2.92 -3.42,0 -7.92,2.75 -13.5,8.25 -5.54,5.5 -9.62,11.88 -12.13,19.21 -0.91,2.71 -1.33,4.54 -1.33,5.63 0,1.12 0.29,1.91 0.92,2.33 0.58,0.37 1.58,0.67 2.92,0.79 1.33,0.12 2.37,0.29 3.12,0.54 6.08,-2.79 12.25,-8.12 18.54,-16 1.63,-7 2.92,-12.29 3.92,-15.88zm-21.75 43.09c-1.71,0.92 -3.92,1.38 -6.59,1.38 -2.45,0 -4.37,-0.42 -5.75,-1.25 -3.25,-1.88 -4.87,-5.13 -4.87,-9.75 0,-7.09 3.33,-15.67 10,-25.72 6.67,-10.04 13.25,-16.87 19.67,-20.45 5.54,-3.09 10.04,-4.63 13.54,-4.63l0.75 0c6.5,-21.08 13.58,-39.54 21.29,-55.42 7.71,-15.88 14.21,-24.96 19.59,-27.21 0.08,-0.09 0.21,-0.13 0.37,-0.13 1.21,-0.41 2.34,-0.62 3.3,-0.62 1.95,0 3.58,0.66 4.87,1.96 1.54,1.54 2.33,3.87 2.33,6.96 0,1.95 -0.5,4.79 -1.45,8.54 -2.96,10.5 -10,26.67 -21.26,48.46 -11.25,21.83 -22.21,40.13 -32.96,54.96 -1.04,5.34 -3.04,14 -6,25.92 -2.91,11.92 -5.29,22.54 -7.17,31.8 -1.87,9.29 -2.83,16.66 -2.83,22.12 0,4.38 0.63,7.38 1.84,9 0.16,0.84 0.24,1.42 0.24,1.71 0,2.63 -1.24,4.33 -3.79,5.13 -0.79,0.16 -1.37,0.25 -1.7,0.25 -2.67,0 -4.38,-1.21 -5.13,-3.67 -0.42,-1.21 -0.62,-3.08 -0.62,-5.58 0,-6.71 2.66,-20.17 7.95,-40.42 5.3,-20.26 8.3,-32.26 9.05,-35.88 -5.88,6.83 -10.71,11 -14.55,12.54l-0.12 0z"/>
     <path id="3" class="fil0" d="M865.13 720.86c-6,4.46 -12.21,13.34 -18.58,26.59 -6.42,13.29 -12.17,28.58 -17.3,45.92 1.3,1.46 2.05,3.62 2.21,6.46 10.79,-19.75 22.05,-46.09 33.67,-78.97zm-45.63 87.63c0.17,-0.95 0.21,-1.62 0.21,-1.95 0,-1.96 -0.87,-2.92 -2.67,-2.92 -3.41,0 -7.91,2.75 -13.5,8.25 -5.54,5.5 -9.62,11.88 -12.12,19.21 -0.92,2.71 -1.34,4.54 -1.34,5.63 0,1.12 0.3,1.91 0.92,2.33 0.58,0.37 1.58,0.67 2.92,0.79 1.33,0.12 2.37,0.29 3.12,0.54 6.09,-2.79 12.25,-8.12 18.55,-16 1.62,-7 2.91,-12.29 3.91,-15.88zm-21.75 43.09c-1.71,0.92 -3.92,1.38 -6.58,1.38 -2.46,0 -4.38,-0.42 -5.75,-1.25 -3.25,-1.88 -4.88,-5.13 -4.88,-9.75 0,-7.09 3.34,-15.67 10,-25.72 6.67,-10.04 13.25,-16.87 19.67,-20.45 5.54,-3.09 10.04,-4.63 13.54,-4.63l0.75 0c6.5,-21.08 13.59,-39.54 21.3,-55.42 7.71,-15.88 14.21,-24.96 19.58,-27.21 0.08,-0.09 0.21,-0.13 0.38,-0.13 1.2,-0.41 2.33,-0.62 3.29,-0.62 1.96,0 3.58,0.66 4.87,1.96 1.55,1.54 2.34,3.87 2.34,6.96 0,1.95 -0.5,4.79 -1.46,8.54 -2.96,10.5 -10,26.67 -21.25,48.46 -11.25,21.83 -22.21,40.13 -32.96,54.96 -1.05,5.34 -3.05,14 -6,25.92 -2.92,11.92 -5.3,22.54 -7.17,31.8 -1.88,9.29 -2.83,16.66 -2.83,22.12 0,4.38 0.62,7.38 1.83,9 0.16,0.84 0.25,1.42 0.25,1.71 0,2.63 -1.25,4.33 -3.79,5.13 -0.8,0.16 -1.38,0.25 -1.71,0.25 -2.67,0 -4.38,-1.21 -5.13,-3.67 -0.41,-1.21 -0.62,-3.08 -0.62,-5.58 0,-6.71 2.66,-20.17 7.96,-40.42 5.29,-20.26 8.29,-32.26 9.04,-35.88 -5.88,6.83 -10.71,11 -14.54,12.54l-0.13 0z"/>
     <path id="4" class="fil0" d="M915.29 791.16c0.75,-1.38 1.71,-2.08 2.92,-2.08 1.71,0 3.42,0.95 5.04,2.87 1.63,1.92 2.42,3.92 2.42,6.04 0,1.09 -0.25,2.05 -0.71,2.92l-3.42 6.96c-2.29,4.58 -4.91,10 -7.87,16.33 -3,6.3 -5.21,11.17 -6.67,14.59 1.04,-1.42 3.33,-4.33 6.79,-8.88 3.46,-4.5 6.34,-8.21 8.71,-11.08 2.38,-2.92 5.17,-6.13 8.42,-9.67 3.25,-3.54 6.29,-6.21 9.08,-8.04 2.84,-1.84 5.38,-2.75 7.67,-2.75 1.46,0 2.71,0.37 3.75,1.08 2.54,1.71 4.33,4.34 5.46,7.84 1.08,3.5 1.67,6.79 1.71,9.96 0.04,3.12 0.5,5.91 1.46,8.41 0.91,2.46 2.54,3.75 4.83,3.84l0.46 0c7.08,0 15.25,-6.5 24.42,-19.55 1,-1.46 2.16,-2.16 3.54,-2.16 1.17,0 2.12,0.41 3,1.33 0.83,0.87 1.29,1.96 1.29,3.17 0,1.37 -0.62,2.62 -1.83,3.79 -14.75,13.42 -26.05,20.12 -33.96,20.12 -0.88,0 -1.54,-0.04 -1.96,-0.12 -2.84,-0.46 -4.96,-2.33 -6.34,-5.54 -1.37,-3.21 -2.08,-6.63 -2.12,-10.25 -0.04,-3.63 -0.21,-6.92 -0.54,-9.84 -0.34,-2.91 -1,-4.37 -1.96,-4.37 -1.17,0 -4.59,3.04 -10.25,9.12 -5.71,6.13 -11.75,12.8 -18.13,20.05 -6.42,7.25 -10.5,11.58 -12.29,13.04 -1.54,1.25 -3,1.83 -4.38,1.83 -3.08,0 -4.66,-2.96 -4.66,-8.91 0,-7.46 2.71,-18.05 8.08,-31.72 -9.29,16.51 -16.58,28.21 -21.92,35.13 -5.33,6.92 -10.46,10.38 -15.33,10.38 -2.34,0 -4.38,-0.79 -6.09,-2.42 -1.79,-1.54 -2.7,-4.08 -2.7,-7.58 0,-3.92 1.45,-10.25 4.41,-19.05 2.92,-8.79 4.54,-14.04 4.88,-15.75 0.5,-2.41 1.58,-4.37 3.29,-5.79 1.71,-1.42 3.5,-2.12 5.37,-2.12 1.38,0 2.55,0.41 3.46,1.33 0.96,0.87 1.42,2.17 1.42,3.79 0,1.63 -0.46,3.46 -1.33,5.5 -0.25,0.46 -1,2.08 -2.25,4.79 -1.3,2.75 -2.38,5.21 -3.29,7.46 -0.96,2.25 -2,4.84 -3.21,7.75 -1.17,2.92 -2.09,5.63 -2.71,8.13 -0.67,2.46 -1,4.54 -1,6.17 0,0.33 0.04,0.62 0.08,0.83 0.04,0.25 0.13,0.46 0.21,0.62 0.12,0.17 0.25,0.3 0.33,0.38 0.09,0.08 0.25,0.12 0.54,0.17 0.3,0.04 0.5,0.08 0.63,0.08 0.13,0 0.37,0 0.79,0 0.38,0 0.67,0 0.84,0 3,0 7.66,-4.58 13.91,-13.75 6.25,-9.17 12.21,-18.63 17.84,-28.46 5.62,-9.79 8.83,-14.96 9.62,-15.54l0.25 -0.38zm-32.96 -16c2.71,-9.5 6.25,-14.25 10.63,-14.25 2.04,0 3.83,0.96 5.37,2.96 1.54,2 2.34,4.08 2.34,6.29 0,1.87 -0.63,3.33 -1.84,4.42l-3.41 3.66c-2.3,2.42 -4.67,4.67 -7.09,6.71 -2.46,2.04 -4.33,3.04 -5.62,3.04 -1.38,0 -2.09,-1.16 -2.09,-3.54 0,-2.21 0.59,-5.29 1.71,-9.29z"/>
     <path id="5" class="fil0" d="M1034.92 793.87c-4.42,1.29 -9.04,4.87 -13.92,10.79 -4.92,5.88 -8.79,11.75 -11.67,17.59 -2.91,5.79 -4.33,9.91 -4.33,12.25 0,0.83 0.25,1.2 0.71,1.2 3.25,0 14.04,-11.87 32.38,-35.62 0.95,-3 2.58,-4.5 4.87,-4.5 1.29,0 2.46,0.7 3.46,2.12 1.04,1.42 1.58,3.46 1.67,6.17l0 2.92c0,3.33 -0.17,6.87 -0.42,10.62 -0.29,3.75 -0.46,5.88 -0.46,6.34 0,1.62 0.42,2.45 1.25,2.45 0.63,0 1.83,-0.54 3.54,-1.66 1.71,-1.09 4.63,-3 8.8,-5.71 4.12,-2.75 8.54,-5.42 13.16,-8 3.84,-2.21 7,-3.29 9.55,-3.29 2.75,0 4.12,1.2 4.12,3.66 0,1.29 -0.46,2.55 -1.33,3.75 -0.92,1.25 -2.04,2 -3.42,2.34 -3.08,0.66 -9.71,3.41 -19.79,8.25 -10.09,4.83 -15.59,7.91 -16.46,9.21 -0.42,0.66 -1,3.04 -1.71,7.12 -0.75,4.13 -1.83,9.17 -3.25,15.17 -1.42,5.96 -3.33,12.5 -5.75,19.63 -2.38,7.12 -6.04,14.83 -10.92,23.16 -4.87,8.3 -10.58,15.92 -17.08,22.92 -9.92,10.59 -20.63,18.8 -32.09,24.55 -11.5,5.79 -21.75,8.66 -30.79,8.66 -5.84,0 -10.5,-1.25 -13.92,-3.79 -3.42,-2.5 -5.13,-6.16 -5.13,-10.96 0,-4.79 1.84,-10.46 5.5,-16.92 3.67,-6.45 9.38,-13.95 17.17,-22.54 7.75,-8.54 18.59,-18.33 32.46,-29.33 13.88,-11.05 30.13,-22.63 48.76,-34.76 3.2,-2.04 5.29,-3.83 6.29,-5.41 1.04,-1.59 1.54,-3.59 1.54,-5.92 0,-0.75 -0.08,-2.04 -0.25,-3.96 -0.17,-1.92 -0.25,-3.5 -0.25,-4.71 -5.63,6.92 -11.58,13 -17.88,18.25 -6.29,5.25 -11.5,7.88 -15.58,7.88 -4.79,0 -7.17,-3.84 -7.17,-11.5 0,-5.21 2.13,-11.88 6.38,-20.09 4.29,-8.16 9.75,-15.5 16.42,-22 6.7,-6.54 12.83,-9.79 18.46,-9.79 2.75,0 5.25,0.83 7.45,2.46 0.8,0.25 1.21,1.16 1.21,2.79 0,2.04 -0.66,3.96 -2,5.79 -1.37,1.83 -3.25,2.75 -5.71,2.75 -0.16,0 -0.33,0 -0.58,-0.04 -0.25,-0.04 -0.42,-0.08 -0.5,-0.08l-2.79 -0.21zm-0.63 48.21c-3.33,1.04 -9,4.21 -16.96,9.5 -8,5.29 -16.83,11.84 -26.5,19.63 -9.71,7.75 -19.04,15.79 -28.08,24.08 -9.05,8.29 -16.59,16.55 -22.63,24.71 -6.08,8.21 -9.13,14.75 -9.13,19.75 0,4.46 2.59,7.59 7.71,9.38 1.88,0.67 4.13,1 6.71,1 9.84,0 21.67,-4.54 35.42,-13.58 13.75,-9 23.79,-17.88 30.13,-26.59 6.75,-9.29 12.25,-19.88 16.5,-31.75 4.21,-11.88 6.83,-23.63 7.79,-35.3l-0.96 -0.83z"/>
     <path id="6" class="fil0" d="M1249.13 713.03c0,-1.63 0.54,-2.92 1.62,-3.84 1.09,-0.95 2.38,-1.41 3.84,-1.41 1.41,0 2.62,0.41 3.66,1.29 1.09,0.83 1.63,2.04 1.71,3.58l0 1.96c8.38,-1.54 16.13,-2.29 23.21,-2.29 18.46,0 31.63,4.92 39.42,14.75 4.59,5.71 6.84,12 6.84,18.92 0,6.12 -1.84,12.58 -5.55,19.42 -3.71,6.83 -7.91,12.79 -12.62,17.83 -4.75,5.04 -9.96,9.88 -15.75,14.5 -10.42,8.34 -22.05,15.67 -34.8,22.05 -12.79,6.37 -25.21,10.96 -37.25,13.75 14.75,3 36.38,9.62 64.88,19.83 28.54,10.21 45.83,18.71 51.84,25.46 0.83,0.88 1.2,1.92 1.2,3.17 0,1.54 -0.62,2.96 -1.87,4.25 -1.25,1.33 -2.63,1.96 -4.08,1.96 -1.55,0 -2.67,-0.75 -3.3,-2.29 -1.95,-4.17 -7.87,-8.84 -17.71,-14 -9.83,-5.17 -21.25,-9.96 -34.17,-14.42 -12.95,-4.42 -25.16,-8.29 -36.62,-11.59 -11.5,-3.29 -21.21,-5.83 -29.17,-7.62 -6.46,15.79 -11.25,28.04 -14.42,36.75 -1.54,11.88 -3.29,20.92 -5.25,27.09 -0.58,1.71 -1.75,2.25 -3.54,1.58 -0.92,1.25 -2.13,1.83 -3.67,1.83 -1.38,0 -2.62,-0.5 -3.67,-1.45 -1.04,-0.96 -1.58,-2.25 -1.58,-3.8 0,-0.54 0.04,-0.96 0.12,-1.21 1.3,-7.16 5.92,-20.16 13.8,-39.08 0.58,-7.21 1,-15.92 1.33,-26.09l0 -0.12c-0.87,-0.34 -1.33,-1.21 -1.33,-2.59 0,-1.7 0.5,-3.33 1.46,-4.87 0.08,-6.29 -0.92,-12.13 -3.05,-17.54 -2.12,-5.38 -4.75,-9.88 -7.95,-13.46 -3.17,-3.59 -6.63,-7.05 -10.42,-10.34 -3.79,-3.29 -7.29,-6.04 -10.5,-8.29 -3.21,-2.25 -5.92,-4.58 -8.05,-7.08 -2.16,-2.5 -3.25,-4.84 -3.25,-7 0,-6.63 9.05,-14.17 27.17,-22.71 18.09,-8.55 40.84,-16.26 68.17,-23.09 0,-0.5 -0.12,-1.13 -0.37,-1.88 -0.25,-0.79 -0.33,-1.41 -0.33,-1.91zm-46.55 131.84c1.63,-3.75 2.88,-6.58 3.67,-8.54 -1.21,-0.25 -2.29,-0.5 -3.29,-0.71 -0.17,4.04 -0.3,7.13 -0.38,9.25zm0.5 -22.58c0.17,0.08 0.75,0.41 1.75,1 1.04,0.54 2,1.04 2.96,1.46 0.92,0.41 1.92,0.75 3,1.08 7.71,-17.92 13.59,-31.63 17.63,-41.21 4.04,-9.54 8.33,-20.67 12.87,-33.38 4.55,-12.71 7.3,-22.17 8.17,-28.46 -24.09,5.08 -45,11.46 -62.75,19.25 -17.71,7.75 -26.59,14.59 -26.59,20.46 0,1.79 0.79,3.63 2.37,5.46 1.59,1.87 3.63,3.75 6.17,5.62 2.5,1.88 5.29,3.92 8.38,6.05 3.04,2.16 6.12,4.66 9.21,7.46 3.08,2.79 5.87,5.83 8.41,9.08 2.5,3.25 4.55,7.17 6.09,11.67 1.58,4.5 2.33,9.33 2.33,14.46zm55.8 -101.18c-0.5,2.17 -1.13,4.67 -1.92,7.42 -0.75,2.79 -1.79,6.04 -3.08,9.83 -1.29,3.8 -2.46,7.13 -3.5,10.09 -1,2.91 -2.54,6.96 -4.59,12.12 -2,5.17 -3.58,9.17 -4.66,11.96 -1.13,2.84 -2.92,7.38 -5.46,13.67 -2.5,6.33 -4.25,10.67 -5.25,13.08 -0.96,2.42 -2.92,7.13 -5.8,14.21 -2.87,7.09 -4.7,11.55 -5.41,13.34 2.58,-0.17 5.37,-0.71 8.29,-1.58 7.42,-2.21 15.38,-5.21 23.92,-9.05 8.54,-3.83 17.17,-8.37 25.83,-13.66 8.67,-5.3 16.51,-10.88 23.55,-16.67 7.04,-5.84 12.79,-12.09 17.21,-18.75 4.46,-6.67 6.66,-13.05 6.66,-19.05 0,-5.37 -1.83,-10.5 -5.5,-15.37 -6.83,-8.96 -19.71,-13.42 -38.71,-13.42 -6.25,0 -13.46,0.58 -21.58,1.83z"/>
     <path id="7" class="fil0" d="M1357 789.83c0.79,-0.17 1.38,-0.25 1.71,-0.25 2.13,0 3.71,0.7 4.83,2.12 1.09,1.46 1.63,3.42 1.63,5.92 0,5.21 -2.38,11.12 -7.08,17.79 -4.71,6.63 -11.46,12.21 -20.26,16.75 -0.83,2.46 -1.2,4.63 -1.2,6.5 0,4.13 1.95,6.21 5.95,6.21 4.88,0 11.8,-3.12 20.71,-9.33 8.92,-6.21 18.34,-14.84 28.26,-25.84 1.04,-1.12 2.2,-1.71 3.41,-1.71 1.13,0 2.13,0.5 3,1.42 0.84,0.96 1.25,2.04 1.25,3.38 0,1.62 -0.7,3.04 -2.16,4.25 -0.92,0.5 -3.75,2.71 -8.55,6.66 -4.83,3.96 -9.79,7.92 -14.91,11.92 -5.13,3.96 -10.84,7.67 -17.21,11.04 -6.34,3.38 -11.63,5.05 -15.88,5.05 -2.67,0 -4.96,-0.63 -6.83,-1.96 -4.13,-3 -6.21,-7.5 -6.21,-13.55 0,-5.75 1.75,-12.25 5.25,-19.45 3.5,-7.21 7.58,-13.34 12.25,-18.46 4.71,-5.09 8.71,-7.88 12.04,-8.46zm-13.54 30.16c3.42,-0.99 6.75,-4.08 10.04,-9.29 3.29,-5.21 4.96,-8.87 4.96,-11 0,-0.42 -0.12,-0.58 -0.37,-0.58 -0.17,0 -0.42,0.08 -0.71,0.33 -0.42,0.34 -1.3,1.29 -2.59,2.88 -1.29,1.58 -3.04,4.04 -5.25,7.37 -2.21,3.34 -4.21,6.8 -6.08,10.29z"/>
     <path id="8" class="fil0" d="M1438.04 795.45c-0.58,-0.67 -1.41,-1 -2.46,-1 -2.62,0 -5.96,1.92 -10,5.75 -4.08,3.84 -7.71,8.5 -10.87,14.04 -3.17,5.55 -4.75,10.34 -4.75,14.42 0,4.96 2.54,8 7.66,9.13 1.79,0.42 3.88,0.62 6.25,0.62 15.55,0 31.59,-9.58 48.09,-28.71 1.29,-0.96 2.5,-1.46 3.54,-1.46 0.88,0 1.63,0.34 2.21,0.92 0.54,0.63 0.83,1.38 0.83,2.25 0,1.79 -0.91,3.38 -2.79,4.79 -22.87,19.92 -41.38,29.92 -55.54,29.92 -6.05,0 -10.38,-1.83 -13.09,-5.5 -1.79,-2.37 -2.66,-5.54 -2.66,-9.54 0,-7.33 2.62,-15.71 7.91,-25.13 5.3,-9.46 10.38,-15.62 15.3,-18.58 3.5,-2.09 6.75,-3.17 9.75,-3.17 2.75,0 5.21,0.96 7.33,2.83 0.71,-0.91 1.46,-1.83 2.25,-2.83 0.75,-0.96 1.42,-1.75 1.96,-2.33 0.5,-0.54 0.83,-0.92 0.92,-1.09 0.87,-1.2 1.95,-1.83 3.16,-1.83 1.29,0 2.42,0.67 3.42,1.96 0.96,1.29 1.46,2.75 1.46,4.37 0,1.59 -0.46,2.92 -1.34,4.05 -0.08,0.16 -1.7,1.87 -4.83,5.12 -3.12,3.25 -5.58,6.13 -7.33,8.63 -1.75,2.46 -2.63,4.5 -2.63,6.04 0,1.54 -0.25,2.38 -0.71,2.54 -0.25,0.08 -0.5,0.13 -0.75,0.13 -1.45,0 -3.08,-0.84 -4.83,-2.55 -1.75,-1.7 -2.58,-3.58 -2.58,-5.62 0,-0.83 0.12,-1.58 0.45,-2.33l4.67 -5.84z"/>
     <path id="9" class="fil0" d="M1509.29 789.83c0.79,-0.17 1.37,-0.25 1.71,-0.25 2.12,0 3.7,0.7 4.83,2.12 1.08,1.46 1.63,3.42 1.63,5.92 0,5.21 -2.38,11.12 -7.09,17.79 -4.71,6.63 -11.46,12.21 -20.25,16.75 -0.83,2.46 -1.21,4.63 -1.21,6.5 0,4.13 1.96,6.21 5.96,6.21 4.88,0 11.79,-3.12 20.71,-9.33 8.92,-6.21 18.33,-14.84 28.25,-25.84 1.04,-1.12 2.21,-1.71 3.42,-1.71 1.12,0 2.12,0.5 3,1.42 0.83,0.96 1.25,2.04 1.25,3.38 0,1.62 -0.71,3.04 -2.17,4.25 -0.91,0.5 -3.75,2.71 -8.54,6.66 -4.83,3.96 -9.79,7.92 -14.92,11.92 -5.12,3.96 -10.83,7.67 -17.21,11.04 -6.33,3.38 -11.62,5.05 -15.87,5.05 -2.67,0 -4.96,-0.63 -6.84,-1.96 -4.12,-3 -6.21,-7.5 -6.21,-13.55 0,-5.75 1.75,-12.25 5.25,-19.45 3.51,-7.21 7.59,-13.34 12.26,-18.46 4.7,-5.09 8.7,-7.88 12.04,-8.46zm-13.54 30.16c3.41,-0.99 6.75,-4.08 10.04,-9.29 3.29,-5.21 4.96,-8.87 4.96,-11 0,-0.42 -0.13,-0.58 -0.38,-0.58 -0.17,0 -0.41,0.08 -0.71,0.33 -0.41,0.34 -1.29,1.29 -2.58,2.88 -1.29,1.58 -3.04,4.04 -5.25,7.37 -2.21,3.34 -4.21,6.8 -6.08,10.29z"/>
     <path id="10" class="fil0" d="M1571.49 845.25c1.54,1.79 3.38,2.66 5.5,2.66 4,0 8.38,-2.54 13.13,-7.66 4.75,-5.13 8.29,-9.8 10.58,-14.05 -10.58,3.5 -17.58,6.17 -21,8.05 -6.12,3.41 -8.83,7.08 -8.21,11zm11.75 -65.67c1.46,0.25 2.59,0.87 3.42,1.87 0.79,1.04 1.21,2.17 1.21,3.5 0,3 -1.5,4.75 -4.5,5.25 -2.21,2.84 -4.54,6.25 -6.96,10.25 -2.21,4.21 -4.54,8.71 -6.96,13.42 11.96,-14.88 21.5,-23.96 28.67,-27.21 3.42,-1.63 6.92,-2.46 10.5,-2.46 5.13,0 8.21,1.92 9.29,5.75 0.71,2.42 1.09,5.13 1.09,8.04 0,5.71 -1.29,12.05 -3.92,19.05 13.67,-3.59 21.09,-6.17 22.21,-7.8 0.58,-0.83 1.29,-1.25 2.08,-1.25 0.75,0 1.38,0.3 1.96,0.8 0.59,0.54 0.88,1.16 0.88,1.91 0,0.63 -0.17,1.17 -0.5,1.59 -0.17,0.41 -0.54,0.83 -1.17,1.29 -0.62,0.41 -1.5,0.92 -2.62,1.37 -1.13,0.5 -2.3,0.96 -3.42,1.38 -1.13,0.37 -2.67,0.87 -4.63,1.46 -1.96,0.54 -3.66,1.04 -5.08,1.45 -1.42,0.42 -3.38,0.96 -5.92,1.67 -2.5,0.67 -4.5,1.21 -6,1.63 -4.12,9.04 -9.46,16.66 -16.04,22.96 -6.54,6.25 -12.96,9.37 -19.21,9.37 -1.38,0 -2.42,-0.08 -3.04,-0.21 -5.88,-1.08 -8.8,-3.91 -8.8,-8.54 0,-1.87 0.46,-3.96 1.46,-6.25 3.09,-7 15.21,-13.54 36.38,-19.67 5.46,-12.41 8.17,-21.16 8.17,-26.21 0,-2.04 -0.38,-3.91 -1.09,-5.62 -0.58,-0.75 -1.37,-1.13 -2.45,-1.13 -4.46,0 -12,5.46 -22.63,16.3 -10.63,10.87 -19.88,22.37 -27.79,34.5 -4.46,8.87 -9.92,21.33 -16.3,37.42 -6.37,16.08 -10.75,29 -13.12,38.75 1,1.71 1.46,4 1.46,6.84 0,4.33 -1.38,10.16 -4.13,17.58 -0.5,1.21 -1.33,2.21 -2.5,3 -1.21,0.79 -2.33,1.17 -3.5,1.17 -2.13,0 -3.17,-1.09 -3.17,-3.17 0,-0.58 0.04,-1.04 0.13,-1.38 -0.42,-11.12 6.87,-36.21 21.83,-75.17 -0.16,-1.41 -0.04,-2.58 0.38,-3.54 0.5,-1.33 1.83,-3.88 4.04,-7.71 6.75,-16.92 13.33,-32.13 19.71,-45.59 6.38,-13.46 10.79,-21.37 13.25,-23.75 2.21,-2.04 4.29,-3.04 6.33,-3.04 0.17,0 0.34,0 0.5,0.04 0.17,0.04 0.34,0.09 0.5,0.09z"/>
     <path id="11" class="fil0" d="M1698.45 709.99c0.88,-1 2,-1.46 3.3,-1.46 1.62,0 3.24,0.66 4.83,2.08 1.58,1.38 2.37,2.71 2.37,4 0,1.21 -0.79,2.09 -2.33,2.59 -3.5,0.87 -9.54,9.58 -18.17,26.12 34.34,-4.25 59.42,-6.37 75.3,-6.37 8,0 13.38,0.58 16.13,1.71 2.12,0.83 3.16,2.45 3.16,4.91 0,1.54 -0.46,2.96 -1.41,4.25 -0.92,1.29 -2,1.96 -3.21,1.96 -0.84,0 -1.67,-0.37 -2.59,-1.08 -3.87,-3.29 -13.66,-4.92 -29.29,-4.92 -16.42,0 -36.71,1.67 -60.8,5 -9.25,18.59 -17.91,40.42 -25.92,65.51 -8.04,25.12 -12.04,44.5 -12.04,58.17 0,2.37 0.13,4.46 0.38,6.25 2.58,-3.84 5.75,-9.13 9.5,-15.88 3.75,-6.75 7.12,-12.92 10.17,-18.5 3,-5.58 6.79,-11.63 11.33,-18.17 4.54,-6.58 9.25,-12.08 14.04,-16.54 1.38,-1.33 2.75,-1.96 4.17,-1.96 1.83,0 2.79,0.83 2.79,2.54 0,1.46 -0.92,2.8 -2.71,3.92 -5.12,3.42 -9.96,7.83 -14.5,13.25 -4.58,5.42 -8.42,10.96 -11.58,16.67 -3.21,5.67 -6,11.13 -8.46,16.33 -2.42,5.21 -4.63,10 -6.5,14.3 -1.92,4.33 -3.42,7.16 -4.46,8.54 -1.17,1.46 -2.54,2.21 -4.17,2.21 -2.29,0 -4.25,-1.29 -6,-3.92 -1.75,-2.58 -2.67,-6.67 -2.67,-12.21 0,-12.13 3.88,-29.34 11.59,-51.71 7.75,-22.34 16.83,-44.88 27.25,-67.67 -24,3.5 -41.63,7 -52.88,10.5 1.63,0.25 3.17,0.37 4.63,0.37 4.5,0 8.62,-1.16 12.46,-3.41 0.08,0 0.16,-0.05 0.25,-0.09 0.08,-0.04 0.16,-0.04 0.25,-0.04 1.21,0 2.21,0.29 3,0.92 0.75,0.58 1.16,1.29 1.16,2.12 0,0.88 -0.45,1.71 -1.37,2.5 -0.88,0.79 -2.5,1.46 -4.88,2.09 -2.33,0.58 -5.33,0.91 -8.91,0.91 -3.59,0 -7,-0.21 -10.26,-0.62 -1.54,0.08 -2.79,-0.29 -3.79,-1.09l-0.46 0c-1.62,0 -2.91,-0.54 -3.87,-1.66 -0.92,-1.09 -1.38,-2.38 -1.38,-3.84 0,-1.29 0.38,-2.45 1.21,-3.5 0.84,-1 2,-1.58 3.55,-1.75l3.29 -0.5c2.2,-0.33 5.33,-0.79 9.46,-1.46 4.12,-0.66 8.71,-1.33 13.75,-2.08 5.04,-0.71 10.91,-1.54 17.71,-2.42 6.75,-0.91 13.29,-1.75 19.62,-2.58 9.13,-19.63 15.13,-31.04 17.96,-34.29z"/>
     <path id="12" class="fil0" d="M1701.69 853.29c-1.79,-1.54 -2.66,-4.08 -2.66,-7.67 0,-3.83 1.54,-10.08 4.67,-18.75 3.16,-8.67 4.91,-13.92 5.33,-15.79 0.5,-2.46 1.58,-4.38 3.29,-5.79 1.71,-1.46 3.5,-2.17 5.38,-2.17 1.37,0 2.54,0.46 3.45,1.33 0.96,0.92 1.42,2.17 1.42,3.79 0,1.63 -0.46,3.46 -1.33,5.51 -0.34,0.75 -1.33,2.87 -3.04,6.45 -1.71,3.59 -3.25,6.84 -4.59,9.8 -1.37,2.91 -2.62,6.16 -3.79,9.71 -1.17,3.54 -1.79,6.29 -1.79,8.2 0,1.5 0.33,2.55 1,3.21 0.87,0.88 1.92,1.34 3.04,1.34 2.83,0 6.88,-3.46 12.09,-10.34 5.2,-6.87 10.08,-14 14.58,-21.33 4.54,-7.38 7.13,-11.25 7.75,-11.67 1.17,-0.67 2.25,-1 3.29,-1 1.25,0 2.29,0.33 3.13,1 0.87,0.62 1.29,1.5 1.29,2.54 0,1.54 -1.08,3.08 -3.17,4.54 -3.25,2.25 -6.96,5.84 -11.08,10.71 -4.09,4.92 -7.71,9.46 -10.79,13.71 -3.09,4.21 -6.38,8 -9.88,11.29 -3.5,3.3 -6.5,4.92 -9.04,4.92 -3.09,0 -5.92,-1.17 -8.55,-3.54zm19.17 -75.42c2.67,-9.55 6.21,-14.3 10.63,-14.3 2.04,0 3.83,1 5.37,3 1.55,2 2.3,4.09 2.3,6.3 0,1.95 -0.59,3.41 -1.8,4.37l-3.41 3.67c-2.29,2.46 -4.67,4.67 -7.09,6.71 -2.45,2.04 -4.33,3.04 -5.62,3.04 -1.38,0 -2.08,-1.17 -2.08,-3.54 0,-2.17 0.58,-5.29 1.7,-9.25z"/>
     <path id="13" class="fil0" d="M1822.61 780.66c-1.37,-2.84 -3.91,-4.25 -7.66,-4.25 -4.17,0 -8.96,1.5 -14.34,4.5 -5.42,3 -9.12,5.87 -11.08,8.54l2.46 3.42c0.66,2.46 0.95,5.12 0.95,8.04 0,6.38 -1.12,13.29 -3.46,20.79 -2.33,7.46 -5.54,13.96 -9.62,19.46 -4.13,5.5 -8.33,8.25 -12.67,8.25 -1.54,0 -3.21,-0.45 -5,-1.37 -4.87,-2.58 -7.33,-7.63 -7.33,-15.13 0,-6.91 1.87,-14.12 5.58,-21.67 3.71,-7.54 7.42,-12.08 11.17,-13.62 0.42,0.16 0.92,0.46 1.5,0.79 0.62,0.38 1.42,1.17 2.42,2.42 0.95,1.21 1.45,2.54 1.45,4 0,0.33 -0.08,0.91 -0.25,1.71 -3.25,3.04 -6.83,7.5 -10.7,13.45 -3.84,5.92 -5.8,11.05 -5.8,15.38 0,3.96 2.04,6.67 6.13,8.04 0.5,0.17 0.87,0.25 1.21,0.25 2.21,0 4.5,-1.58 6.83,-4.75 2.38,-3.21 4.38,-7.37 6,-12.58 1.63,-5.21 2.42,-10.42 2.42,-15.63 0,-6.21 -1.21,-11.66 -3.67,-16.5l-0.46 0c-1.08,-0.29 -1.87,-0.96 -2.46,-1.87 -0.58,-0.92 -0.66,-1.96 -0.37,-3.13 0.33,-1.04 0.96,-1.87 1.92,-2.42 0.91,-0.58 1.95,-0.7 3.08,-0.37 0.08,0 0.21,0 0.33,0.04 0.13,0.04 0.21,0.08 0.29,0.08 3.42,-3.58 8.71,-7.12 15.88,-10.58 7.17,-3.46 13.67,-5.17 19.54,-5.17 5.46,0 9.42,1.67 11.96,5 1.46,2.84 2.21,6.42 2.21,10.75 0,9.59 -4.04,24.13 -12.12,43.59 0.66,-0.83 1.79,-2.25 3.37,-4.29 1.59,-2.04 2.83,-3.63 3.71,-4.75 0.92,-1.13 2.17,-2.71 3.79,-4.63 1.63,-1.95 3,-3.54 4.09,-4.71 1.12,-1.2 2.41,-2.58 4,-4.2 1.54,-1.63 2.91,-2.92 4.12,-3.88 1.21,-0.92 2.54,-1.83 3.96,-2.79 1.46,-0.92 2.79,-1.63 4.04,-2 1.25,-0.42 2.5,-0.63 3.71,-0.63 1.71,0 3.33,0.5 4.79,1.46 2.5,1.71 4.34,4.34 5.42,7.84 1.08,3.5 1.67,6.79 1.71,9.91 0.04,3.17 0.54,5.96 1.46,8.46 0.95,2.46 2.54,3.75 4.83,3.84l0.5 0c6.92,0 15.04,-6.5 24.42,-19.55 0.96,-1.37 2.17,-2.08 3.67,-2.08 1.12,0 2.08,0.46 2.91,1.29 0.79,0.88 1.21,1.92 1.21,3.13 0,1.37 -0.58,2.62 -1.83,3.79 -14.88,13.42 -26.21,20.12 -33.92,20.12 -0.92,0 -1.54,-0.04 -1.96,-0.12 -2.83,-0.5 -4.96,-2.33 -6.33,-5.54 -1.42,-3.21 -2.13,-6.63 -2.17,-10.25 -0.04,-3.63 -0.21,-6.92 -0.54,-9.84 -0.34,-2.91 -0.96,-4.41 -1.96,-4.41 -1.13,0 -4.13,2.33 -8.96,6.91 -4.83,4.59 -10.13,9.8 -15.83,15.63 -5.67,5.83 -9.38,9.42 -11.09,10.79 -4.42,3.59 -7.58,5.38 -9.54,5.38 -1.79,0 -2.67,-1.34 -2.67,-4.04 0,-3.88 2.59,-13.34 7.75,-28.38 5.17,-15 7.75,-24.5 7.75,-28.5 0,-1.71 -0.25,-2.84 -0.75,-3.42z"/>
     <rect class="fil1" x="442.7" y="578.96" width="1476.5" height="23.62"/>
     <path class="fil0" d="M3847.12 460.38l0 -175.24 -14.63 0 0 189.6 102.66 0 0 -14.36 -88.03 0z"/>
     <path id="1" class="fil0" d="M4072.2 385.9c0,-32.23 -19.5,-51.73 -50.11,-51.73 -24.64,0 -40.08,11.1 -50.65,20.31l11.65 8.94c9.21,-7.04 20.59,-14.9 39,-14.9 27.09,0 35.76,18.42 35.76,37.38l0 9.21c-1.36,0 -2.98,-0.27 -4.34,-0.27 -39,0 -91.28,-0.54 -91.28,42.52 0,23.84 20.32,40.9 47.67,40.9 24.65,0 39.28,-12.19 47.95,-24.65l0 21.13 14.35 0 0 -88.84zm-62.3 77.73c-15.98,0 -32.77,-8.39 -32.77,-26.27 0,-30.88 44.42,-27.9 76.11,-27.9 1.63,0 2.98,0 4.61,0l0 23.84c-3.53,10.83 -17.07,30.33 -47.95,30.33z"/>
     <path id="2" class="fil0" d="M4182.71 334.17c-23.56,0 -42.52,11.37 -53.9,29.25l0 -26 -14.63 0 0 189.59 14.63 0 0 -78c11.38,17.6 30.34,29.25 53.9,29.25 39.82,0 68.53,-32.5 68.53,-72.05 0,-39.81 -28.71,-72.04 -68.53,-72.04zm0 129.46c-31.69,0 -53.9,-25.73 -53.9,-57.42 0,-31.69 22.21,-57.69 53.9,-57.69 31.69,0 54.17,26 54.17,57.69 0,31.69 -22.48,57.42 -54.17,57.42z"/>
     <path id="3" class="fil0" d="M4286.99 455.51c-6.23,0 -11.38,5.15 -11.38,11.37 0,6.23 5.15,11.38 11.38,11.38 6.23,0 11.38,-5.15 11.38,-11.38 0,-6.22 -5.15,-11.37 -11.38,-11.37z"/>
     <path id="4" class="fil0" d="M4391.81 372.9c-28.71,-7.59 -46.86,-15.17 -46.86,-38.19 0,-23.03 18.42,-38.46 39.82,-38.46 20.31,0 34.4,9.48 40.63,28.71l14.08 -3.52c-8.12,-25.46 -28.17,-39.55 -54.71,-39.55 -29.25,0 -54.44,21.94 -54.44,52.82 0,36.02 32.5,45.5 57.69,52.27 27.36,7.32 45.23,14.09 45.23,36.84 0,24.38 -18.69,39.81 -47.13,39.81 -28.44,0 -45.23,-17.6 -49.56,-33.04l-13.82 4.33c6.23,21.67 29.25,43.34 63.38,43.34 43.88,0 61.76,-29.25 61.76,-54.44 0,-34.94 -30.34,-43.88 -56.07,-50.92z"/>
     <path id="5" class="fil0" d="M4539.97 334.17c-39.01,0 -67.72,33.04 -67.72,72.04 0,39.55 30.88,72.05 70.43,72.05 23.29,0 42.79,-9.48 56.6,-26.54l-12.45 -7.86c-11.11,13 -26.01,19.77 -44.15,19.77 -28.99,0 -52.28,-21.93 -55.53,-50.1l118.09 0c2.44,-47.67 -26.81,-79.36 -65.27,-79.36zm0 14.35c26.27,0 47.13,20.32 50.38,50.38l-103.2 0c2.98,-27.9 24.11,-50.38 52.82,-50.38z"/>
     <path id="6" class="fil0" d="M4651.29 366.94l0 -29.52 -14.63 0 0 137.32 14.63 0 0 -69.88c0,-34.67 18.42,-53.9 48.75,-53.9l0 -16.79c-22.48,0 -39.27,14.35 -48.75,32.77z"/>
     <path id="7" class="fil0" d="M4797.28 334.17c-23.84,0 -42.8,11.37 -54.17,29.25l0 -78.28 -14.63 0 0 189.6 14.63 0 0 -25.73c11.37,17.6 30.33,29.25 54.17,29.25 39.54,0 68.53,-32.5 68.53,-72.05 0,-39.81 -28.99,-72.04 -68.53,-72.04zm0 129.46c-31.69,0 -54.17,-25.73 -54.17,-57.42 0,-31.69 22.48,-57.69 54.17,-57.69 31.69,0 53.9,26 53.9,57.69 0,31.69 -22.21,57.42 -53.9,57.42z"/>
     <path id="8" class="fil0" d="M4997.44 385.9c0,-32.23 -19.5,-51.73 -50.11,-51.73 -24.64,0 -40.08,11.1 -50.65,20.31l11.65 8.94c9.21,-7.04 20.58,-14.9 39,-14.9 27.09,0 35.76,18.42 35.76,37.38l0 9.21c-1.36,0 -2.98,-0.27 -4.34,-0.27 -39,0 -91.28,-0.54 -91.28,42.52 0,23.84 20.32,40.9 47.67,40.9 24.65,0 39.28,-12.19 47.95,-24.65l0 21.13 14.35 0 0 -88.84zm-62.3 77.73c-15.98,0 -32.77,-8.39 -32.77,-26.27 0,-30.88 44.42,-27.9 76.11,-27.9 1.63,0 2.98,0 4.61,0l0 23.84c-3.53,10.83 -17.07,30.33 -47.95,30.33z"/>
     <path id="9" class="fil0" d="M5151.02 337.42l0 27.35c-10.57,-18.69 -29.8,-30.6 -53.9,-30.6 -38.47,0 -68.53,30.06 -68.53,68.25 0,38.46 30.06,68.53 68.53,68.53 24.1,0 43.33,-12.19 53.9,-30.61l0 20.04c0,27.09 -16.53,54.72 -54.99,54.72 -20.04,0 -35.75,-6.5 -46.86,-20.32l-12.18 8.13c13.27,17.06 34.94,26.54 59.04,26.54 46.05,0 69.61,-34.13 69.61,-69.07l0 -122.96 -14.62 0zm-53.9 118.9c-30.61,0 -54.18,-23.29 -54.18,-53.9 0,-30.33 23.57,-53.9 54.18,-53.9 30.33,0 53.9,23.57 53.9,53.9 0,30.61 -23.57,53.9 -53.9,53.9z"/>
     <path id="10" class="fil0" d="M5306.76 337.42l0 81.25c0,18.69 -13.55,44.96 -45.24,44.96 -31.69,0 -40.62,-26.27 -40.62,-44.96l0 -81.25 -14.63 0 0 81.25c0,26.82 15.44,59.59 55.25,59.59 21.67,0 36.57,-10.83 45.24,-24.92l0 21.4 14.62 0 0 -137.32 -14.62 0z"/>
     <path id="11" class="fil0" d="M5421.87 334.17c-21.67,0 -36.57,10.56 -45.5,24.91l0 -21.66 -14.36 0 0 137.32 14.36 0 0 -80.99c0,-18.96 13.81,-45.23 45.5,-45.23 31.69,0 40.63,26.27 40.63,45.23l0 80.99 14.35 0 0 -80.99c0,-26.81 -15.43,-59.58 -54.98,-59.58z"/>
     <path id="12" class="fil0" d="M5617.97 385.9c0,-32.23 -19.5,-51.73 -50.11,-51.73 -24.65,0 -40.09,11.1 -50.65,20.31l11.65 8.94c9.21,-7.04 20.58,-14.9 39,-14.9 27.09,0 35.75,18.42 35.75,37.38l0 9.21c-1.35,0 -2.98,-0.27 -4.33,-0.27 -39,0 -91.28,-0.54 -91.28,42.52 0,23.84 20.32,40.9 47.67,40.9 24.65,0 39.28,-12.19 47.94,-24.65l0 21.13 14.36 0 0 -88.84zm-62.3 77.73c-15.98,0 -32.77,-8.39 -32.77,-26.27 0,-30.88 44.42,-27.9 76.11,-27.9 1.62,0 2.98,0 4.6,0l0 23.84c-3.52,10.83 -17.06,30.33 -47.94,30.33z"/>
     <rect class="fil1" x="3986.3" y="579.24" width="1476.5" height="23.62"/>
     <path class="fil0" d="M4549.1 743.92c0.09,0 0.21,-0.08 0.42,-0.25 0.21,-0.12 0.38,-0.21 0.42,-0.21l0.75 0c1.54,0 2.79,0.46 3.71,1.38 0.96,0.96 1.41,2.12 1.41,3.5 0,2.92 -1.58,4.96 -4.75,6.08 -5.2,1.71 -10.5,7.42 -15.83,17.09 -5.34,9.71 -10.21,21.42 -14.71,35.17 6.13,-1.55 13.21,-5.38 21.33,-11.46 8.09,-6.13 15.59,-13 22.51,-20.71 6.91,-7.67 12.79,-15.75 17.58,-24.21 4.79,-8.46 7.21,-15.59 7.21,-21.38 0,-6.75 -3.25,-11.08 -9.79,-12.96 -3.5,-1.04 -7.38,-1.58 -11.71,-1.58 -9.5,0 -19.75,2.54 -30.75,7.62 -11,5.13 -21.09,11.71 -30.34,19.88 -9.25,8.13 -16.96,17.88 -23.13,29.21 -6.21,11.38 -9.29,22.75 -9.29,34.13 0,15.21 5.5,29.42 16.5,42.58 1.29,1.67 3.21,3.71 5.79,6.25 2.55,2.51 4.26,4.21 5.05,5.13 3.12,-14.67 7.62,-31.29 13.58,-49.88 5.92,-18.58 12.21,-33.96 18.79,-46.09 -4.5,4.96 -7.58,10.34 -9.29,16.13 -0.33,1.38 -0.75,2.08 -1.21,2.08 -0.66,0 -1,-1.12 -1,-3.29 0,-4 1.21,-6.96 3.55,-8.91 3.41,-7.59 7.37,-13.59 11.83,-18.09 4.5,-4.46 8.29,-6.88 11.37,-7.21zm-7.7 55.67c12.87,1.09 23.37,3.75 31.58,8.09 8.17,4.29 13.04,9.5 14.59,15.62 0.41,1.63 0.58,3.63 0.58,5.96 0,9.79 -4.46,20.38 -13.42,31.8 -8.96,11.45 -19.21,21 -30.75,28.62 -3.25,1.88 -7.04,3.96 -11.38,6.25 -4.29,2.29 -10.41,5.05 -18.37,8.38 -7.92,3.29 -13.8,4.92 -17.63,4.92 -3.75,0 -5.62,-1.42 -5.62,-4.25 0,-0.75 0.12,-1.55 0.37,-2.34 0.75,-0.67 2.29,-1.29 4.71,-1.87 2.42,-0.63 5.29,-1.38 8.67,-2.21 3.37,-0.88 6.25,-1.75 8.62,-2.63 4.29,-1.7 8.21,-3.37 11.75,-4.96 3.55,-1.58 7.59,-3.58 12.09,-5.95 4.54,-2.42 8.5,-4.84 11.96,-7.21 3.46,-2.42 6.96,-5.25 10.46,-8.5 3.5,-3.25 6.37,-6.63 8.66,-10.09 2.29,-3.46 4.13,-7.33 5.63,-11.71 1.46,-4.33 2.17,-8.87 2.17,-13.58 0,-1.17 -0.09,-2.88 -0.21,-5.17 -0.75,-7.29 -3.38,-12.63 -7.96,-15.92 -4.54,-3.29 -10.21,-4.96 -16.96,-4.96 -8.79,0 -17.09,2.09 -24.92,6.26 -1.04,0.58 -2.17,0.83 -3.42,0.83 -1.62,0 -3.04,-0.34 -4.25,-1.09 -6.54,22.13 -9.79,39.22 -9.79,51.3 0,4.46 0.67,7.42 1.96,8.88 0.75,0.75 1.08,1.62 1.08,2.7 0,1.55 -0.91,2.59 -2.79,3.17 -0.96,1.38 -2.29,2.09 -3.92,2.09 -1.29,0 -2.41,-0.46 -3.33,-1.42 -0.96,-0.92 -1.42,-2.08 -1.42,-3.46 0,-0.08 0,-0.25 -0.04,-0.5 -0.04,-0.25 -0.08,-0.42 -0.08,-0.5 -0.54,-0.96 -0.84,-2 -0.84,-3.04 0,-0.09 0,-0.29 0.05,-0.67 0.04,-0.37 0.08,-0.67 0.08,-0.92 -0.67,-2.37 -1.83,-4.95 -3.5,-7.75 -1.67,-2.83 -3.21,-5.08 -4.58,-6.83 -1.38,-1.75 -3.42,-4.21 -6.09,-7.38 -13.04,-15.71 -19.54,-31.79 -19.54,-48.25 0,-8.54 1.79,-16.96 5.37,-25.33 3.59,-8.34 8.34,-15.88 14.21,-22.59 5.92,-6.71 12.67,-12.96 20.3,-18.71 7.58,-5.79 15.41,-10.63 23.5,-14.46 8.04,-3.87 16,-6.92 23.92,-9.13 7.87,-2.2 15.04,-3.29 21.46,-3.29 7.83,0 13.96,1.63 18.37,4.84 4.46,3.21 6.67,8.08 6.67,14.58 0,6.67 -1.92,13.92 -5.79,21.79 -3.88,7.84 -8.71,15.09 -14.46,21.72 -5.79,6.66 -12.04,12.58 -18.84,17.79 -6.75,5.21 -13.04,8.92 -18.91,11.08z"/>
     <path id="1" class="fil0" d="M4645.4 789.84c0.79,-0.17 1.37,-0.25 1.7,-0.25 2.13,0 3.71,0.71 4.84,2.13 1.08,1.45 1.62,3.41 1.62,5.91 0,5.21 -2.37,11.13 -7.08,17.8 -4.71,6.62 -11.46,12.21 -20.25,16.75 -0.84,2.46 -1.21,4.62 -1.21,6.5 0,4.12 1.96,6.21 5.96,6.21 4.87,0 11.79,-3.13 20.71,-9.34 8.92,-6.21 18.33,-14.83 28.25,-25.83 1.04,-1.13 2.21,-1.71 3.42,-1.71 1.12,0 2.12,0.5 3,1.42 0.83,0.95 1.25,2.04 1.25,3.37 0,1.63 -0.71,3.04 -2.17,4.25 -0.92,0.5 -3.75,2.71 -8.54,6.67 -4.84,3.96 -9.79,7.92 -14.92,11.92 -5.12,3.96 -10.83,7.66 -17.21,11.04 -6.33,3.37 -11.63,5.04 -15.88,5.04 -2.66,0 -4.96,-0.62 -6.83,-1.96 -4.13,-3 -6.21,-7.5 -6.21,-13.54 0,-5.75 1.75,-12.25 5.25,-19.46 3.5,-7.21 7.59,-13.33 12.25,-18.46 4.71,-5.08 8.71,-7.88 12.05,-8.46zm-13.55 30.17c3.42,-1 6.75,-4.08 10.05,-9.29 3.29,-5.21 4.95,-8.88 4.95,-11 0,-0.42 -0.12,-0.59 -0.37,-0.59 -0.17,0 -0.42,0.09 -0.71,0.34 -0.42,0.33 -1.29,1.29 -2.58,2.87 -1.29,1.59 -3.05,4.04 -5.25,7.38 -2.21,3.33 -4.21,6.79 -6.09,10.29z"/>
     <path id="2" class="fil0" d="M4676.85 869.68c0,-3.42 9.58,-30.5 28.71,-81.17 -2.13,-1 -3.21,-2.67 -3.21,-5 0,-2.13 0.96,-3.67 2.83,-4.67 1.05,0.33 2.71,-0.46 5,-2.29 10.92,-27.75 20.05,-47.71 27.46,-59.84 3.84,-6.25 7.46,-9.42 10.88,-9.42 0.63,0 1.08,0.04 1.33,0.13 1.8,0.42 3.25,1.66 4.38,3.79 0.5,0.83 0.75,1.92 0.75,3.29 0,7.25 -4.96,19.13 -14.88,35.67 -9.96,16.5 -18.58,28.21 -25.87,35.13 -15.34,39.17 -23.51,62 -24.55,68.5 0.71,-0.87 3.88,-6.66 9.5,-17.33 5.63,-10.67 8.96,-16.58 10,-17.83 0.17,-2.67 1.55,-4.34 4.05,-5 0.25,-0.09 1.79,-1.71 4.62,-4.88 2.88,-3.17 6.21,-6.58 10.08,-10.25 3.88,-3.67 7.05,-6 9.46,-6.96 1.71,-0.67 3.13,-1 4.3,-1 2.12,0 3.83,0.75 5.12,2.17 1.29,1.41 1.96,3.04 1.96,4.79 0,2.46 -1.08,4.17 -3.21,5.17 -1.75,0.7 -3.46,0.54 -5.12,-0.5 -0.3,-0.09 -0.8,-0.13 -1.46,-0.13 -5.46,0 -12.46,4.88 -21,14.63 0.25,0.5 0.33,0.79 0.25,0.87 -0.17,0.67 -0.25,1.38 -0.25,2.21 0,2.42 0.54,5.08 1.54,7.92 1,2.83 2.83,5.5 5.5,8 2.62,2.5 5.83,3.71 9.58,3.71 10.5,0 23.59,-9.71 39.3,-29.17 1.21,-1.54 2.54,-2.34 3.91,-2.34 0.88,0 1.67,0.38 2.34,1.13 0.62,0.71 0.96,1.63 0.96,2.67 0,1.33 -0.59,2.66 -1.71,4.04 -17.67,19.71 -32.59,29.54 -44.8,29.54 -10.33,0 -18.21,-6.66 -23.58,-20 -1.21,1.63 -5.67,9.63 -13.34,24.09 -7.71,14.46 -11.66,22.71 -11.92,24.71 -0.91,1.16 -1.91,1.71 -3.04,1.71 -1.41,0 -2.71,-0.75 -4,-2.3 -1.25,-1.54 -1.87,-2.83 -1.87,-3.79zm65.79 -142.22c-4.62,6.67 -10.04,16.5 -16.21,29.55 7.46,-11.01 12.88,-20.84 16.21,-29.55z"/>
     <path id="3" class="fil0" d="M4830.02 788.51c1.21,1.21 1.83,2.5 1.83,3.87 0,1.42 -0.58,2.59 -1.67,3.55 -1.08,0.99 -2.41,1.5 -3.95,1.5 -1.46,0 -2.75,-0.42 -3.92,-1.26 -0.63,-0.41 -1.25,-0.58 -1.83,-0.58 -2.84,0 -6.59,2.92 -11.21,8.84 -4.67,5.91 -8.67,12.08 -12.05,18.5 -3.37,6.41 -5.04,10.67 -5.04,12.71 0,0.54 0.13,0.83 0.46,0.83 0.25,0 0.67,-0.21 1.25,-0.62 3.58,-2.67 9.38,-9.13 17.38,-19.34 8,-10.21 12.16,-15.46 12.37,-15.67 1.09,-1.08 2.34,-1.58 3.79,-1.58 1.46,0 2.8,0.5 3.92,1.5 1.13,1.04 1.71,2.21 1.71,3.62 0,0.8 -0.17,1.55 -0.5,2.17 -4.88,10 -7.29,18.5 -7.29,25.42 0,4.46 0.87,6.71 2.66,6.71l0.25 0c4.13,-0.58 9.76,-3.42 16.84,-8.54 7.08,-5.13 12.88,-11.63 17.33,-19.42 0.92,-1.54 2,-2.34 3.3,-2.34 1,0 1.83,0.42 2.5,1.3 0.7,0.87 1.04,1.83 1.04,3 0,1.62 -0.54,3 -1.71,4.12 -3.58,3.67 -6.25,6.38 -8.04,8.09 -1.8,1.7 -4.8,4.37 -9.05,8 -4.25,3.62 -8.16,6.29 -11.79,8.04 -3.62,1.75 -6.92,2.62 -9.92,2.62 -1.16,0 -2.2,-0.12 -3.2,-0.37 -5.92,-1.63 -8.92,-5.96 -8.92,-13.04 0,-2.8 0.5,-6.25 1.5,-10.38 -0.33,0.38 -1.29,1.63 -2.88,3.67 -1.58,2 -2.79,3.5 -3.62,4.5 -0.79,0.96 -2.04,2.41 -3.71,4.33 -1.67,1.92 -3.13,3.42 -4.33,4.46 -1.21,1.04 -2.59,2.21 -4.17,3.42 -1.54,1.21 -3.04,2.08 -4.5,2.62 -1.46,0.54 -2.88,0.79 -4.29,0.79 -1.55,0 -2.96,-0.37 -4.25,-1.08 -3,-1.62 -4.5,-4.58 -4.5,-8.79 0,-5.46 2.2,-12 6.71,-19.67 4.45,-7.67 9.95,-14.33 16.54,-20.04 6.54,-5.67 12.37,-8.55 17.5,-8.55 2.92,0 5.42,1.05 7.46,3.09z"/>
     <path id="4" class="fil0" d="M4900.31 806.8c-0.92,0.67 -1.8,1 -2.71,1 -1.04,0 -1.88,-0.5 -2.42,-1.42 -0.58,-0.95 -0.87,-1.95 -0.87,-3 0,-1.04 0.25,-1.79 0.75,-2.2 2.41,-1.8 4.58,-4.21 6.5,-7.26 1.91,-3.04 2.87,-5.58 2.87,-7.62 0,-1.71 -0.67,-2.63 -2.08,-2.67l-0.34 0c-2.2,0 -5.79,1.75 -10.75,5.34 -3.33,2.46 -5,5.91 -5,10.37 0,1.63 0.21,3.59 0.67,5.84 0.46,2.2 0.92,4.2 1.38,5.95 0.49,1.76 1.24,4.21 2.29,7.38 1,3.21 1.75,5.71 2.25,7.58 13.66,-7.16 30.79,-13.25 51.38,-18.29 1,-0.17 1.66,-0.25 2.08,-0.25 2.54,0 3.79,1 3.79,3.04 0,0.96 -0.41,1.88 -1.29,2.75 -0.83,0.84 -2.04,1.46 -3.58,1.88 -15.38,0.33 -32.42,5.54 -51.05,15.62 1.63,6.75 2.46,13.21 2.46,19.3 0,19.62 -9.17,29.79 -27.5,30.54l-0.96 0c-0.96,0 -1.67,-0.08 -2.08,-0.25 -2.26,-0.75 -4.21,-2.37 -5.8,-4.96 -1.58,-2.54 -2.37,-5.58 -2.37,-9.08 0,-5.54 2.16,-11.46 6.54,-17.71 4.33,-6.25 11.33,-12.38 20.92,-18.29 -0.42,-1.42 -1.13,-3.59 -2.21,-6.63 -1.04,-3 -1.83,-5.29 -2.29,-6.88 -0.5,-1.58 -1,-3.58 -1.46,-6 -0.5,-2.37 -0.75,-4.58 -0.75,-6.5 0,-7.66 3.42,-14.58 10.25,-20.75 4,-3.66 7.96,-5.5 11.83,-5.5 0.17,0 0.38,0 0.63,0.04 0.25,0.05 0.46,0.09 0.62,0.09 4.3,0.46 6.46,3.25 6.46,8.29 0,5.71 -2.75,12.46 -8.16,20.25zm-29.55 63.13c0.54,0.08 1.34,0.13 2.29,0.13 5.55,0 9.51,-2.05 11.84,-6.13 2.37,-4.04 3.54,-9.17 3.54,-15.38 0,-4.87 -0.5,-9.33 -1.58,-13.29 -6.92,4.46 -12.38,9.25 -16.42,14.38 -4,5.16 -6.04,9.58 -6.04,13.33 0,3.67 2.12,5.96 6.37,6.96z"/>
     <path id="5" class="fil0" d="M4951.05 853.3c-1.79,-1.54 -2.67,-4.08 -2.67,-7.66 0,-3.84 1.55,-10.09 4.67,-18.75 3.17,-8.67 4.92,-13.92 5.33,-15.8 0.51,-2.46 1.59,-4.37 3.3,-5.79 1.71,-1.46 3.5,-2.17 5.37,-2.17 1.38,0 2.54,0.46 3.46,1.34 0.96,0.91 1.42,2.16 1.42,3.79 0,1.63 -0.46,3.46 -1.34,5.5 -0.33,0.75 -1.33,2.88 -3.04,6.46 -1.71,3.58 -3.25,6.83 -4.58,9.79 -1.38,2.92 -2.63,6.17 -3.79,9.71 -1.17,3.54 -1.79,6.29 -1.79,8.21 0,1.5 0.33,2.54 0.99,3.21 0.88,0.87 1.92,1.33 3.05,1.33 2.83,0 6.87,-3.46 12.08,-10.33 5.21,-6.88 10.09,-14 14.59,-21.34 4.54,-7.37 7.12,-11.25 7.75,-11.67 1.16,-0.66 2.25,-1 3.29,-1 1.25,0 2.29,0.34 3.12,1 0.88,0.63 1.29,1.51 1.29,2.55 0,1.54 -1.08,3.08 -3.16,4.54 -3.25,2.25 -6.96,5.83 -11.09,10.71 -4.08,4.91 -7.7,9.46 -10.79,13.71 -3.08,4.21 -6.37,8 -9.87,11.29 -3.5,3.29 -6.51,4.92 -9.05,4.92 -3.08,0 -5.91,-1.17 -8.54,-3.55zm19.17 -75.42c2.67,-9.54 6.21,-14.29 10.63,-14.29 2.04,0 3.83,1 5.37,3 1.54,2 2.29,4.08 2.29,6.29 0,1.96 -0.58,3.42 -1.79,4.38l-3.42 3.66c-2.29,2.46 -4.66,4.67 -7.08,6.71 -2.46,2.04 -4.33,3.05 -5.63,3.05 -1.37,0 -2.08,-1.17 -2.08,-3.55 0,-2.16 0.58,-5.29 1.71,-9.25z"/>
     <path class="fil0" d="M2883.77 59.49l-86.34 127.76 -86.63 -127.76 -15.46 0 0 204.18 15.46 0 0 -175.02 82.84 123.1 7.29 0 82.84 -123.1 0 175.02 15.46 0 0 -204.18 -15.46 0z"/>
     <path id="1" class="fil0" d="M3010.36 248.21l0 -82.55 87.8 0 0 -15.46 -87.8 0 0 -74.96 94.51 0 0 -15.75 -109.96 0 0 204.18 112.59 0 0 -15.46 -97.14 0z"/>
     <path id="2" class="fil0" d="M3194.42 59.49l0 204.18 15.75 0 0 -204.18 -15.75 0z"/>
     <path class="fil0" d="M2622.11 1107.73c12.83,-14 48.13,-55.71 51.04,-58.92 23.34,-28.29 42.3,-49 42.3,-77 0,-30.34 -21.29,-56.3 -53.96,-56.3 -30.05,0 -53.67,19.54 -60.09,51.34l15.46 2.91c4.67,-24.79 21.88,-38.79 44.63,-38.79 20.71,0 38.5,16.04 38.5,40.84 0,21.58 -17.21,41.12 -38.79,66.79 -2.92,3.5 -46.68,54.26 -60.09,69.13l0 15.46 120.76 0 0 -15.46 -99.76 0z"/>
     <path id="1" class="fil0" d="M2875.88 915.51c-53.09,0 -75.84,54.54 -75.84,105.59 0,51.34 22.75,105.88 75.84,105.88 52.8,0 75.55,-54.54 75.55,-105.88 0,-51.05 -22.75,-105.59 -75.55,-105.59zm0 195.72c-45.21,0 -60.38,-49.88 -60.38,-90.13 0,-40.25 15.17,-90.13 60.38,-90.13 44.92,0 60.09,49.88 60.09,90.13 0,40.25 -15.17,90.13 -60.09,90.13z"/>
     <path id="2" class="fil0" d="M3049.14 1107.73c12.84,-14 48.13,-55.71 51.05,-58.92 23.33,-28.29 42.29,-49 42.29,-77 0,-30.34 -21.29,-56.3 -53.96,-56.3 -30.04,0 -53.67,19.54 -60.09,51.34l15.46 2.91c4.67,-24.79 21.88,-38.79 44.63,-38.79 20.71,0 38.5,16.04 38.5,40.84 0,21.58 -17.21,41.12 -38.79,66.79 -2.92,3.5 -46.67,54.26 -60.09,69.13l0 15.46 120.76 0 0 -15.46 -99.76 0z"/>
     <path id="3" class="fil0" d="M3287.74 919.01l-60.67 40.84 8.17 13.41 50.17 -33.54 0 183.47 15.46 0 0 -204.18 -13.13 0z"/>
    </g>
   </g>
  </g>
  <path class="fil2" d="M-0.24 0.45l5906 0 0 1181.2 -5906 0 0 -1181.2z"/>
 </g>
</svg>
