<?xml version="1.0" encoding="UTF-8"?>
<!DOCTYPE svg PUBLIC "-//W3C//DTD SVG 1.0//EN" "http://www.w3.org/TR/2001/REC-SVG-20010904/DTD/svg10.dtd">
<!-- Creator: CorelDRAW 2020 (64-Bit) -->
<svg xmlns="http://www.w3.org/2000/svg" xml:space="preserve" width="5906px" height="1181px" version="1.0" style="shape-rendering:geometricPrecision; text-rendering:geometricPrecision; image-rendering:optimizeQuality; fill-rule:evenodd; clip-rule:evenodd"
viewBox="0 0 5906 1181.2"
 xmlns:xlink="http://www.w3.org/1999/xlink"
 xmlns:xodm="http://www.corel.com/coreldraw/odm/2003">
 <defs>
  <style type="text/css">
   <![CDATA[
    .fil2 {fill:none}
    .fil1 {fill:black}
    .fil0 {fill:black;fill-rule:nonzero}
   ]]>
  </style>
   <clipPath id="id0">
    <path d="M-0.24 0.45l5906 0 0 1181.2 -5906 0 0 -1181.2z"/>
   </clipPath>
 </defs>
 <g id="Layer_x0020_1">
  <metadata id="CorelCorpID_0Corel-Layer"/>
  <g>
  </g>
  <g style="clip-path:url(#id0)">
   <g>
    <g id="_2840560802640">
     <path class="fil0" d="M2822.6 582.53c47.02,-21.12 69.51,-59.28 69.51,-107.66 0,-74.28 -57.92,-130.83 -156.05,-130.83 -74.95,0 -134.24,44.29 -153.32,108.34l84.5 19.76c7.5,-23.17 27.94,-45.65 68.82,-45.65 41.57,0 67.46,21.12 67.46,59.96 0,47.02 -41.56,59.28 -77.68,59.28l-40.2 0 0 78.37 40.2 0c33.39,0 83.82,6.81 83.82,60.64 0,36.8 -21.81,69.51 -74.96,69.51 -54.51,0 -77.68,-25.21 -82.45,-46.34l-88.59 20.45c12.27,64.05 83.14,109.7 171.04,109.7 107.67,0 168.99,-64.05 168.99,-143.78 0,-57.92 -29.3,-94.03 -81.09,-111.75zm327.09 -238.49c-139.7,0 -191.48,120.61 -191.48,246.67 0,126.74 51.78,247.35 191.48,247.35 140.37,0 192.16,-120.61 192.16,-247.35 0,-126.06 -51.79,-246.67 -192.16,-246.67zm0 406.12c-77.01,0 -99.49,-81.77 -99.49,-159.45 0,-77 22.48,-158.77 99.49,-158.77 77.68,0 100.16,81.77 100.16,158.77 0,77.68 -22.48,159.45 -100.16,159.45z"/>
     <rect class="fil1" x="2350.34" y="-592.88" width="23.62" height="2362.4"/>
     <rect class="fil1" x="3531.54" y="-644.94" width="23.62" height="2362.4"/>
     <path class="fil0" d="M112.14 330.6c-2.6,-1 -4.75,-2.5 -6.45,-4.5 -1.7,-2 -2.55,-4.5 -2.55,-7.5 0,-3.2 0.8,-5.8 2.4,-7.8 1.6,-2 4.4,-3.8 8.4,-5.4l42.01 -18.31 5.7 0c4,0 7.2,1.2 9.6,3.6 2.4,2.4 3.6,5.6 3.6,9.61l0 171.61c-1.2,0.4 -2.8,0.85 -4.8,1.35 -2,0.5 -4.2,0.75 -6.6,0.75 -8.6,0 -12.9,-3.7 -12.9,-11.1l0 -150.31 -38.41 18z"/>
     <path id="1" class="fil0" d="M345.86 380.4c0,-13.4 -1.25,-24.8 -3.75,-34.2 -2.5,-9.4 -5.85,-17.1 -10.05,-23.1 -4.2,-6 -9.15,-10.35 -14.85,-13.05 -5.7,-2.7 -11.75,-4.05 -18.15,-4.05 -6.4,0 -12.4,1.45 -18,4.35 -5.6,2.9 -10.5,7.35 -14.7,13.35 -4.2,6 -7.55,13.7 -10.05,23.1 -2.51,9.4 -3.76,20.6 -3.76,33.6 0,24.2 4.06,42.71 12.16,55.51 8.1,12.8 19.55,19.2 34.35,19.2 15,0 26.55,-6.4 34.65,-19.2 8.1,-12.8 12.15,-31.31 12.15,-55.51zm-46.8 95.11c-10.6,0 -20.25,-1.95 -28.95,-5.85 -8.7,-3.9 -16.21,-9.8 -22.51,-17.7 -6.3,-7.9 -11.15,-17.8 -14.55,-29.7 -3.4,-11.91 -5.1,-25.86 -5.1,-41.86 0,-17.2 2,-31.8 6,-43.8 4,-12 9.3,-21.8 15.9,-29.4 6.61,-7.61 14.16,-13.1 22.66,-16.51 8.5,-3.4 17.35,-5.1 26.55,-5.1 9.2,0 18.1,1.75 26.7,5.25 8.6,3.5 16.2,9.05 22.8,16.66 6.6,7.6 11.9,17.4 15.9,29.4 4,12 6,26.5 6,43.5 0,16 -1.7,29.95 -5.1,41.86 -3.4,11.9 -8.25,21.8 -14.55,29.7 -6.3,7.9 -13.85,13.8 -22.65,17.7 -8.8,3.9 -18.5,5.85 -29.1,5.85z"/>
     <path id="2" class="fil0" d="M393.87 459.01c0,-4.8 1.45,-8.8 4.35,-12 2.9,-3.2 6.95,-4.8 12.15,-4.8 5.2,0 9.2,1.6 12,4.8 2.8,3.2 4.2,7.2 4.2,12 0,4.6 -1.4,8.5 -4.2,11.7 -2.8,3.2 -6.8,4.8 -12,4.8 -5.2,0 -9.25,-1.6 -12.15,-4.8 -2.9,-3.2 -4.35,-7.1 -4.35,-11.7z"/>
     <path id="3" class="fil0" d="M567.88 380.4c0,-13.4 -1.25,-24.8 -3.75,-34.2 -2.5,-9.4 -5.85,-17.1 -10.05,-23.1 -4.2,-6 -9.15,-10.35 -14.85,-13.05 -5.7,-2.7 -11.75,-4.05 -18.15,-4.05 -6.4,0 -12.4,1.45 -18,4.35 -5.6,2.9 -10.51,7.35 -14.71,13.35 -4.2,6 -7.55,13.7 -10.05,23.1 -2.5,9.4 -3.75,20.6 -3.75,33.6 0,24.2 4.05,42.71 12.15,55.51 8.1,12.8 19.56,19.2 34.36,19.2 15,0 26.55,-6.4 34.65,-19.2 8.1,-12.8 12.15,-31.31 12.15,-55.51zm-46.8 95.11c-10.6,0 -20.25,-1.95 -28.96,-5.85 -8.7,-3.9 -16.2,-9.8 -22.5,-17.7 -6.3,-7.9 -11.15,-17.8 -14.55,-29.7 -3.4,-11.91 -5.1,-25.86 -5.1,-41.86 0,-17.2 2,-31.8 6,-43.8 4,-12 9.3,-21.8 15.9,-29.4 6.6,-7.61 14.15,-13.1 22.65,-16.51 8.51,-3.4 17.36,-5.1 26.56,-5.1 9.2,0 18.1,1.75 26.7,5.25 8.6,3.5 16.2,9.05 22.8,16.66 6.6,7.6 11.9,17.4 15.9,29.4 4,12 6,26.5 6,43.5 0,16 -1.7,29.95 -5.1,41.86 -3.4,11.9 -8.25,21.8 -14.55,29.7 -6.3,7.9 -13.85,13.8 -22.65,17.7 -8.8,3.9 -18.5,5.85 -29.1,5.85z"/>
     <path id="4" class="fil0" d="M748.8 380.4c0,-13.4 -1.25,-24.8 -3.75,-34.2 -2.51,-9.4 -5.86,-17.1 -10.06,-23.1 -4.2,-6 -9.15,-10.35 -14.85,-13.05 -5.7,-2.7 -11.75,-4.05 -18.15,-4.05 -6.4,0 -12.4,1.45 -18,4.35 -5.6,2.9 -10.5,7.35 -14.7,13.35 -4.2,6 -7.55,13.7 -10.05,23.1 -2.5,9.4 -3.75,20.6 -3.75,33.6 0,24.2 4.05,42.71 12.15,55.51 8.1,12.8 19.55,19.2 34.35,19.2 15,0 26.55,-6.4 34.65,-19.2 8.11,-12.8 12.16,-31.31 12.16,-55.51zm-46.81 95.11c-10.6,0 -20.25,-1.95 -28.95,-5.85 -8.7,-3.9 -16.2,-9.8 -22.5,-17.7 -6.3,-7.9 -11.15,-17.8 -14.55,-29.7 -3.4,-11.91 -5.1,-25.86 -5.1,-41.86 0,-17.2 2,-31.8 6,-43.8 4,-12 9.3,-21.8 15.9,-29.4 6.6,-7.61 14.15,-13.1 22.65,-16.51 8.5,-3.4 17.35,-5.1 26.55,-5.1 9.2,0 18.1,1.75 26.7,5.25 8.6,3.5 16.21,9.05 22.81,16.66 6.6,7.6 11.9,17.4 15.9,29.4 4,12 6,26.5 6,43.5 0,16 -1.7,29.95 -5.1,41.86 -3.4,11.9 -8.25,21.8 -14.55,29.7 -6.3,7.9 -13.85,13.8 -22.66,17.7 -8.8,3.9 -18.5,5.85 -29.1,5.85z"/>
     <path id="5" class="fil0" d="M879.91 403.2c-0.6,-1.4 -1.1,-2.85 -1.5,-4.35 -0.4,-1.5 -0.6,-3.25 -0.6,-5.25 0,-6.8 3.5,-10.2 10.5,-10.2l71.7 0c0.4,1.2 0.85,2.6 1.35,4.2 0.5,1.6 0.75,3.3 0.75,5.1 0,7 -3.5,10.5 -10.5,10.5l-71.7 0z"/>
     <path id="6" class="fil0" d="M1063.82 330.6c-2.6,-1 -4.75,-2.5 -6.45,-4.5 -1.7,-2 -2.55,-4.5 -2.55,-7.5 0,-3.2 0.8,-5.8 2.4,-7.8 1.6,-2 4.4,-3.8 8.4,-5.4l42.01 -18.31 5.7 0c4,0 7.2,1.2 9.6,3.6 2.4,2.4 3.6,5.6 3.6,9.61l0 171.61c-1.2,0.4 -2.8,0.85 -4.8,1.35 -2,0.5 -4.2,0.75 -6.6,0.75 -8.6,0 -12.91,-3.7 -12.91,-11.1l0 -150.31 -38.4 18z"/>
     <path id="7" class="fil0" d="M1178.43 330.6c-2.6,-1 -4.75,-2.5 -6.45,-4.5 -1.7,-2 -2.55,-4.5 -2.55,-7.5 0,-3.2 0.8,-5.8 2.4,-7.8 1.6,-2 4.4,-3.8 8.4,-5.4l42 -18.31 5.71 0c4,0 7.2,1.2 9.6,3.6 2.4,2.4 3.6,5.6 3.6,9.61l0 171.61c-1.2,0.4 -2.8,0.85 -4.8,1.35 -2,0.5 -4.2,0.75 -6.6,0.75 -8.6,0 -12.91,-3.7 -12.91,-11.1l0 -150.31 -38.4 18z"/>
     <path id="8" class="fil0" d="M1282.84 459.01c0,-4.8 1.45,-8.8 4.35,-12 2.9,-3.2 6.95,-4.8 12.15,-4.8 5.2,0 9.2,1.6 12,4.8 2.8,3.2 4.2,7.2 4.2,12 0,4.6 -1.4,8.5 -4.2,11.7 -2.8,3.2 -6.8,4.8 -12,4.8 -5.2,0 -9.25,-1.6 -12.15,-4.8 -2.9,-3.2 -4.35,-7.1 -4.35,-11.7z"/>
     <path id="9" class="fil0" d="M1456.85 380.4c0,-13.4 -1.25,-24.8 -3.75,-34.2 -2.5,-9.4 -5.85,-17.1 -10.05,-23.1 -4.2,-6 -9.15,-10.35 -14.85,-13.05 -5.7,-2.7 -11.75,-4.05 -18.15,-4.05 -6.4,0 -12.4,1.45 -18,4.35 -5.6,2.9 -10.5,7.35 -14.7,13.35 -4.2,6 -7.55,13.7 -10.05,23.1 -2.5,9.4 -3.75,20.6 -3.75,33.6 0,24.2 4.05,42.71 12.15,55.51 8.1,12.8 19.55,19.2 34.35,19.2 15,0 26.55,-6.4 34.65,-19.2 8.1,-12.8 12.15,-31.31 12.15,-55.51zm-46.8 95.11c-10.6,0 -20.25,-1.95 -28.95,-5.85 -8.7,-3.9 -16.2,-9.8 -22.5,-17.7 -6.3,-7.9 -11.15,-17.8 -14.56,-29.7 -3.4,-11.91 -5.1,-25.86 -5.1,-41.86 0,-17.2 2,-31.8 6.01,-43.8 4,-12 9.3,-21.8 15.9,-29.4 6.6,-7.61 14.15,-13.1 22.65,-16.51 8.5,-3.4 17.35,-5.1 26.55,-5.1 9.2,0 18.1,1.75 26.7,5.25 8.6,3.5 16.2,9.05 22.8,16.66 6.61,7.6 11.91,17.4 15.91,29.4 4,12 6,26.5 6,43.5 0,16 -1.7,29.95 -5.1,41.86 -3.4,11.9 -8.25,21.8 -14.56,29.7 -6.3,7.9 -13.85,13.8 -22.65,17.7 -8.8,3.9 -18.5,5.85 -29.1,5.85z"/>
     <path id="10" class="fil0" d="M1637.77 380.4c0,-13.4 -1.25,-24.8 -3.75,-34.2 -2.5,-9.4 -5.85,-17.1 -10.05,-23.1 -4.2,-6 -9.15,-10.35 -14.85,-13.05 -5.7,-2.7 -11.75,-4.05 -18.15,-4.05 -6.41,0 -12.41,1.45 -18.01,4.35 -5.6,2.9 -10.5,7.35 -14.7,13.35 -4.2,6 -7.55,13.7 -10.05,23.1 -2.5,9.4 -3.75,20.6 -3.75,33.6 0,24.2 4.05,42.71 12.15,55.51 8.1,12.8 19.55,19.2 34.36,19.2 15,0 26.55,-6.4 34.65,-19.2 8.1,-12.8 12.15,-31.31 12.15,-55.51zm-46.8 95.11c-10.61,0 -20.26,-1.95 -28.96,-5.85 -8.7,-3.9 -16.2,-9.8 -22.5,-17.7 -6.3,-7.9 -11.15,-17.8 -14.55,-29.7 -3.4,-11.91 -5.1,-25.86 -5.1,-41.86 0,-17.2 2,-31.8 6,-43.8 4,-12 9.3,-21.8 15.9,-29.4 6.6,-7.61 14.15,-13.1 22.65,-16.51 8.5,-3.4 17.36,-5.1 26.56,-5.1 9.2,0 18.1,1.75 26.7,5.25 8.6,3.5 16.2,9.05 22.8,16.66 6.6,7.6 11.9,17.4 15.9,29.4 4,12 6,26.5 6,43.5 0,16 -1.7,29.95 -5.1,41.86 -3.4,11.9 -8.25,21.8 -14.55,29.7 -6.3,7.9 -13.85,13.8 -22.65,17.7 -8.8,3.9 -18.5,5.85 -29.1,5.85z"/>
     <path id="11" class="fil0" d="M1858.29 334.5c1.6,-0.8 3.55,-1.5 5.85,-2.1 2.3,-0.6 4.85,-0.9 7.65,-0.9 8.4,0 13.5,2.6 15.3,7.8 3.6,10.8 7,21 10.2,30.6 3.2,9.6 6.3,18.85 9.3,27.75 3,8.9 5.9,17.66 8.7,26.26 2.8,8.6 5.6,17.5 8.4,26.7l1.2 0c2.8,-13.4 5.6,-26.55 8.4,-39.46 2.8,-12.9 5.5,-25.9 8.1,-39 2.6,-13.1 5.1,-26.4 7.5,-39.9 2.41,-13.5 4.7,-27.75 6.91,-42.76 2.8,-1.4 6.2,-2.1 10.2,-2.1 3.8,0 6.8,0.85 9,2.55 2.2,1.7 3.3,4.25 3.3,7.66 0,3.79 -0.55,9.6 -1.65,17.4 -1.1,7.8 -2.6,16.75 -4.5,26.85 -1.9,10.1 -4.1,21 -6.6,32.7 -2.5,11.7 -5.15,23.2 -7.95,34.5 -2.8,11.3 -5.6,22.16 -8.41,32.56 -2.8,10.4 -5.5,19.3 -8.1,26.7 -1.8,1 -4.1,1.95 -6.9,2.85 -2.8,0.9 -6,1.35 -9.6,1.35 -4.4,0 -8.1,-0.7 -11.1,-2.1 -3,-1.4 -5,-3.3 -6,-5.7 -2.2,-5.2 -4.7,-11.75 -7.5,-19.65 -2.8,-7.9 -5.75,-16.6 -8.85,-26.1 -3.1,-9.51 -6.25,-19.41 -9.45,-29.71 -3.2,-10.3 -6.3,-20.55 -9.3,-30.75 -3,10 -6.1,20.3 -9.3,30.9 -3.2,10.6 -6.35,20.85 -9.45,30.76 -3.1,9.9 -6.15,19.05 -9.15,27.45 -3,8.4 -5.7,15.4 -8.1,21 -1.6,1 -3.8,1.9 -6.6,2.7 -2.81,0.8 -6.01,1.2 -9.61,1.2 -4.6,0 -8.3,-0.75 -11.1,-2.25 -2.8,-1.5 -4.7,-3.35 -5.7,-5.55 -1.8,-4.2 -3.85,-10.2 -6.15,-18 -2.3,-7.8 -4.7,-16.65 -7.2,-26.55 -2.5,-9.91 -5.1,-20.56 -7.8,-31.96 -2.7,-11.4 -5.3,-22.75 -7.8,-34.05 -2.5,-11.3 -4.8,-22.2 -6.9,-32.7 -2.1,-10.5 -3.85,-19.95 -5.25,-28.36 1.4,-1.4 3.3,-2.7 5.7,-3.9 2.4,-1.2 5,-1.8 7.8,-1.8 7,0 11.2,3.7 12.6,11.11 2.6,12.6 5.1,24.75 7.5,36.45 2.4,11.7 4.85,23.6 7.35,35.7 2.5,12.1 5.15,24.65 7.95,37.65 2.8,13.01 5.9,27.11 9.3,42.31l1.2 0c2.81,-9 5.51,-17.55 8.11,-25.65 2.59,-8.11 5.3,-16.56 8.1,-25.36 2.8,-8.8 5.85,-18.4 9.15,-28.8 3.3,-10.4 7.05,-22.5 11.25,-36.3z"/>
     <path id="12" class="fil0" d="M2048.8 471.01c-1,0.4 -2.5,0.85 -4.5,1.35 -2,0.5 -4.2,0.75 -6.6,0.75 -8.8,0 -13.2,-3.7 -13.2,-11.1l0 -172.22c1,-0.4 2.55,-0.85 4.65,-1.35 2.1,-0.5 4.35,-0.75 6.75,-0.75 8.6,0 12.9,3.7 12.9,11.11l0 172.21z"/>
     <path id="13" class="fil0" d="M2236.92 335.1c0,8.6 -2.05,16.55 -6.15,23.85 -4.1,7.3 -10.95,12.95 -20.55,16.95 11.4,3.8 19.9,9.75 25.5,17.85 5.6,8.1 8.4,17.25 8.4,27.46 0,18.2 -6.55,31.7 -19.65,40.5 -13.1,8.8 -31.76,13.2 -55.96,13.2 -8.4,0 -16.55,-0.35 -24.45,-1.05 -7.9,-0.7 -15.45,-2.05 -22.65,-4.05 -8.4,-2.4 -12.6,-7 -12.6,-13.8l0 -153.61c0,-5.81 3.3,-9.61 9.9,-11.41 6.8,-2 14,-3.35 21.6,-4.05 7.6,-0.7 15.9,-1.05 24.9,-1.05 22.61,0 40.21,4 52.81,12.01 12.6,8 18.9,20.4 18.9,37.2zm-104.11 51.6l0 64.81c4.8,1 10.35,1.8 16.65,2.4 6.3,0.6 12.65,0.9 19.05,0.9 16.6,0 29.21,-2.75 37.81,-8.25 8.6,-5.5 12.9,-14.15 12.9,-25.95 0,-10.41 -3.85,-18.66 -11.55,-24.76 -7.7,-6.1 -19.06,-9.15 -34.06,-9.15l-40.8 0zm0 -19.8l40.8 0c12.6,0 22.16,-2.8 28.66,-8.4 6.5,-5.6 9.75,-13.2 9.75,-22.8 0,-19.8 -15.6,-29.7 -46.81,-29.7 -7,0 -13.05,0.25 -18.15,0.75 -5.1,0.5 -9.85,1.15 -14.25,1.95l0 58.2z"/>
     <path class="fil0" d="M491.78 839.87c0,9.31 4.65,13.96 13.96,13.96 12.5,0 27.57,-9.03 45.21,-27.08 15.98,-16.12 28.17,-32.54 36.57,-49.28 8.4,-16.74 12.6,-29.48 12.6,-38.23 0,-1.39 -0.14,-2.78 -0.41,-4.17 -3.06,0 -6.18,-1.59 -9.38,-4.79l0 0.21c-2.08,-1.67 -3.12,-3.37 -3.12,-5.11 0,-1.73 0.69,-3.16 2.08,-4.27 1.39,-1.11 3.19,-1.66 5.42,-1.66 2.22,0 3.78,0.86 4.68,2.6 0.91,1.74 2.05,3.3 3.44,4.69 1.39,1.39 2.02,2.36 1.88,2.92 0.83,1.25 2.11,1.87 3.85,1.87 1.74,0 3.72,-0.83 5.94,-2.5 2.22,-1.67 3.99,-2.5 5.31,-2.5 1.32,0 1.98,0.42 1.98,1.25 0,1.53 -1.32,2.99 -3.96,4.38 -1.39,1.11 -3.05,1.73 -5,1.87l-6.66 0c1.66,5.7 2.5,9.79 2.5,12.29 0,11.12 -5.32,25.56 -15.94,43.34 -10.63,17.78 -24.28,33.54 -40.94,47.3 -16.81,14.16 -32.05,21.25 -45.74,21.25 -13.68,0 -20.52,-6.67 -20.52,-20 0,-10.56 4.45,-25.63 13.33,-45.22l15.01 -32.71 -20.42 15.84c-6.39,5.28 -12.88,11.07 -19.48,17.39 -6.6,6.32 -18.09,19.35 -34.48,39.07l-24.17 29.59c-3.89,4.44 -7.37,6.66 -10.42,6.66 -2.36,0 -3.54,-1.52 -3.54,-4.58 0,-3.06 1.25,-7.01 3.75,-11.88l40.21 -57.92c24.31,-35.7 36.46,-58.34 36.46,-67.92 0,-5.28 -4.86,-7.92 -14.58,-7.92 -11.81,0 -28.27,7.23 -49.38,21.67 -11.39,7.78 -21.39,17.54 -30.01,29.27 -8.61,11.74 -12.91,21.46 -12.91,29.17 0,7.71 5.14,11.57 15.41,11.57 9.59,0 19.45,-4.45 29.59,-13.34 3.61,-3.05 5.69,-4.58 6.25,-4.58 0.56,0 0.76,0.48 0.63,1.46 -1.53,5.28 -7.19,10.31 -16.99,15.1 -9.79,4.8 -18.43,7.19 -25.93,7.19 -1.95,0 -3.27,-0.07 -3.96,-0.21l-0.21 0c-11.11,-2.36 -16.67,-7.85 -16.67,-16.46 0,-8.61 4.79,-18.96 14.38,-31.04 16.94,-21.39 38.75,-37.3 65.42,-47.71 13.75,-5.28 25.07,-7.92 33.96,-7.92 10.97,0 16.46,3.61 16.46,10.83 0,15 -18.89,47.58 -56.67,97.72 -12.64,16.81 -19.03,25.21 -19.17,25.21 0.42,0 7.67,-7.85 21.77,-23.54 14.1,-15.7 27.47,-29.1 40.11,-40.22 4.86,-4.3 13.27,-12.22 25.21,-23.75 6.25,-5.83 12.99,-11.11 20.21,-15.83 1.81,-1.11 4.41,-1.67 7.81,-1.67 3.41,0 5.73,0.97 6.98,2.92 -12.78,15.83 -23.92,33.58 -33.44,53.23 -9.51,19.66 -14.27,33.72 -14.27,42.19zm121.05 -105.84l0.21 0 -0.21 0z"/>
     <path id="1" class="fil0" d="M621.44 848.21c-1.53,0 -2.92,-0.21 -4.17,-0.63 -8.89,-2.5 -13.33,-7.5 -13.33,-15 0,-9.72 6.11,-20.97 18.33,-33.75 12.23,-12.78 23.2,-19.17 32.92,-19.17 3.2,0 5.8,0.87 7.81,2.6 2.02,1.74 3.03,3.86 3.03,6.36 0,7.78 -5.87,15.21 -17.61,22.29 -11.74,7.09 -21.29,10.63 -28.65,10.63 -1.11,0 -2.08,-0.14 -2.92,-0.42 -2.08,3.75 -3.12,7.71 -3.12,11.88 0,7.22 3.44,10.83 10.31,10.83 6.88,0 15.8,-4.65 26.78,-13.96 8.47,-6.8 15.69,-14.03 21.66,-21.67 1.25,-1.66 2.33,-2.5 3.23,-2.5 0.91,0 1.36,0.42 1.36,1.25 0,0.84 -0.56,2.02 -1.67,3.55 -7.5,9.86 -16.53,18.61 -27.08,26.25 -10.56,7.64 -19.52,11.46 -26.88,11.46zm39.38 -60.01c0,-1.66 -1.77,-2.5 -5.32,-2.5 -3.54,0 -8.57,2.71 -15.1,8.13 -8.75,7.22 -15.56,14.79 -20.42,22.71 0.83,0.28 1.74,0.41 2.71,0.41 5.28,0 12.33,-2.81 21.15,-8.43 8.82,-5.63 14.34,-11.78 16.56,-18.44 0.28,-0.7 0.42,-1.32 0.42,-1.88z"/>
     <path id="2" class="fil0" d="M747.35 782.37c15.55,-25.28 26.39,-37.92 32.5,-37.92 0.97,0 2.32,0.31 4.06,0.94 1.74,0.62 2.61,1.56 2.61,2.81 0,0.69 -0.35,1.6 -1.05,2.71 -11.11,13.61 -19.37,23.82 -24.79,30.63 -16.39,20.69 -25.42,35.55 -27.09,44.58 -0.41,1.95 -0.62,3.89 -0.62,5.84 0,6.25 2.57,9.37 7.71,9.37 10.28,0 23.68,-9.51 40.21,-28.54 1.39,-1.39 2.57,-2.19 3.54,-2.4 0.97,-0.21 1.46,0.04 1.46,0.73 0,0.7 -0.42,1.53 -1.25,2.5 -16.11,19.31 -30.42,30.07 -42.92,32.3 -0.69,0.13 -1.67,0.2 -2.92,0.2 -4.3,0 -7.53,-1.49 -9.69,-4.48 -2.15,-2.98 -3.22,-6.21 -3.22,-9.68 0,-3.89 0.76,-8.2 2.29,-12.92l-16.88 16.87c-7.64,7.09 -13.65,10.63 -18.02,10.63 -4.38,0 -8.02,-1.18 -10.94,-3.54 -3.47,-2.64 -5.21,-6.32 -5.21,-11.04 0,-10.14 7.08,-22.26 21.25,-36.36 14.17,-14.1 27.16,-21.15 38.96,-21.15 3.89,0 6.6,1.04 8.13,3.13 0.56,0.69 1.18,2.29 1.88,4.79zm-61.47 52.09c0,5 1.74,7.5 5.21,7.5 5.97,0 15.9,-8.2 29.8,-24.59 2.49,-2.92 10.83,-13.82 25,-32.71 -0.98,-1.67 -2.64,-2.5 -5,-2.5 -8.62,0 -19.94,6.56 -33.96,19.69 -14.03,13.12 -21.05,23.99 -21.05,32.61z"/>
     <path id="3" class="fil0" d="M859.08 782.37c15.56,-25.28 26.4,-37.92 32.51,-37.92 0.97,0 2.32,0.31 4.06,0.94 1.74,0.62 2.6,1.56 2.6,2.81 0,0.69 -0.34,1.6 -1.04,2.71 -11.11,13.61 -19.37,23.82 -24.79,30.63 -16.39,20.69 -25.42,35.55 -27.09,44.58 -0.41,1.95 -0.62,3.89 -0.62,5.84 0,6.25 2.57,9.37 7.71,9.37 10.28,0 23.68,-9.51 40.21,-28.54 1.39,-1.39 2.57,-2.19 3.54,-2.4 0.97,-0.21 1.46,0.04 1.46,0.73 0,0.7 -0.42,1.53 -1.25,2.5 -16.11,19.31 -30.42,30.07 -42.92,32.3 -0.7,0.13 -1.67,0.2 -2.92,0.2 -4.3,0 -7.53,-1.49 -9.69,-4.48 -2.15,-2.98 -3.23,-6.21 -3.23,-9.68 0,-3.89 0.77,-8.2 2.3,-12.92l-16.88 16.87c-7.64,7.09 -13.65,10.63 -18.02,10.63 -4.38,0 -8.02,-1.18 -10.94,-3.54 -3.47,-2.64 -5.21,-6.32 -5.21,-11.04 0,-10.14 7.08,-22.26 21.25,-36.36 14.17,-14.1 27.16,-21.15 38.96,-21.15 3.89,0 6.6,1.04 8.13,3.13 0.55,0.69 1.18,2.29 1.87,4.79zm-61.46 52.09c0,5 1.74,7.5 5.21,7.5 5.97,0 15.9,-8.2 29.79,-24.59 2.5,-2.92 10.84,-13.82 25.01,-32.71 -0.98,-1.67 -2.64,-2.5 -5,-2.5 -8.62,0 -19.94,6.56 -33.97,19.69 -14.02,13.12 -21.04,23.99 -21.04,32.61z"/>
     <path id="4" class="fil0" d="M947.49 760.49c2.08,0 4.06,0.66 5.94,1.98 1.87,1.32 2.81,2.88 2.81,4.69 0,1.8 -0.87,3.37 -2.61,4.69 -1.73,1.32 -3.64,1.98 -5.73,1.98 -2.08,0 -3.99,-0.77 -5.73,-2.3 -1.73,-1.52 -2.6,-3.26 -2.6,-5.21 0,-3.88 2.64,-5.83 7.92,-5.83zm-37.71 87.3c-7.09,0 -10.63,-4.58 -10.63,-13.75 0,-7.5 4.1,-17.88 12.29,-31.15 8.2,-13.26 14.8,-19.97 19.8,-20.11 1.39,0 2.95,0.56 4.69,1.67 1.73,1.11 2.6,2.22 2.6,3.33 -0.69,0.98 -1.53,2.05 -2.5,3.23 -0.97,1.19 -2.01,2.47 -3.13,3.86 -1.11,1.39 -2.64,3.37 -4.58,5.94 -1.95,2.57 -3.82,5.03 -5.63,7.39 -10.41,13.48 -15.62,22.75 -15.62,27.82 0,5.07 1.73,7.6 5.21,7.6 2.91,0 6.87,-1.59 11.87,-4.79 11.67,-7.22 20.91,-15.14 27.71,-23.75 2.5,-3.2 4.21,-4.79 5.11,-4.79 0.9,0 1.35,0.55 1.35,1.66 0,1.11 -1.6,3.34 -4.79,6.67 -3.19,3.33 -5.73,5.97 -7.6,7.92 -1.88,1.94 -3.16,3.23 -3.86,3.85 -0.69,0.63 -1.98,1.81 -3.85,3.54 -1.88,1.74 -3.3,2.96 -4.27,3.65 -0.98,0.7 -2.37,1.74 -4.17,3.13 -1.81,1.39 -3.41,2.39 -4.79,3.02 -1.39,0.62 -2.99,1.35 -4.8,2.19 -2.91,1.24 -6.39,1.87 -10.41,1.87z"/>
     <path id="5" class="fil0" d="M997.35 779.66c3.75,0 5.62,1.46 5.62,4.37 0,0.84 -0.21,1.67 -0.62,2.51 -12.5,17.36 -20,30.48 -22.5,39.37 32.36,-32.36 52.01,-48.54 58.96,-48.54 0.69,-0.14 1.32,-0.21 1.87,-0.21 3.89,0 5.84,1.74 5.84,5.21 0,0.69 -0.14,1.39 -0.42,2.08 -0.28,0.7 -3.05,4.45 -8.33,11.25 -6.11,7.23 -11.29,14.17 -15.53,20.84 -4.23,6.66 -6.35,12.22 -6.35,16.67 0,4.44 0.97,6.66 2.92,6.66 6.11,0 16.74,-8.4 31.87,-25.21 0.28,-0.28 0.77,-0.9 1.46,-1.87 2.09,-2.5 3.34,-3.75 3.75,-3.75 0.42,0 0.63,0.69 0.63,2.08 0,1.39 -0.97,3.19 -2.92,5.42 -17.22,19.58 -29.45,29.38 -36.67,29.38 -6.8,0 -10.21,-3.76 -10.21,-11.26 0,-7.5 2.78,-16.11 8.34,-25.83l13.33 -21.67c-9.44,6.95 -17.85,14.55 -25.21,22.81 -7.36,8.27 -14.06,16.29 -20.11,24.07 -6.04,7.78 -9.55,11.67 -10.52,11.67 -2.08,0 -3.71,-0.87 -4.89,-2.61 -1.18,-1.73 -1.77,-3.89 -1.77,-6.46 0,-2.57 0.9,-6 2.7,-10.31 1.81,-4.31 4.1,-9.51 6.88,-15.63l-12.5 13.13c-3.06,3.06 -4.97,4.58 -5.73,4.58 -0.76,0 -1.15,-0.45 -1.15,-1.35 0,-0.9 0.56,-1.91 1.67,-3.02 5.14,-5.14 9.58,-10.07 13.34,-14.8 3.61,-4.72 11.04,-13.75 22.29,-27.08 1.25,-1.67 2.57,-2.5 3.96,-2.5z"/>
     <path id="6" class="fil0" d="M1131.8 781.95l2.91 -0.62c1.81,0 3.23,0.55 4.27,1.66 1.05,1.11 1.57,1.98 1.57,2.61 0,0.62 -0.07,1.32 -0.21,2.08 -0.14,0.77 -2.15,4.27 -6.04,10.52 -4.86,8.48 -8.89,15.63 -12.09,21.46 -11.25,20.98 -19.86,35.35 -25.83,43.13 -12.78,16.95 -24.94,25.42 -36.46,25.42 -4.03,0 -7.54,-1.7 -10.53,-5.1 -2.98,-3.41 -4.55,-7.19 -4.68,-11.36 0.41,-1.67 1.04,-2.5 1.87,-2.5 0.42,0 0.77,0.49 1.04,1.46 0.7,3.61 2.02,6.39 3.96,8.33 1.95,1.95 3.89,2.92 5.83,2.92 7.92,0 16.4,-5.21 25.42,-15.63 5.98,-6.94 12.57,-17.08 19.8,-30.42l10.41 -20.62 -15.62 15.83c-10,9.59 -16.84,14.38 -20.52,14.38 -3.69,0 -7.19,-1.25 -10.53,-3.75 -3.75,-2.78 -5.62,-6.46 -5.62,-11.05 0,-10.13 7.12,-22.22 21.35,-36.25 14.24,-14.03 27.19,-21.04 38.86,-21.04 4.72,0 7.78,1.53 9.17,4.58 0.42,1.11 0.76,2.05 1.04,2.82 0.28,0.76 0.49,1.14 0.63,1.14zm-62.3 51.26c0,5 1.74,7.5 5.21,7.5 8.05,0 19.03,-8.82 32.92,-26.46l22.08 -30.42c-0.83,-1.95 -2.57,-2.92 -5.21,-2.92 -8.61,0 -19.93,6.63 -33.96,19.9 -14.03,13.26 -21.04,24.06 -21.04,32.4z"/>
     <path id="7" class="fil0" d="M1322.15 787.58c-8.34,0 -15.35,-1.91 -21.05,-5.73 -5.69,-3.82 -8.54,-8.65 -8.54,-14.48 0,-7.36 4.79,-14.73 14.38,-22.09 1.66,-1.25 2.91,-1.87 3.75,-1.87 0.83,0 1.25,0.27 1.25,0.83 0,1.39 -1.11,2.5 -3.34,3.33 -7.78,6.25 -11.66,12.57 -11.66,18.96 0,4.59 2.08,8.44 6.25,11.57 4.16,3.12 9.37,4.68 15.62,4.68 13.61,0 26.46,-6.52 38.55,-19.58 6.25,-6.81 9.37,-14.65 9.37,-23.54 0,-8.89 -3.33,-15.49 -10,-19.8 -5.55,-3.89 -13.05,-5.83 -22.5,-5.83 -13.61,0 -27.29,3.4 -41.05,10.21 -16.94,8.19 -32.25,20.94 -45.94,38.23 -13.68,17.29 -20.52,33.93 -20.52,49.9 0,12.64 4.31,22.4 12.92,29.27 8.61,6.88 19.31,10.32 32.08,10.32 14.59,0 28.9,-3.55 42.92,-10.63 10.7,-5.55 19.94,-12.64 27.72,-21.25 2.22,-2.5 3.96,-3.75 5.2,-3.75 0.84,0 1.25,0.73 1.25,2.19 0,1.45 -0.76,2.95 -2.29,4.48 -7.36,7.77 -17.98,15.28 -31.88,22.5 -17.08,9.03 -34.27,13.54 -51.56,13.54 -17.29,0 -30.18,-5.69 -38.65,-17.08 -5.7,-7.5 -8.54,-16.46 -8.54,-26.88 0,-4.58 0.55,-9.52 1.66,-14.79 3.75,-17.78 13.62,-35.08 29.59,-51.88 11.53,-12.09 25.21,-21.5 41.04,-28.23 15.84,-6.74 30.84,-10.11 45.01,-10.11 7.5,0 14.03,0.9 19.58,2.71 15.14,4.72 22.71,14.24 22.71,28.54 0,8.75 -2.57,16.32 -7.7,22.71 -12.78,15.7 -27.99,23.55 -45.63,23.55z"/>
     <path id="8" class="fil0" d="M1385.76 848.21c-1.53,0 -2.92,-0.21 -4.17,-0.63 -8.89,-2.5 -13.34,-7.5 -13.34,-15 0,-9.72 6.12,-20.97 18.34,-33.75 12.22,-12.78 23.19,-19.17 32.92,-19.17 3.19,0 5.8,0.87 7.81,2.6 2.02,1.74 3.02,3.86 3.02,6.36 0,7.78 -5.87,15.21 -17.6,22.29 -11.74,7.09 -21.29,10.63 -28.65,10.63 -1.11,0 -2.08,-0.14 -2.92,-0.42 -2.08,3.75 -3.12,7.71 -3.12,11.88 0,7.22 3.43,10.83 10.31,10.83 6.88,0 15.8,-4.65 26.77,-13.96 8.48,-6.8 15.7,-14.03 21.67,-21.67 1.25,-1.66 2.33,-2.5 3.23,-2.5 0.9,0 1.36,0.42 1.36,1.25 0,0.84 -0.56,2.02 -1.67,3.55 -7.5,9.86 -16.53,18.61 -27.09,26.25 -10.55,7.64 -19.51,11.46 -26.87,11.46zm39.37 -60.01c0,-1.66 -1.77,-2.5 -5.31,-2.5 -3.54,0 -8.58,2.71 -15.11,8.13 -8.75,7.22 -15.55,14.79 -20.41,22.71 0.83,0.28 1.73,0.41 2.71,0.41 5.27,0 12.32,-2.81 21.14,-8.43 8.82,-5.63 14.34,-11.78 16.57,-18.44 0.27,-0.7 0.41,-1.32 0.41,-1.88z"/>
     <path id="9" class="fil0" d="M1485.62 846.54c-10.42,0 -15.63,-5.76 -15.63,-17.29 0,-5.84 1.53,-12.23 4.59,-19.17 3.05,-6.95 6.38,-12.78 10,-17.5 -0.7,0.14 -1.6,0.21 -2.71,0.21 -3.34,0 -6.11,-2.37 -8.34,-7.09l-15.41 20c-8.62,10.7 -13.62,16.05 -15.01,16.05 -0.69,0 -1.04,-0.28 -1.04,-0.84 0,-1.39 1.18,-3.4 3.55,-6.04 12.08,-14.03 20.62,-25.9 25.62,-35.63 3.2,-12.08 7.22,-18.12 12.09,-18.12 3.19,0 4.79,1.38 4.79,4.16 0,2.78 -1.74,6.32 -5.21,10.63l-5 6.67c0,2.91 2.15,4.37 6.46,4.37 2.5,0 5.28,-0.9 8.33,-2.71l5.42 -3.33c0.28,-0.14 0.97,-0.21 2.08,-0.21 1.11,0 2.29,0.7 3.54,2.08 1.26,1.39 1.67,2.64 1.26,3.76l-14.38 18.12c-8.89,11.39 -13.34,20.38 -13.34,26.98 0,6.6 3.06,9.9 9.17,9.9 6.39,0 14.24,-3.4 23.55,-10.21 5.55,-4.03 10.62,-8.54 15.2,-13.54 4.31,-5 6.67,-7.5 7.09,-7.5 0.97,0 1.46,0.52 1.46,1.56 0,1.04 -0.63,2.26 -1.88,3.65l-6.67 7.5c-3.75,3.89 -7.91,7.64 -12.5,11.25 -10.97,8.19 -20,12.29 -27.08,12.29z"/>
     <path id="10" class="fil0" d="M1550.27 848.21c-1.53,0 -2.92,-0.21 -4.17,-0.63 -8.89,-2.5 -13.33,-7.5 -13.33,-15 0,-9.72 6.11,-20.97 18.33,-33.75 12.23,-12.78 23.2,-19.17 32.92,-19.17 3.2,0 5.8,0.87 7.81,2.6 2.02,1.74 3.03,3.86 3.03,6.36 0,7.78 -5.87,15.21 -17.61,22.29 -11.74,7.09 -21.29,10.63 -28.65,10.63 -1.11,0 -2.08,-0.14 -2.91,-0.42 -2.09,3.75 -3.13,7.71 -3.13,11.88 0,7.22 3.44,10.83 10.31,10.83 6.88,0 15.8,-4.65 26.78,-13.96 8.47,-6.8 15.69,-14.03 21.67,-21.67 1.24,-1.66 2.32,-2.5 3.22,-2.5 0.91,0 1.36,0.42 1.36,1.25 0,0.84 -0.56,2.02 -1.67,3.55 -7.5,9.86 -16.53,18.61 -27.08,26.25 -10.56,7.64 -19.52,11.46 -26.88,11.46zm39.38 -60.01c0,-1.66 -1.77,-2.5 -5.32,-2.5 -3.54,0 -8.57,2.71 -15.1,8.13 -8.75,7.22 -15.56,14.79 -20.42,22.71 0.83,0.28 1.74,0.41 2.71,0.41 5.28,0 12.33,-2.81 21.15,-8.43 8.82,-5.63 14.34,-11.78 16.56,-18.44 0.28,-0.7 0.42,-1.32 0.42,-1.88z"/>
     <path id="11" class="fil0" d="M1707.22 843c-9.44,0 -14.17,-4.38 -14.17,-13.13 0,-5 2.22,-11.84 6.67,-20.52 4.44,-8.68 9.1,-16.01 13.96,-21.98 -8.61,4.17 -18.54,11.7 -29.8,22.6 -11.25,10.91 -19.09,22.33 -23.54,34.28 -0.69,1.11 -1.87,1.67 -3.54,1.67 -3.33,0 -5,-1.88 -5,-5.63 1.39,-7.64 4.51,-16.39 9.37,-26.25 1.53,-3.2 6.05,-12.5 13.55,-27.92 -10.84,7.08 -20.04,14.69 -27.61,22.81 -7.57,8.13 -14.58,16.29 -21.04,24.48 -6.46,8.2 -10.11,12.3 -10.94,12.3 -1.81,0 -3.37,-0.84 -4.69,-2.5 -1.32,-1.67 -1.98,-3.34 -1.98,-5 0,-2.5 3.61,-11.67 10.84,-27.51l-12.51 13.13c-3.05,3.06 -4.96,4.58 -5.72,4.58 -0.77,0 -1.15,-0.45 -1.15,-1.35 0,-0.9 0.56,-1.91 1.67,-3.02 5.14,-5.14 9.72,-10.28 13.75,-15.42 4.03,-5.14 10.69,-14.31 20,-27.5 1.53,-2.09 3.68,-3.13 6.46,-3.13 2.78,0 4.17,1.32 4.17,3.96 0,0.97 -3.69,7.74 -11.05,20.32 -7.36,12.57 -11.46,20.45 -12.29,23.64 5.69,-6.25 14.24,-14.65 25.63,-25.21 17.08,-15.83 28.33,-23.75 33.75,-23.75 1.67,0 3.2,0.49 4.58,1.46 1.39,0.97 2.09,2.05 2.09,3.23 0,1.18 -2.71,6.42 -8.13,15.73 -5.28,9.58 -8.19,15.28 -8.75,17.08 15.42,-12.91 23.13,-19.44 23.13,-19.58 13.05,-10.14 22.43,-15.21 28.13,-15.21 1.66,0 3.22,0.52 4.68,1.56 1.46,1.04 2.19,2.26 2.19,3.65 0,0.28 -4.51,6.14 -13.54,17.6 -9.03,11.46 -14.1,20.87 -15.21,28.23 -0.28,2.51 0.21,4.38 1.46,5.63 1.25,1.25 3.5,1.88 6.77,1.88 3.26,0 8.05,-2.26 14.37,-6.78 6.32,-4.51 12.75,-10.59 19.28,-18.23 2.5,-2.77 4.2,-4.16 5.1,-4.16 0.9,0 1.36,0.34 1.36,1.04 0,0.97 -0.63,2.08 -1.88,3.33 -6.81,8.2 -14.13,15.18 -21.98,20.94 -7.85,5.77 -13.99,8.65 -18.44,8.65z"/>
     <path id="12" class="fil0" d="M1807.92 801.33c0,4.86 -4.66,12.98 -13.96,24.37 -10.98,13.48 -20.35,20.22 -28.13,20.22l-3.33 0c-3.62,0 -6.46,-1.88 -8.55,-5.63 -1.66,-2.64 -2.5,-5.56 -2.5,-8.75 0,-8.34 6.08,-20.04 18.23,-35.11 12.16,-15.07 21.98,-22.6 29.48,-22.6 7.09,0 10.63,3.75 10.63,11.25 0,1.94 -0.35,4.44 -1.04,7.5 0.14,0.41 1.46,0.62 3.96,0.62 2.5,0 6.32,-1.32 11.46,-3.96 -0.14,2.36 -5.63,5.77 -16.46,10.21 0.14,0.56 0.21,1.18 0.21,1.88zm-13.55 -10.84c-4.72,0 -11.42,5.56 -20.1,16.67 -8.68,11.11 -13.03,19.31 -13.03,24.59 0,5.28 1.67,7.91 5.01,7.91 5.97,0 13.54,-5.41 22.71,-16.25 9.16,-10.83 13.75,-18.61 13.75,-23.33 -2.23,-1.25 -5,-4.45 -8.34,-9.59z"/>
     <path id="13" class="fil0" d="M1860.07 779.66c3.75,0 5.62,1.46 5.62,4.37 0,0.84 -0.21,1.67 -0.62,2.51 -12.5,17.36 -20,30.48 -22.51,39.37 32.37,-32.36 52.02,-48.54 58.97,-48.54 0.69,-0.14 1.32,-0.21 1.87,-0.21 3.89,0 5.84,1.74 5.84,5.21 0,0.69 -0.14,1.39 -0.42,2.08 -0.28,0.7 -3.06,4.45 -8.33,11.25 -6.12,7.23 -11.29,14.17 -15.53,20.84 -4.23,6.66 -6.35,12.22 -6.35,16.67 0,4.44 0.97,6.66 2.92,6.66 6.11,0 16.73,-8.4 31.87,-25.21 0.28,-0.28 0.77,-0.9 1.46,-1.87 2.09,-2.5 3.34,-3.75 3.75,-3.75 0.42,0 0.63,0.69 0.63,2.08 0,1.39 -0.97,3.19 -2.92,5.42 -17.22,19.58 -29.45,29.38 -36.67,29.38 -6.81,0 -10.21,-3.76 -10.21,-11.26 0,-7.5 2.78,-16.11 8.34,-25.83l13.33 -21.67c-9.45,6.95 -17.85,14.55 -25.21,22.81 -7.36,8.27 -14.06,16.29 -20.11,24.07 -6.04,7.78 -9.55,11.67 -10.52,11.67 -2.08,0 -3.71,-0.87 -4.89,-2.61 -1.18,-1.73 -1.77,-3.89 -1.77,-6.46 0,-2.57 0.9,-6 2.7,-10.31 1.81,-4.31 4.1,-9.51 6.88,-15.63l-12.5 13.13c-3.06,3.06 -4.97,4.58 -5.73,4.58 -0.77,0 -1.15,-0.45 -1.15,-1.35 0,-0.9 0.56,-1.91 1.67,-3.02 5.14,-5.14 9.58,-10.07 13.33,-14.8 3.62,-4.72 11.05,-13.75 22.3,-27.08 1.25,-1.67 2.57,-2.5 3.96,-2.5z"/>
     <path id="14" class="fil0" d="M1913.26 869.67c6.67,8.33 12.43,12.5 17.29,12.5 7.92,0 16.46,-6.32 25.63,-18.96 6.67,-9.31 13.19,-21.05 19.58,-35.21l7.92 -19.17 -30.63 23.96c-9.44,7.36 -17.01,11.04 -22.71,11.04 -3.05,0 -5.48,-1.04 -7.29,-3.12 -1.8,-2.09 -2.71,-4.45 -2.71,-7.09 0,-5.97 5.14,-15.8 15.42,-29.48 10.28,-13.68 17.78,-20.52 22.5,-20.52 4.72,0 7.09,1.6 7.09,4.79 0,1.25 -6.15,8.44 -18.44,21.56 -12.3,13.13 -18.44,21.99 -18.44,26.57 0,1.8 1.18,2.71 3.54,2.71 4.44,0 13.37,-5.21 26.77,-15.63 13.41,-10.42 23.51,-19.03 30.32,-25.83 1.53,-1.81 3.68,-4.52 6.46,-8.13 2.64,-3.06 5.55,-4.58 8.75,-4.58 3.19,0 4.79,1.52 4.79,4.58 0,0.56 -3.13,5.49 -9.38,14.79 -6.25,9.31 -9.51,14.24 -9.79,14.8 -4.3,8.33 -10.9,20.48 -19.79,36.46 -13.48,21.67 -26.95,32.5 -40.42,32.5 -4.45,0 -8.34,-1.91 -11.67,-5.73 -3.33,-3.82 -4.93,-8.09 -4.79,-12.81z"/>
     <rect class="fil1" x="442.7" y="578.96" width="1476.5" height="23.62"/>
     <path class="fil0" d="M3784.73 474.48c-3.8,0 -6.95,-1.2 -9.45,-3.6 -2.5,-2.4 -3.75,-5.6 -3.75,-9.6l0 -168.62c1,-0.4 2.55,-0.85 4.65,-1.35 2.1,-0.5 4.35,-0.75 6.75,-0.75 8.8,0 13.2,3.7 13.2,11.1l0 151.82 86.11 0c2.2,2.2 3.3,5.5 3.3,9.9 0,3.4 -0.9,6.1 -2.7,8.1 -1.8,2 -4.2,3 -7.2,3l-90.91 0z"/>
     <path id="1" class="fil0" d="M3973.14 458.88c8.4,0 15.35,-0.85 20.86,-2.55 5.5,-1.7 9.45,-3.35 11.85,-4.95l0 -43.51 -37.21 3.9c-10.4,1 -18.1,3.35 -23.1,7.05 -5,3.7 -7.5,9.15 -7.5,16.35 0,7.61 2.9,13.46 8.7,17.56 5.8,4.1 14.6,6.15 26.4,6.15zm-0.3 -126.91c17.4,0 31.21,3.9 41.41,11.7 10.2,7.8 15.3,20.1 15.3,36.9l0 71.11c0,4.4 -0.85,7.75 -2.55,10.05 -1.7,2.3 -4.25,4.45 -7.65,6.45 -4.8,2.8 -11.15,5.25 -19.05,7.35 -7.91,2.1 -16.96,3.15 -27.16,3.15 -18.8,0 -33.35,-3.7 -43.65,-11.1 -10.3,-7.4 -15.45,-18.11 -15.45,-32.11 0,-13.2 4.3,-23.15 12.9,-29.85 8.6,-6.7 20.7,-10.85 36.3,-12.45l42.61 -4.2 0 -8.4c0,-10 -3,-17.3 -9,-21.9 -6.01,-4.6 -14.11,-6.9 -24.31,-6.9 -8.4,0 -16.3,1.2 -23.7,3.6 -7.4,2.4 -14,5.1 -19.8,8.1 -1.6,-1.4 -3.05,-3 -4.35,-4.8 -1.3,-1.8 -1.95,-3.8 -1.95,-6 0,-2.8 0.7,-5.1 2.1,-6.9 1.4,-1.8 3.6,-3.5 6.6,-5.1 5.4,-2.8 11.6,-4.95 18.6,-6.45 7,-1.5 14.6,-2.25 22.8,-2.25z"/>
     <path id="2" class="fil0" d="M4138.46 478.38c-7,0 -13.6,-0.8 -19.8,-2.4 -6.2,-1.6 -11.31,-3.5 -15.31,-5.7l0 58.2c-1,0.4 -2.5,0.85 -4.5,1.35 -2,0.5 -4.2,0.75 -6.6,0.75 -8.6,0 -12.9,-3.7 -12.9,-11.1l0 -158.41c0,-4 0.7,-7.2 2.1,-9.6 1.4,-2.4 4.3,-4.9 8.7,-7.5 5.4,-3 11.85,-5.75 19.35,-8.25 7.51,-2.5 16.06,-3.75 25.66,-3.75 9.8,0 19.05,1.4 27.75,4.2 8.7,2.8 16.2,7.15 22.5,13.05 6.3,5.9 11.3,13.45 15,22.65 3.7,9.2 5.55,20.2 5.55,33 0,12.4 -1.65,23.2 -4.95,32.4 -3.3,9.2 -7.95,16.86 -13.95,22.96 -6,6.1 -13.15,10.65 -21.45,13.65 -8.3,3 -17.35,4.5 -27.15,4.5zm-3.3 -19.8c14,0 25.25,-4.25 33.75,-12.75 8.5,-8.51 12.75,-22.16 12.75,-40.96 0,-9.8 -1.25,-18.1 -3.75,-24.9 -2.5,-6.8 -5.9,-12.3 -10.2,-16.5 -4.3,-4.2 -9.25,-7.2 -14.85,-9 -5.6,-1.8 -11.5,-2.7 -17.7,-2.7 -7.2,0 -13.3,0.9 -18.3,2.7 -5,1.8 -9.51,3.8 -13.51,6l0 88.51c3.8,2.8 8.3,5.1 13.51,6.9 5.2,1.8 11.3,2.7 18.3,2.7z"/>
     <path id="3" class="fil0" d="M4228.46 461.88c0,-4.8 1.45,-8.8 4.35,-12 2.9,-3.2 6.96,-4.81 12.16,-4.81 5.2,0 9.2,1.61 12,4.81 2.8,3.2 4.2,7.2 4.2,12 0,4.6 -1.4,8.5 -4.2,11.7 -2.8,3.2 -6.8,4.8 -12,4.8 -5.2,0 -9.26,-1.6 -12.16,-4.8 -2.9,-3.2 -4.35,-7.1 -4.35,-11.7z"/>
     <path id="4" class="fil0" d="M4349.07 457.98c13.41,0 23.56,-3.05 30.46,-9.15 6.9,-6.11 10.35,-13.96 10.35,-23.56 0,-8.4 -2.65,-15.2 -7.95,-20.4 -5.3,-5.2 -13.65,-9.5 -25.05,-12.9l-26.11 -7.8c-12.8,-3.8 -22.85,-9.4 -30.15,-16.8 -7.3,-7.4 -10.95,-17.4 -10.95,-30 0,-7.6 1.45,-14.45 4.35,-20.56 2.9,-6.1 7.05,-11.25 12.45,-15.45 5.4,-4.2 11.85,-7.45 19.35,-9.75 7.5,-2.3 15.95,-3.45 25.35,-3.45 8,0 15.46,0.65 22.36,1.95 6.9,1.3 12.9,3.1 18,5.4 5.1,2.3 9.05,4.85 11.85,7.65 2.8,2.8 4.2,5.7 4.2,8.7 0,2.8 -0.7,5.2 -2.1,7.2 -1.4,2 -3.2,3.6 -5.4,4.8 -5.2,-4 -11.95,-7.5 -20.25,-10.5 -8.3,-3 -17.55,-4.5 -27.76,-4.5 -11.8,0 -21.05,2.5 -27.75,7.5 -6.7,5 -10.05,12.01 -10.05,21.01 0,7 2.4,12.7 7.2,17.1 4.8,4.4 12.8,8.2 24,11.4l18.31 5.4c15.8,4.6 28.25,11.05 37.35,19.35 9.1,8.3 13.65,19.85 13.65,34.65 0,15.8 -5.7,28.61 -17.1,38.41 -11.4,9.8 -27.6,14.7 -48.61,14.7 -9.2,0 -17.55,-0.8 -25.05,-2.4 -7.5,-1.6 -13.9,-3.7 -19.2,-6.3 -5.3,-2.6 -9.4,-5.45 -12.3,-8.55 -2.9,-3.1 -4.35,-6.15 -4.35,-9.15 0,-3.41 1.05,-6.26 3.15,-8.56 2.1,-2.29 4.55,-3.95 7.35,-4.95 2.2,2.21 4.9,4.46 8.1,6.75 3.2,2.3 6.9,4.4 11.1,6.31 4.2,1.9 8.9,3.45 14.1,4.65 5.2,1.2 10.9,1.8 17.1,1.8z"/>
     <path id="5" class="fil0" d="M4475.68 419.27c5.41,26.21 22.61,39.31 51.61,39.31 8.4,0 16,-1.4 22.8,-4.2 6.8,-2.8 12.2,-5.81 16.2,-9 4.8,2.8 7.2,6.6 7.2,11.4 0,2.8 -1.25,5.5 -3.75,8.1 -2.5,2.6 -5.9,4.9 -10.2,6.9 -4.3,2 -9.3,3.6 -15,4.8 -5.7,1.2 -11.85,1.8 -18.45,1.8 -23.2,0 -41.55,-6.3 -55.06,-18.9 -13.5,-12.6 -20.25,-31.01 -20.25,-55.21 0,-11.4 1.65,-21.55 4.95,-30.45 3.3,-8.9 7.9,-16.45 13.8,-22.65 5.9,-6.2 12.96,-10.95 21.16,-14.25 8.2,-3.3 17.1,-4.95 26.7,-4.95 9,0 17.3,1.5 24.9,4.5 7.6,3 14.15,7.25 19.65,12.75 5.5,5.5 9.8,12 12.9,19.5 3.1,7.5 4.65,15.75 4.65,24.75 0,4.4 -1,7.55 -3,9.45 -2,1.9 -4.8,3.05 -8.4,3.45l-92.41 12.9zm41.41 -67.8c-12.2,0 -22.3,4.25 -30.3,12.75 -8,8.5 -12.2,20.65 -12.61,36.45l82.51 -11.4c-1,-11 -4.85,-20.05 -11.55,-27.15 -6.7,-7.1 -16.05,-10.65 -28.05,-10.65z"/>
     <path id="6" class="fil0" d="M4644.3 473.88c-1,0.4 -2.5,0.85 -4.5,1.35 -2,0.5 -4.2,0.75 -6.6,0.75 -8.6,0 -12.9,-3.6 -12.9,-10.8l0 -101.71c0,-4.6 0.85,-8.25 2.55,-10.95 1.7,-2.7 4.55,-5.35 8.55,-7.95 5.2,-3.4 12.25,-6.35 21.15,-8.85 8.9,-2.5 18.95,-3.75 30.15,-3.75 16,0 24,4 24,12 0,2 -0.3,3.85 -0.9,5.55 -0.6,1.7 -1.4,3.15 -2.4,4.35 -2,-0.4 -4.6,-0.8 -7.8,-1.2 -3.2,-0.4 -6.4,-0.6 -9.6,-0.6 -9.2,0 -17.3,0.95 -24.3,2.85 -7,1.9 -12.8,4.15 -17.4,6.75l0 112.21z"/>
     <path id="7" class="fil0" d="M4802.71 331.97c9.2,0 17.8,1.5 25.8,4.5 8,3 14.96,7.5 20.86,13.5 5.9,6 10.5,13.6 13.8,22.8 3.3,9.2 4.95,20 4.95,32.4 0,12.6 -1.7,23.5 -5.1,32.7 -3.4,9.2 -8.15,16.81 -14.25,22.81 -6.11,6 -13.46,10.45 -22.06,13.35 -8.6,2.9 -18,4.35 -28.2,4.35 -9.8,0 -18.65,-1.15 -26.55,-3.45 -7.9,-2.3 -14.35,-4.95 -19.35,-7.95 -4.2,-2.6 -7.1,-5.15 -8.7,-7.65 -1.6,-2.5 -2.4,-5.85 -2.4,-10.05l0 -169.22c1,-0.4 2.55,-0.85 4.65,-1.35 2.1,-0.5 4.35,-0.75 6.75,-0.75 8.4,0 12.6,3.6 12.6,10.8l0 53.71c4.4,-2.8 9.65,-5.25 15.75,-7.35 6.1,-2.1 13.25,-3.15 21.45,-3.15zm-3.6 19.8c-7,0 -13.35,1.25 -19.05,3.75 -5.7,2.5 -10.55,5.45 -14.55,8.85l0 84.91c3,2.2 7.35,4.3 13.05,6.3 5.7,2 12.35,3 19.95,3 6.8,0 12.95,-1.05 18.45,-3.15 5.5,-2.1 10.25,-5.36 14.25,-9.75 4.01,-4.4 7.1,-9.96 9.31,-16.66 2.2,-6.7 3.3,-14.65 3.3,-23.85 0,-9.2 -1.1,-17.2 -3.3,-24 -2.21,-6.8 -5.3,-12.35 -9.31,-16.65 -4,-4.3 -8.75,-7.5 -14.25,-9.6 -5.5,-2.1 -11.45,-3.15 -17.85,-3.15z"/>
     <path id="8" class="fil0" d="M4961.73 458.88c8.4,0 15.35,-0.85 20.85,-2.55 5.5,-1.7 9.45,-3.35 11.85,-4.95l0 -43.51 -37.21 3.9c-10.4,1 -18.1,3.35 -23.1,7.05 -5,3.7 -7.5,9.15 -7.5,16.35 0,7.61 2.9,13.46 8.7,17.56 5.8,4.1 14.6,6.15 26.41,6.15zm-0.3 -126.91c17.4,0 31.2,3.9 41.4,11.7 10.2,7.8 15.3,20.1 15.3,36.9l0 71.11c0,4.4 -0.85,7.75 -2.55,10.05 -1.7,2.3 -4.25,4.45 -7.65,6.45 -4.8,2.8 -11.15,5.25 -19.05,7.35 -7.9,2.1 -16.95,3.15 -27.15,3.15 -18.81,0 -33.36,-3.7 -43.66,-11.1 -10.3,-7.4 -15.45,-18.11 -15.45,-32.11 0,-13.2 4.3,-23.15 12.9,-29.85 8.6,-6.7 20.7,-10.85 36.3,-12.45l42.61 -4.2 0 -8.4c0,-10 -3,-17.3 -9,-21.9 -6,-4.6 -14.1,-6.9 -24.3,-6.9 -8.41,0 -16.31,1.2 -23.71,3.6 -7.4,2.4 -14,5.1 -19.8,8.1 -1.6,-1.4 -3.05,-3 -4.35,-4.8 -1.3,-1.8 -1.95,-3.8 -1.95,-6 0,-2.8 0.7,-5.1 2.1,-6.9 1.4,-1.8 3.6,-3.5 6.6,-5.1 5.4,-2.8 11.6,-4.95 18.6,-6.45 7,-1.5 14.6,-2.25 22.81,-2.25z"/>
     <path id="9" class="fil0" d="M5160.64 460.08c-3.4,2.8 -8.05,5.2 -13.95,7.2 -5.9,2 -12.95,3 -21.15,3 -8.8,0 -17.1,-1.25 -24.9,-3.75 -7.8,-2.5 -14.66,-6.5 -20.56,-12 -5.9,-5.51 -10.6,-12.65 -14.1,-21.46 -3.5,-8.8 -5.25,-19.5 -5.25,-32.1 0,-11.4 1.7,-21.4 5.1,-30 3.4,-8.6 8.15,-15.8 14.25,-21.6 6.11,-5.8 13.36,-10.15 21.76,-13.05 8.4,-2.9 17.7,-4.35 27.9,-4.35 9.2,0 17.65,1.15 25.35,3.45 7.7,2.3 14.15,5.15 19.35,8.55 3,2 5.45,4.25 7.35,6.75 1.9,2.5 2.85,5.55 2.85,9.15l0 120.61c0,10 -1.65,18.45 -4.95,25.35 -3.3,6.9 -7.9,12.5 -13.8,16.8 -5.9,4.3 -12.85,7.45 -20.85,9.45 -8,2 -16.6,3 -25.8,3 -10.2,0 -18.85,-1.05 -25.95,-3.15 -7.1,-2.1 -11.96,-3.95 -14.56,-5.55 -6,-3.4 -9,-7.7 -9,-12.9 0,-2.8 0.65,-5.15 1.95,-7.05 1.3,-1.9 2.95,-3.35 4.95,-4.35 4.2,3.2 10.11,6.15 17.71,8.85 7.6,2.7 15.9,4.05 24.9,4.05 13.4,0 23.65,-2.85 30.75,-8.55 7.1,-5.7 10.65,-14.85 10.65,-27.45l0 -18.9zm-32.4 -9.6c8,0 14.55,-1.25 19.65,-3.75 5.1,-2.51 9.35,-5.36 12.75,-8.56l0 -78c-3.4,-2.2 -7.65,-4.15 -12.75,-5.85 -5.1,-1.7 -11.15,-2.55 -18.15,-2.55 -13.6,0 -24.45,4.1 -32.55,12.3 -8.1,8.2 -12.15,20.4 -12.15,36.6 0,9 1.09,16.65 3.3,22.95 2.2,6.3 5.25,11.45 9.15,15.45 3.9,4.01 8.5,6.91 13.8,8.71 5.3,1.8 10.95,2.7 16.95,2.7z"/>
     <path id="10" class="fil0" d="M5235.05 336.47c1,-0.4 2.55,-0.85 4.65,-1.35 2.1,-0.5 4.35,-0.75 6.75,-0.75 8.4,0 12.6,3.7 12.6,11.1l0 77.1c0,13 3.4,22.25 10.2,27.76 6.8,5.5 16.2,8.25 28.2,8.25 8,0 14.8,-0.85 20.4,-2.55 5.6,-1.7 10.01,-3.45 13.21,-5.25l0 -114.31c1,-0.4 2.55,-0.85 4.65,-1.35 2.1,-0.5 4.25,-0.75 6.45,-0.75 8.6,0 12.9,3.7 12.9,11.1l0 104.41c0,4.2 -0.55,7.55 -1.65,10.05 -1.1,2.5 -3.75,4.95 -7.95,7.35 -4.6,2.6 -10.95,5.1 -19.05,7.5 -8.11,2.4 -17.86,3.6 -29.26,3.6 -20,0 -35.35,-4.4 -46.05,-13.2 -10.7,-8.8 -16.05,-22.61 -16.05,-41.41l0 -87.3z"/>
     <path id="11" class="fil0" d="M5502.07 384.17c0,-11.2 -3.15,-19.4 -9.45,-24.6 -6.3,-5.2 -14.75,-7.8 -25.35,-7.8 -8,0 -15.1,1 -21.3,3 -6.2,2 -11.51,4.3 -15.91,6.9l0 112.21c-1,0.4 -2.5,0.85 -4.5,1.35 -2,0.5 -4.2,0.75 -6.6,0.75 -8.6,0 -12.9,-3.6 -12.9,-10.8l0 -102.31c0,-4.2 0.85,-7.65 2.55,-10.35 1.7,-2.7 4.65,-5.35 8.85,-7.95 5.2,-3.2 12.1,-6.1 20.7,-8.7 8.6,-2.6 18.31,-3.9 29.11,-3.9 18.2,0 32.55,4.1 43.05,12.3 10.5,8.2 15.75,21.1 15.75,38.7l0 90.91c-1,0.4 -2.55,0.85 -4.65,1.35 -2.1,0.5 -4.25,0.75 -6.45,0.75 -8.6,0 -12.9,-3.6 -12.9,-10.8l0 -81.01z"/>
     <path id="12" class="fil0" d="M5626.58 458.88c8.4,0 15.35,-0.85 20.85,-2.55 5.5,-1.7 9.45,-3.35 11.85,-4.95l0 -43.51 -37.2 3.9c-10.4,1 -18.1,3.35 -23.1,7.05 -5,3.7 -7.5,9.15 -7.5,16.35 0,7.61 2.9,13.46 8.7,17.56 5.8,4.1 14.6,6.15 26.4,6.15zm-0.3 -126.91c17.4,0 31.2,3.9 41.4,11.7 10.2,7.8 15.3,20.1 15.3,36.9l0 71.11c0,4.4 -0.85,7.75 -2.55,10.05 -1.7,2.3 -4.25,4.45 -7.65,6.45 -4.8,2.8 -11.15,5.25 -19.05,7.35 -7.9,2.1 -16.95,3.15 -27.15,3.15 -18.8,0 -33.35,-3.7 -43.65,-11.1 -10.3,-7.4 -15.45,-18.11 -15.45,-32.11 0,-13.2 4.3,-23.15 12.9,-29.85 8.6,-6.7 20.7,-10.85 36.3,-12.45l42.6 -4.2 0 -8.4c0,-10 -3,-17.3 -9,-21.9 -6,-4.6 -14.1,-6.9 -24.3,-6.9 -8.4,0 -16.3,1.2 -23.7,3.6 -7.4,2.4 -14,5.1 -19.8,8.1 -1.6,-1.4 -3.05,-3 -4.35,-4.8 -1.3,-1.8 -1.95,-3.8 -1.95,-6 0,-2.8 0.7,-5.1 2.1,-6.9 1.4,-1.8 3.6,-3.5 6.6,-5.1 5.4,-2.8 11.6,-4.95 18.6,-6.45 7,-1.5 14.6,-2.25 22.8,-2.25z"/>
     <rect class="fil1" x="3986.3" y="579.24" width="1476.5" height="23.62"/>
     <path class="fil0" d="M4591.89 806.13c0,5.01 -1.11,9.73 -3.34,14.17 -4.72,10 -13.75,18.34 -27.08,25.01 -13.34,6.66 -27.23,10 -41.67,10 -21.95,0 -36.88,-7.5 -44.8,-22.51 -14.3,11.95 -24.51,17.92 -30.63,17.92 -1.11,0 -2.08,-0.21 -2.91,-0.62 -4.17,-2.23 -6.25,-7.02 -6.25,-14.38 0,-7.36 3.05,-16.39 9.16,-27.08 6.12,-10.7 11.46,-17.02 16.05,-18.96 2.08,-0.7 3.68,-1.05 4.79,-1.05 4.03,0 7.08,3.34 9.17,10l6.25 20.01c4.03,-4.31 9.51,-11.18 16.46,-20.63l18.54 -25c22.78,-29.59 37.71,-45.77 44.8,-48.55 2.5,-0.97 5.07,-1.46 7.71,-1.46 2.63,0 4.82,0.56 6.56,1.67 1.73,1.11 2.6,2.5 2.6,4.17 0,2.5 -2.01,3.96 -6.04,4.37 -4.17,2.36 -12.12,9.27 -23.86,20.73 -11.73,11.46 -18.71,18.72 -20.94,21.78 -15.55,21.66 -29.93,38.33 -43.12,50 8.47,16.81 21.18,25.21 38.12,25.21 10.28,0 20.49,-3.23 30.63,-9.69 10.14,-6.46 17.71,-14.41 22.71,-23.85 2.22,-4.03 3.34,-8.55 3.34,-13.55 0,-5 -1.98,-9.75 -5.94,-14.27 -3.96,-4.51 -8.93,-7.81 -14.9,-9.9 -2.78,-0.41 -7.22,-1 -13.33,-1.77 -6.11,-0.76 -9.17,-2.05 -9.17,-3.85 0,-0.69 0.28,-1.32 0.83,-1.88 1.67,-1.94 3.82,-2.91 6.46,-2.91 1.53,0 3.02,0.28 4.48,0.83 1.46,0.56 2.61,0.97 3.44,1.25 0.83,0.28 1.8,0.63 2.92,1.04 3.05,0.28 5.69,0.42 7.91,0.42 9.17,0 17.5,-1.46 25,-4.38 9.59,-3.75 15.7,-9.37 18.34,-16.87 1.67,-4.86 2.5,-9.24 2.5,-13.13 0,-9.58 -4.65,-16.74 -13.96,-21.46 -8.06,-4.17 -19.1,-6.25 -33.13,-6.25 -22.08,0 -41.88,4.17 -59.38,12.5 -8.89,4.17 -17.32,10.35 -25.31,18.54 -7.99,8.2 -11.98,15.21 -11.98,21.05 0,4.03 1.04,7.36 3.12,10 0.84,1.11 2.3,2.5 4.38,4.17 0.69,0.41 0.28,0.62 -1.25,0.62 -8.61,-1.94 -12.92,-7.71 -12.92,-17.29 0,-9.59 4.86,-18.62 14.59,-27.09 7.22,-6.25 15.34,-11.32 24.37,-15.21 18.75,-8.05 40.08,-12.08 63.97,-12.08 17.08,0 30.69,2.5 40.83,7.5 11.81,5.56 17.71,13.96 17.71,25.21 0,4.44 -0.9,8.96 -2.71,13.54 -2.91,8.34 -10.48,14.66 -22.71,18.96 -9.16,3.2 -19.03,4.86 -29.58,5 8.19,0.42 15.1,3.44 20.73,9.07 5.62,5.62 8.44,12.6 8.44,20.93zm-133.14 -7.7c-0.14,0 -0.49,0.14 -1.04,0.41 -10.28,14.87 -15.42,26.81 -15.42,35.84 0,3.75 0.9,7.15 2.71,10.21 0.42,0.69 1.11,1.04 2.08,1.04 4.45,0 12.99,-6.32 25.63,-18.96l-0.62 -0.83c-5.56,-18.48 -10.01,-27.71 -13.34,-27.71z"/>
     <path id="1" class="fil0" d="M4627.16 848.22c-1.53,0 -2.92,-0.21 -4.17,-0.62 -8.88,-2.5 -13.33,-7.5 -13.33,-15 0,-9.73 6.11,-20.98 18.33,-33.76 12.23,-12.78 23.2,-19.17 32.92,-19.17 3.2,0 5.8,0.87 7.82,2.61 2.01,1.74 3.02,3.85 3.02,6.35 0,7.78 -5.87,15.21 -17.61,22.3 -11.73,7.08 -21.28,10.62 -28.64,10.62 -1.12,0 -2.09,-0.14 -2.92,-0.41 -2.09,3.75 -3.13,7.71 -3.13,11.87 0,7.22 3.44,10.84 10.32,10.84 6.87,0 15.8,-4.66 26.77,-13.96 8.47,-6.81 15.7,-14.03 21.67,-21.67 1.25,-1.67 2.32,-2.5 3.23,-2.5 0.9,0 1.35,0.41 1.35,1.25 0,0.83 -0.55,2.01 -1.66,3.54 -7.51,9.86 -16.53,18.61 -27.09,26.25 -10.56,7.64 -19.52,11.46 -26.88,11.46zm39.38 -60c0,-1.67 -1.77,-2.5 -5.31,-2.5 -3.54,0 -8.58,2.71 -15.11,8.12 -8.75,7.23 -15.55,14.8 -20.42,22.71 0.84,0.28 1.74,0.42 2.71,0.42 5.28,0 12.33,-2.81 21.15,-8.44 8.82,-5.62 14.34,-11.77 16.56,-18.44 0.28,-0.69 0.42,-1.32 0.42,-1.87z"/>
     <path id="2" class="fil0" d="M4727.23 848.01c-10.97,0 -20.28,-8.68 -27.92,-26.04 -1.94,2.92 -6.32,11.11 -13.12,24.59 -5,-1.95 -7.5,-4.59 -7.5,-7.92 0,-5.97 8.96,-22.36 26.87,-49.17 17.92,-26.81 30.22,-42.58 36.88,-47.3 0.56,-0.42 1.67,-0.62 3.34,-0.62 4.3,0 6.45,1.11 6.45,3.33 0,1.11 -4.82,7.36 -14.48,18.75 -9.65,11.39 -15.03,18.27 -16.14,20.63 12.64,-6.53 22.71,-9.79 30.21,-9.79 4.3,0 7.98,1.73 11.04,5.2 2.92,2.92 4.38,5.91 4.38,8.96 0,0.42 0,0.84 0,1.25 -1.11,7.92 -6.67,14.45 -16.67,19.59 -8.06,4.3 -15.56,6.46 -22.5,6.46 -6.95,0 -11.81,-0.91 -14.59,-2.71 -0.83,-0.14 -1.49,0.07 -1.98,0.62 -0.48,0.56 -0.59,1.25 -0.31,2.09 3.89,17.22 10.35,25.83 19.38,25.83 4.72,0 10.8,-2.64 18.23,-7.91 7.43,-5.28 15.17,-12.71 23.23,-22.3 0.97,-0.97 1.84,-1.46 2.6,-1.46 0.77,0 1.15,0.39 1.15,1.15 0,0.76 -0.49,1.84 -1.46,3.23 -7.5,9.17 -14.58,16.39 -21.25,21.67 -10.14,7.91 -18.75,11.87 -25.84,11.87zm30.01 -63.75c0,-1.11 -0.63,-2.22 -1.88,-3.34 -1.25,-1.11 -2.57,-1.66 -3.96,-1.66 -7.5,0 -16.49,3.12 -26.98,9.37 -10.49,6.25 -16.91,13.34 -19.27,21.26 1.25,0 4.58,0.2 10,0.62 6.25,0 14.44,-2.57 24.58,-7.71 11.67,-5.83 17.51,-12.01 17.51,-18.54z"/>
     <path id="3" class="fil0" d="M4850.43 783.22l2.92 -0.63c1.53,0 2.98,0.63 4.37,1.88 1.39,1.25 2.09,2.22 2.09,2.91 0,0.7 -4.31,7.4 -12.92,20.11 -8.61,12.71 -12.92,21.56 -12.92,26.56 0,0.42 0.07,0.84 0.21,1.25 0.69,3.2 2.22,4.8 4.58,4.8 7.23,0 20.42,-11.95 39.59,-35.84 0.42,-0.55 0.9,-0.83 1.46,-0.83 0.55,0 0.83,0.52 0.83,1.56 0,1.04 -0.62,2.4 -1.87,4.06 -17.78,23.75 -31.33,35.63 -40.63,35.63 -1.25,0 -2.43,-0.21 -3.54,-0.63 -6.12,-2.36 -9.17,-6.94 -9.17,-13.75 0,-2.36 0.28,-4.72 0.83,-7.08l-12.92 12.5c-8.19,7.22 -14.13,10.84 -17.81,10.84 -3.68,0 -7.19,-1.19 -10.52,-3.55 -3.75,-2.78 -5.63,-6.46 -5.63,-11.04 0,-10.14 7.09,-22.26 21.26,-36.36 14.16,-14.1 27.15,-21.14 38.96,-21.14 4.58,0 7.64,1.59 9.16,4.79 0.42,1.11 0.77,2.05 1.05,2.81 0.27,0.76 0.48,1.15 0.62,1.15zm-62.3 51.25c0,5 1.74,7.5 5.21,7.5 8.06,0 19.03,-8.82 32.92,-26.46l22.09 -30.42c-1.11,-1.94 -2.92,-2.91 -5.42,-2.91 -8.47,0 -19.72,6.56 -33.75,19.68 -14.03,13.13 -21.05,24 -21.05,32.61z"/>
     <path id="4" class="fil0" d="M4919.67 842.39c-4.03,2.36 -9,3.54 -14.9,3.54 -5.9,0 -10.42,-1.94 -13.54,-5.83 -3.13,-3.89 -5.8,-10.07 -8.03,-18.55 -2.5,2.5 -4.23,3.75 -5.2,3.75 -0.7,0 -1.05,-0.48 -1.05,-1.45 0,-0.98 0.35,-1.81 1.05,-2.5 4.58,-5.7 12.36,-13.89 23.33,-24.59l26.25 -24.59c7.5,-7.08 11.95,-10.62 13.34,-10.62 4.44,0 6.66,1.66 6.66,5 0,1.67 -0.66,3.3 -1.97,4.9 -1.32,1.59 -2.3,2.84 -2.92,3.75 -0.63,0.9 -1.29,1.77 -1.98,2.6 -2.5,4.31 -5.04,13.2 -7.61,26.67 -2.57,13.47 -4.54,22.85 -5.93,28.13 11.53,-0.14 23.4,-7.64 35.62,-22.51 1.39,-1.38 2.43,-2.08 3.13,-2.08 0.69,0 1.04,0.45 1.04,1.36 0,0.9 -0.62,2.11 -1.87,3.64 -8.06,9.45 -15.56,16.04 -22.51,19.79 -4.16,2.09 -9.58,3.82 -16.25,5.21l-6.66 4.38zm-28.13 -23.13c0,4.72 1.56,8.58 4.69,11.57 3.12,2.98 6.63,4.47 10.52,4.47 3.89,0 6.87,-0.76 8.96,-2.29 2.77,-1.53 5.52,-7.91 8.23,-19.17 2.71,-11.25 4.34,-21.18 4.89,-29.79l0.84 -7.08c-7.64,5.69 -15.8,13.05 -24.48,22.08 -8.69,9.03 -13.17,15 -13.44,17.92 -0.14,0.83 -0.21,1.6 -0.21,2.29z"/>
     <path id="5" class="fil0" d="M5015.78 760.51c2.08,0 4.06,0.66 5.94,1.98 1.87,1.32 2.81,2.88 2.81,4.68 0,1.81 -0.87,3.37 -2.61,4.69 -1.73,1.32 -3.64,1.98 -5.73,1.98 -2.08,0 -3.99,-0.76 -5.73,-2.29 -1.73,-1.53 -2.6,-3.27 -2.6,-5.21 0,-3.89 2.64,-5.83 7.92,-5.83zm-37.71 87.3c-7.09,0 -10.63,-4.59 -10.63,-13.76 0,-7.5 4.1,-17.88 12.29,-31.14 8.2,-13.27 14.8,-19.97 19.8,-20.11 1.39,0 2.95,0.56 4.69,1.67 1.73,1.11 2.6,2.22 2.6,3.33 -0.69,0.97 -1.53,2.05 -2.5,3.23 -0.97,1.18 -2.01,2.47 -3.13,3.85 -1.11,1.39 -2.64,3.37 -4.58,5.94 -1.94,2.57 -3.82,5.04 -5.63,7.4 -10.41,13.47 -15.62,22.74 -15.62,27.81 0,5.07 1.73,7.61 5.21,7.61 2.91,0 6.87,-1.6 11.87,-4.79 11.67,-7.23 20.91,-15.14 27.71,-23.76 2.5,-3.19 4.21,-4.79 5.11,-4.79 0.9,0 1.35,0.56 1.35,1.67 0,1.11 -1.6,3.33 -4.79,6.67 -3.19,3.33 -5.73,5.97 -7.6,7.91 -1.88,1.95 -3.16,3.23 -3.86,3.86 -0.69,0.62 -1.98,1.8 -3.85,3.54 -1.88,1.74 -3.3,2.95 -4.27,3.65 -0.98,0.69 -2.37,1.73 -4.17,3.12 -1.81,1.39 -3.4,2.4 -4.79,3.02 -1.39,0.63 -2.99,1.36 -4.8,2.19 -2.91,1.25 -6.39,1.88 -10.41,1.88z"/>
     <path class="fil0" d="M2883.77 59.49l-86.34 127.76 -86.63 -127.76 -15.46 0 0 204.18 15.46 0 0 -175.02 82.84 123.1 7.29 0 82.84 -123.1 0 175.02 15.46 0 0 -204.18 -15.46 0z"/>
     <path id="1" class="fil0" d="M3010.36 248.21l0 -82.55 87.8 0 0 -15.46 -87.8 0 0 -74.96 94.51 0 0 -15.75 -109.96 0 0 204.18 112.59 0 0 -15.46 -97.14 0z"/>
     <path id="2" class="fil0" d="M3194.42 59.49l0 204.18 15.75 0 0 -204.18 -15.75 0z"/>
     <path class="fil0" d="M2622.11 1107.73c12.83,-14 48.13,-55.71 51.04,-58.92 23.34,-28.29 42.3,-49 42.3,-77 0,-30.34 -21.29,-56.3 -53.96,-56.3 -30.05,0 -53.67,19.54 -60.09,51.34l15.46 2.91c4.67,-24.79 21.88,-38.79 44.63,-38.79 20.71,0 38.5,16.04 38.5,40.84 0,21.58 -17.21,41.12 -38.79,66.79 -2.92,3.5 -46.68,54.26 -60.09,69.13l0 15.46 120.76 0 0 -15.46 -99.76 0z"/>
     <path id="1" class="fil0" d="M2875.88 915.51c-53.09,0 -75.84,54.54 -75.84,105.59 0,51.34 22.75,105.88 75.84,105.88 52.8,0 75.55,-54.54 75.55,-105.88 0,-51.05 -22.75,-105.59 -75.55,-105.59zm0 195.72c-45.21,0 -60.38,-49.88 -60.38,-90.13 0,-40.25 15.17,-90.13 60.38,-90.13 44.92,0 60.09,49.88 60.09,90.13 0,40.25 -15.17,90.13 -60.09,90.13z"/>
     <path id="2" class="fil0" d="M3049.14 1107.73c12.84,-14 48.13,-55.71 51.05,-58.92 23.33,-28.29 42.29,-49 42.29,-77 0,-30.34 -21.29,-56.3 -53.96,-56.3 -30.04,0 -53.67,19.54 -60.09,51.34l15.46 2.91c4.67,-24.79 21.88,-38.79 44.63,-38.79 20.71,0 38.5,16.04 38.5,40.84 0,21.58 -17.21,41.12 -38.79,66.79 -2.92,3.5 -46.67,54.26 -60.09,69.13l0 15.46 120.76 0 0 -15.46 -99.76 0z"/>
     <path id="3" class="fil0" d="M3287.74 919.01l-60.67 40.84 8.17 13.41 50.17 -33.54 0 183.47 15.46 0 0 -204.18 -13.13 0z"/>
    </g>
   </g>
  </g>
  <path class="fil2" d="M-0.24 0.45l5906 0 0 1181.2 -5906 0 0 -1181.2z"/>
 </g>
</svg>
