<?xml version="1.0" encoding="UTF-8"?>
<svg xmlns="http://www.w3.org/2000/svg" id="Outline" viewBox="0 0 512 512" width="512" height="512"><path d="M272,288a8,8,0,0,0,8,8,8,8,0,0,0,16,0v-2.165A15.986,15.986,0,0,0,288,264h8a8,8,0,0,0,0-16,8,8,0,0,0-16,0v2.165A15.986,15.986,0,0,0,288,280h-8A8,8,0,0,0,272,288Z"/><path d="M34.264,431.736l186.5,71.731a8,8,0,0,0,4.7.32L360,472.132l48,6.813V488a8,8,0,0,0,8,8h72a8,8,0,0,0,8-8V344a8,8,0,0,0-8-8H416a8,8,0,0,0-8,8v7.976L375.844,352,280,346.928V335.482a64,64,0,1,0,0-126.964V200a8,8,0,0,0-8-8h-8V168a8,8,0,0,0-8-8h-8V136.14a55.674,55.674,0,0,1,9.918-31.768L335.2,112.1l.226.019q1.827.13,3.668.13c19.409,0,39.7-10.733,51.412-27.46l40-56a8,8,0,0,0-5.626-12.6l-72-8c-.09-.01-.18-.019-.271-.025-22.018-1.69-49.054,10.04-62.86,27.3-.086.108-.17.218-.25.331L255.8,82.705a72.082,72.082,0,0,0-21.453,35.187,72.6,72.6,0,0,0-9.928-11.132L190.5,59.536c-.08-.113-.164-.223-.25-.33-13.807-17.257-40.847-28.99-62.86-27.3-.091.007-.181.016-.271.026l-72,8a8,8,0,0,0-5.626,12.6l39.956,55.938C101.2,125.259,121.492,136,140.9,136q1.841,0,3.668-.13c.076,0,.151-.011.226-.019l77.21-7.721A55.676,55.676,0,0,1,232,160H144a8,8,0,0,0-8,8v32a8,8,0,0,0,8,8h8v16h-8a8,8,0,0,0-8,8v32a8,8,0,0,0,8,8h8v16h-8a8,8,0,0,0-8,8v32a8,8,0,0,0,8,8h8v16h-8a8,8,0,0,0-8,8v32a7.977,7.977,0,0,0,.633,3.123l-83.581-21.8a30.73,30.73,0,0,0-18.788,58.417ZM424,352h56V480H424ZM320,64.14H304a71.855,71.855,0,0,0-16.558,1.944L302.371,45.3c10.46-12.936,32.334-22.415,48.887-21.195l58.307,6.478L377.446,75.552c-9.36,13.371-25.73,21.643-40.768,20.616l-64.033-6.4A55.672,55.672,0,0,1,304,80.14h16a8,8,0,0,0,0-16ZM143.322,119.914c-15.047,1.028-31.409-7.246-40.812-20.678l-32.075-44.9,58.307-6.478c16.57-1.212,38.427,8.258,48.888,21.194l15.027,20.919A71.917,71.917,0,0,0,176,88H160a8,8,0,0,0,0,16h16a55.684,55.684,0,0,1,31.208,9.525ZM288,224a48,48,0,1,1-48,48A48.054,48.054,0,0,1,288,224ZM264,336v10.082l-25.1-1.329A26.064,26.064,0,0,0,219.561,352H168V336Zm0-128v4.687A64.076,64.076,0,0,0,245.736,224H168V208ZM152,176h96v16H152Zm0,64h80.61a63.614,63.614,0,0,0-6.585,16H152Zm74.025,48H168V272h56A63.921,63.921,0,0,0,226.025,288ZM152,304h80.61a64.437,64.437,0,0,0,13.126,16H152Zm0,64h59.641a25.889,25.889,0,0,0,3.42,16H152Zm94.724,32,4.544,1.131L215.108,415.6,155.328,400ZM31.618,397.584a14.76,14.76,0,0,1,17.4-8.783l164.6,42.94a7.994,7.994,0,0,0,4.99-.313l59.22-23.688,32.242,8.023a8,8,0,1,0,3.864-15.526l-78.79-19.607a10.106,10.106,0,0,1,2.931-19.9l137.14,7.257c.142.007,32.787-.013,32.787-.013v94.809l-47.24-6.705a7.99,7.99,0,0,0-2.956.132l-133.6,31.435L40.008,416.8a14.729,14.729,0,0,1-8.39-19.218Z"/></svg>
