<svg id="Capa_1" enable-background="new 0 0 512 512" height="512" viewBox="0 0 512 512" width="512" xmlns="http://www.w3.org/2000/svg"><g><path d="m82.333 280.067c8.547 0 15.5-6.953 15.5-15.5v-17.134c0-8.547-6.953-15.5-15.5-15.5h-33.7c-8.547 0-15.5 6.953-15.5 15.5v17.134c0 8.547 6.953 15.5 15.5 15.5zm-34.2-15.5v-17.134c0-.276.224-.5.5-.5h33.7c.276 0 .5.224.5.5v17.134c0 .276-.224.5-.5.5h-33.7c-.276 0-.5-.224-.5-.5z"/><path d="m471.367 0h-200.54c-4.142 0-7.5 3.358-7.5 7.5s3.358 7.5 7.5 7.5h200.54c14.134 0 25.633 11.499 25.633 25.633v182.233c0 14.134-11.499 25.633-25.633 25.633h-24.85c-8.703 0-15.783 7.08-15.783 15.783v29.703c0 2.324-1.891 4.214-4.214 4.214-1.125 0-2.184-.439-2.98-1.234l-43.843-43.843c-.086-.086-.181-.162-.269-.246-.342-13.69-2.924-26.833-7.391-39.077h91.047c8.703 0 15.783-7.08 15.783-15.783v-16.566c0-8.703-7.081-15.784-15.783-15.784h-123.015c-7.559-7.039-15.994-13.149-25.13-18.133h148.427c8.547 0 15.5-6.953 15.5-15.5v-17.133c0-8.547-6.953-15.5-15.5-15.5h-249.066c-8.547 0-15.5 6.953-15.5 15.5v17.133c0 4.75 2.152 9.003 5.527 11.848-8.444 3.907-16.374 8.74-23.661 14.369v-117.617c.001-14.134 11.5-25.633 25.634-25.633h34.527c4.142 0 7.5-3.358 7.5-7.5s-3.358-7.5-7.5-7.5h-34.527c-22.405 0-40.633 18.228-40.633 40.633v131.297c-7.483 8.035-13.909 17.065-19.057 26.869h-105.977c-22.405.001-40.633 18.229-40.633 40.634v182.233c0 22.406 18.228 40.634 40.634 40.634h24.85c.432 0 .783.352.783.784v29.702c0 10.595 8.62 19.214 19.214 19.214 5.132 0 9.957-1.998 13.587-5.628l43.843-43.843c.146-.146.348-.23.554-.23h86.135c4.142 0 7.5-3.358 7.5-7.5s-3.358-7.5-7.5-7.5h-86.136c-4.216 0-8.179 1.642-11.16 4.623l-43.842 43.842c-.796.796-1.855 1.235-2.981 1.235-2.324 0-4.214-1.891-4.214-4.214v-29.702c0-8.703-7.08-15.784-15.783-15.784h-24.85c-14.135.001-25.634-11.498-25.634-25.632v-182.233c0-14.134 11.499-25.633 25.633-25.633h99.331c-4.806 13.173-7.431 27.385-7.431 42.2s2.625 29.028 7.431 42.2h-91.048c-8.703 0-15.783 7.08-15.783 15.783v16.566c0 8.703 7.081 15.784 15.783 15.784h123.014c7.559 7.039 15.994 13.149 25.13 18.133h-148.427c-8.547 0-15.5 6.953-15.5 15.5v17.133c0 8.547 6.953 15.5 15.5 15.5h249.067c8.547 0 15.5-6.953 15.5-15.5v-17.133c0-4.75-2.152-9.003-5.528-11.849 8.444-3.907 16.374-8.74 23.661-14.369v67.917c0 14.134-11.499 25.633-25.633 25.633h-46.1c-4.142 0-7.5 3.358-7.5 7.5s3.358 7.5 7.5 7.5h46.1c22.405 0 40.633-18.228 40.633-40.633v-81.597c16.906-18.153 28.418-41.386 31.966-67.13l34.633 34.633c3.629 3.629 8.454 5.628 13.586 5.628 10.595 0 19.214-8.62 19.214-19.214v-29.703c0-.432.352-.783.783-.783h24.85c22.405 0 40.633-18.228 40.633-40.633v-182.234c.002-22.405-18.226-40.633-40.631-40.633zm-7.5 181.45v16.566c0 .432-.352.783-.783.783h-97.694c-3.357-6.394-7.257-12.459-11.641-18.133h109.334c.432.001.784.352.784.784zm-249.567-48.917c-.276 0-.5-.224-.5-.5v-17.133c0-.276.224-.5.5-.5h249.066c.276 0 .5.224.5.5v17.133c0 .276-.224.5-.5.5zm-166.167 198.017v-16.566c0-.432.352-.783.783-.783h97.694c3.357 6.394 7.257 12.459 11.641 18.133h-109.335c-.431 0-.783-.352-.783-.784zm249.567 48.917c.276 0 .5.224.5.5v17.133c0 .276-.224.5-.5.5h-249.067c-.276 0-.5-.224-.5-.5v-17.133c0-.276.224-.5.5-.5zm-41.7-15c-59.809 0-108.467-48.658-108.467-108.467s48.658-108.467 108.467-108.467 108.467 48.658 108.467 108.467-48.658 108.467-108.467 108.467z"/><path d="m214.3 33.133c-8.547 0-15.5 6.953-15.5 15.5v17.133c0 8.547 6.953 15.5 15.5 15.5h33.7c8.547 0 15.5-6.953 15.5-15.5v-17.133c0-8.547-6.953-15.5-15.5-15.5zm34.2 15.5v17.133c0 .276-.224.5-.5.5h-33.7c-.276 0-.5-.224-.5-.5v-17.133c0-.276.224-.5.5-.5h33.7c.276 0 .5.224.5.5z"/><path d="m313.2 233.727v-10.86c0-31.54-25.66-57.2-57.2-57.2s-57.2 25.66-57.2 57.2v10.86c-4.919 2.601-8.283 7.765-8.283 13.706v66.834c0 8.547 6.953 15.5 15.5 15.5h99.967c8.547 0 15.5-6.953 15.5-15.5v-66.834c-.001-5.941-3.364-11.105-8.284-13.706zm-99.4-10.86c0-23.269 18.931-42.2 42.2-42.2s42.2 18.931 42.2 42.2v9.066h-18.133v-9.066c0-13.27-10.796-24.067-24.067-24.067s-24.067 10.796-24.067 24.067v9.066h-18.133zm33.133 9.066v-9.066c0-4.999 4.067-9.067 9.067-9.067 4.999 0 9.067 4.067 9.067 9.067v9.066zm59.55 82.334c0 .276-.224.5-.5.5h-99.967c-.276 0-.5-.224-.5-.5v-66.834c0-.276.224-.5.5-.5h.283 99.4.283c.276 0 .5.224.5.5v66.834z"/><path d="m259.969 265.067h-8.283c-4.142 0-7.5 3.358-7.5 7.5 0 3.001 1.767 5.584 4.315 6.782v9.784c0 4.142 3.358 7.5 7.5 7.5s7.5-3.358 7.5-7.5v-9.951c2.361-1.263 3.969-3.751 3.969-6.616-.001-4.141-3.359-7.499-7.501-7.499z"/></g></svg>