<?xml version="1.0" encoding="UTF-8"?>
<!DOCTYPE svg PUBLIC "-//W3C//DTD SVG 1.0//EN" "http://www.w3.org/TR/2001/REC-SVG-20010904/DTD/svg10.dtd">
<!-- Creator: CorelDRAW 2020 (64-Bit) -->
<svg xmlns="http://www.w3.org/2000/svg" xml:space="preserve" width="59px" height="59px" version="1.0" style="shape-rendering:geometricPrecision; text-rendering:geometricPrecision; image-rendering:optimizeQuality; fill-rule:evenodd; clip-rule:evenodd"
viewBox="0 0 59 59"
 xmlns:xlink="http://www.w3.org/1999/xlink"
 xmlns:xodm="http://www.corel.com/coreldraw/odm/2003">
 <defs>
  <style type="text/css">
   <![CDATA[
    .fil0 {fill:#FEFEFE;fill-rule:nonzero}
    .fil6 {fill:#F7BF8B;fill-rule:nonzero}
    .fil4 {fill:#DFAC79;fill-rule:nonzero}
    .fil1 {fill:#F8B739;fill-rule:nonzero}
    .fil2 {fill:#06527B;fill-rule:nonzero}
    .fil3 {fill:#0F4262;fill-rule:nonzero}
    .fil5 {fill:#1D1819;fill-rule:nonzero}
   ]]>
  </style>
 </defs>
 <g id="Layer_x0020_1">
  <metadata id="CorelCorpID_0Corel-Layer"/>
  <path class="fil0" d="M-151.13 38.19l116.84 0 0 -83.58 -116.84 0 0 83.58z"/>
  <g id="_2228869222128">
   <path class="fil1" d="M58.53 29.97c0,16.29 -13.21,29.5 -29.5,29.5 -16.3,0 -29.5,-13.21 -29.5,-29.5 0,-16.29 13.2,-29.5 29.5,-29.5 16.29,0 29.5,13.21 29.5,29.5z"/>
   <path class="fil2" d="M46.41 48.02c-1.98,-2.31 -17.66,-7.38 -17.66,-7.38 0,0 -15.35,5.61 -17.66,7.38 -0.73,0.57 -1.32,2.09 -1.78,3.89 5.22,4.7 12.14,7.56 19.72,7.56 7.23,0 13.86,-2.61 18.99,-6.93 -0.4,-1.97 -0.93,-3.73 -1.61,-4.52z"/>
   <path class="fil3" d="M35.89 43.88l-7.14 2.73 -7.14 -2.73 0 -3.64c0,0 3.26,-1.14 7.32,-1.14 4.05,0 6.96,1.14 6.96,1.14l0 3.64z"/>
   <path class="fil4" d="M34.82 40.54l-6.07 2.72 -6.06 -2.72 0 -4.79 12.13 0 0 4.79z"/>
   <path class="fil5" d="M40.98 26.36l0 -6.58c0,-9.22 -3.7,-15.41 -12.05,-15.41 -8.36,0 -12.06,6.19 -12.06,15.41l0 6.58c0,0 1.84,-1.52 3.53,-3.42 0.75,-0.86 -1.83,-5.59 -1.04,-7.57 0.95,-2.41 3.4,-4.13 3.4,-4.13 0,0 1.01,1.18 5.51,1.59 4.6,0.42 6.2,-2.12 6.2,-2.12 0,0 0.39,10.53 1.42,11.92 2.21,2.96 5.09,3.73 5.09,3.73z"/>
   <path class="fil6" d="M41.58 23.6c0,2.05 -1.45,4.87 -2.43,4.87 -0.98,0 -1.77,-1.67 -1.77,-3.72 0,-2.05 1,-3.11 1.77,-3.71 0.95,-0.74 2.43,0 2.43,2.56z"/>
   <path class="fil6" d="M16.19 23.6c0,2.05 1.45,4.87 2.43,4.87 0.98,0 1.78,-1.67 1.78,-3.72 0,-2.05 -1.01,-3.11 -1.78,-3.71 -0.95,-0.74 -2.43,0 -2.43,2.56z"/>
   <path class="fil6" d="M28.93 7.34c-6.89,0 -9.94,4.83 -9.94,12.03 0,3.66 0,6.53 0,9.01 0,1.32 0.48,4.73 0.99,5.78 1.63,3.36 6.47,7.1 8.75,7.1 2.29,0 7.73,-3.69 9.02,-6.89 0.49,-1.24 1.11,-5.02 1.11,-6.56 0,-2.35 0,-5.06 0,-8.44 0,-7.2 -3.04,-12.03 -9.93,-12.03z"/>
   <path class="fil5" d="M38.86 24.51l0.62 -3.74c0.44,-8.5 -3.66,-14.78 -10.55,-14.78 -6.89,0 -10.64,7.18 -10.37,14.78l0.43 3.74c0,0 0.02,-2.81 1.41,-4.3 0.62,-0.67 -0.01,-2.74 0.64,-4.29 0.79,-1.88 2.8,-3.21 2.8,-3.21 0,0 0.84,0.91 4.54,1.23 3.8,0.33 5.12,-1.65 5.12,-1.65 0,0 2.26,0.17 3.5,3.08 0.81,1.87 0.19,2.74 0.13,3.92 -0.06,1.17 1.73,5.22 1.73,5.22z"/>
  </g>
 </g>
</svg>
