<svg height="476pt" viewBox="0 -10 476.43905 476" width="476pt" xmlns="http://www.w3.org/2000/svg"><path d="m453.3125 87.496094c-.664062-4.183594-4.46875-7.125-8.679688-6.710938-19.15625 1.847656-33.480468 18.414063-32.542968 37.636719l1.4375 58.9375c-15.757813 1.566406-29.550782 11.257813-36.367188 25.550781l-21.539062 45.222656c-3.347656 7.011719-8.234375 13.183594-14.289063 18.050782l-4.476562 3.589844c-22.765625 18.164062-35.449219 46.140624-34.117188 75.234374l-8.800781-4.191406c-3.988281-1.898437-8.761719-.203125-10.660156 3.785156l-23.617188 49.582032c-1.898437 3.988281-.207031 8.765625 3.785156 10.664062l108.816407 51.824219c1.914062.914063 4.113281 1.027344 6.113281.320313 2-.710938 3.636719-2.1875 4.546875-4.101563l23.617187-49.589844c1.898438-3.988281.207032-8.761719-3.78125-10.660156l-2.902343-1.378906-2.929688-16.710938c-.363281-5.941406 1.546875-11.796875 5.347657-16.375l56.351562-68.191406c.113281-.136719.222656-.277344.328125-.421875 11.613281-16.21875 17.738281-35.726562 17.476563-55.675781-.003907-.378907-.039063-.753907-.097657-1.128907zm-81.402344 351.292968-94.367187-44.949218 16.734375-35.140625 94.371094 44.945312zm74.210938-158.785156-56.175782 67.980469c-6.515624 7.859375-9.726562 17.945313-8.945312 28.125.019531.265625.050781.527344.101562.789063l1.039063 5.921874-62.519531-29.773437c-4.394532-26.789063 6.023437-53.863281 27.246094-70.792969l4.472656-3.589844c7.9375-6.382812 14.339844-14.464843 18.730468-23.652343l21.535157-45.222657c5.632812-11.785156 18.386719-18.414062 31.269531-16.253906l-31.484375 66.097656c-1.246094 2.585938-1.015625 5.636719.605469 8.003907 1.621094 2.367187 4.386718 3.683593 7.246094 3.449219 2.859374-.230469 5.375-1.976563 6.59375-4.570313l35.402343-74.335937c1.898438-3.988282.203125-8.761719-3.785156-10.660157-2.535156-1.207031-5.175781-2.171875-7.890625-2.886719l-1.484375-60.699218c0-.070313 0-.140625-.007813-.207032-.410156-7.875 3.832032-15.261718 10.835938-18.878906l21.535156 135.839844c.097656 16.234375-4.914062 32.085938-14.320312 45.316406zm0 0"/><path d="m17.816406 289.984375 56.351563 68.191406c3.796875 4.578125 5.710937 10.433594 5.347656 16.375l-2.929687 16.710938-2.894532 1.378906c-3.992187 1.898437-5.683594 6.671875-3.785156 10.660156l23.617188 49.589844c.910156 1.914063 2.546874 3.390625 4.546874 4.101563 2 .707031 4.199219.59375 6.113282-.320313l108.816406-51.824219c3.992188-1.898437 5.683594-6.675781 3.785156-10.664062l-23.617187-49.585938c-1.898438-3.988281-6.671875-5.683594-10.660157-3.78125l-8.800781 4.1875c1.332031-29.09375-11.351562-57.066406-34.117187-75.234375l-4.480469-3.589843c-6.054687-4.867188-10.9375-11.035157-14.285156-18.046876l-21.539063-45.21875c-6.816406-14.296874-20.609375-23.988281-36.367187-25.554687l1.4375-58.933594c.941406-19.222656-13.386719-35.792969-32.542969-37.640625-4.210938-.414062-8.015625 2.527344-8.679688 6.710938l-23.023437 145.261718c-.0625.375-.09375.75-.1015625 1.128907-.2617185 19.949219 5.8632815 39.457031 17.4804685 55.675781.105469.144531.214844.285156.328125.421875zm181.085938 103.855469-94.371094 44.949218-16.738281-35.144531 94.371093-44.945312zm-161.367188-294.992188c7.007813 3.617188 11.246094 11.003906 10.835938 18.875 0 .070313 0 .140625-.007813.210938l-1.480469 60.699218c-2.714843.714844-5.359374 1.679688-7.894531 2.882813-3.988281 1.902344-5.683593 6.675781-3.78125 10.664063l35.398438 74.332031c1.21875 2.597656 3.734375 4.34375 6.59375 4.574219 2.859375.234374 5.625-1.085938 7.246093-3.449219 1.621094-2.367188 1.851563-5.421875.605469-8.003907l-31.480469-66.097656c12.882813-2.160156 25.640626 4.472656 31.269532 16.261719l21.539062 45.21875c4.390625 9.1875 10.789063 17.273437 18.726563 23.652344l4.476562 3.589843c21.21875 16.929688 31.636719 44 27.242188 70.789063l-62.515625 29.773437 1.039062-5.921874c.046875-.261719.078125-.523438.101563-.789063.78125-10.179687-2.429688-20.265625-8.945313-28.125l-56.179687-67.980469c-9.410157-13.230468-14.417969-29.082031-14.324219-45.316406zm0 0"/><path d="m238.222656 217.484375c59.996094 0 108.632813-48.636719 108.632813-108.632813 0-59.996093-48.636719-108.632812-108.632813-108.632812s-108.632812 48.636719-108.632812 108.632812c.070312 59.96875 48.664062 108.566407 108.632812 108.632813zm0-201.265625c51.160156 0 92.632813 41.472656 92.632813 92.632812 0 51.160157-41.472657 92.632813-92.632813 92.632813s-92.632812-41.472656-92.632812-92.632813c.058594-51.136718 41.496094-92.574218 92.632812-92.632812zm0 0"/><path d="m232.628906 124.835938h44.757813c4.417969 0 8-3.582032 8-8 0-4.417969-3.582031-8-8-8h-37.164063v-50.335938c0-4.417969-3.582031-8-8-8-4.417968 0-8 3.582031-8 8v58.746094c0 4.417968 3.988282 7.589844 8.40625 7.589844zm0 0"/></svg>